<svg id="Layer_1" data-name="Layer 1" xmlns="http://www.w3.org/2000/svg" width="270" height="80"><defs><style>.cls-1{fill:#272727}</style></defs><title>front-benefits-icons</title><path class="cls-1" d="M268.68 37.35c.1-5.88-2-12.39-3.92-18.15-2.11-5.79-5.21-10.25-8.95-12.91-7.69-5.42-18-6.66-31.42-3.8a71.76 71.76 0 0 0-22.61 8.84l-.84.52-.7-.7a1.3 1.3 0 0 0-.86-.23c-10.93 1.14-15.38 11.5-17.04 17.58a40.34 40.34 0 0 0 6.78 34.5 39.8 39.8 0 0 0 26.77 14.92c13.15 1.76 25.85-5.47 34.18-11.85 7.93-5.99 18.41-15.49 18.61-28.72zM252.37 61c-9.08 8.09-21.09 14.4-33.37 14.4a35 35 0 0 1-22.85-8.57c-8-6.62-12.44-16.58-12.55-28-.1-5.45 1.2-13.27 5.13-18.83l1.92-2.71.35 3.3a1.6 1.6 0 0 0 1 1.27.9.9 0 0 0 1-.29C205.7 8.55 230-1 248.84 5.39c11.29 3.73 14 15.64 16.21 25.2 3.21 13.85-4.61 23.15-12.68 30.41zm-28.79-12.93v-27.2a1.25 1.25 0 0 1 2.5 0v27.2a1.25 1.25 0 0 1-2.5 0zm.1 10.2a1.41 1.41 0 0 1 .3-.91 1 1 0 0 1 .85-.34 1.15 1.15 0 0 1 1.17 1.25 1.41 1.41 0 0 1-.3.91 1 1 0 0 1-.85.34 1.15 1.15 0 0 1-1.17-1.25zm-45-20.92c.1-5.88-2-12.4-3.92-18.15-2.11-5.78-5.21-10.25-8.95-12.91-7.69-5.42-18-6.66-31.42-3.8a71.77 71.77 0 0 0-22.61 8.84l-.84.52-.7-.7a1.3 1.3 0 0 0-.86-.23C98.45 12.06 94 22.42 92.34 28.5A40.34 40.34 0 0 0 99.12 63a39.8 39.8 0 0 0 26.77 14.92c13.16 1.76 25.84-5.47 34.18-11.85 7.93-5.99 18.41-15.49 18.61-28.72zM162.37 61c-9.08 8.09-21.09 14.4-33.37 14.4a35 35 0 0 1-22.85-8.57c-8-6.62-12.44-16.58-12.55-28-.1-5.45 1.2-13.27 5.13-18.83l1.92-2.71.35 3.3a1.6 1.6 0 0 0 1 1.27.9.9 0 0 0 1-.29C115.7 8.55 140-1 158.83 5.39c11.29 3.73 14 15.64 16.22 25.2 3.21 13.85-4.61 23.15-12.68 30.41zm-27.51-5.28c-2.11 3.49-3.56 4.07-6.17 2.49-4.32-2.69-7.91-7.25-10.85-11.38a.82.82 0 0 1 .21-1.29 1.68 1.68 0 0 1 1-.32h.12a1.35 1.35 0 0 1 1 .61c.47.6 3.51 3.9 5.06 5.56 4.81 5.18 4.82 5.18 5.45 5.22h.57l.4-.4.17-.21c2.23-3.5 4.34-7.09 6.45-11a226.68 226.68 0 0 0 11.06-24 1.5 1.5 0 0 1 2-.8.84.84 0 0 1 .58 1.19 194.12 194.12 0 0 1-17.05 34.34zM88.68 37.35c.1-5.88-2-12.4-3.92-18.15-2.12-5.78-5.21-10.2-8.95-12.91C68.12.87 57.85-.37 44.39 2.5a71.77 71.77 0 0 0-22.61 8.84l-.84.52-.7-.7a1.3 1.3 0 0 0-.86-.23C8.45 12.06 4 22.42 2.34 28.5A40.34 40.34 0 0 0 9.12 63a39.8 39.8 0 0 0 26.77 14.93c13.16 1.76 25.85-5.47 34.18-11.85 7.93-6 18.41-15.5 18.61-28.73zM72.37 61C63.29 69.09 51.28 75.4 39 75.4a35 35 0 0 1-22.85-8.57c-8-6.62-12.44-16.58-12.55-28C3.49 33.34 4.78 25.52 8.71 20l1.92-2.72.37 3.26a1.6 1.6 0 0 0 1 1.27.9.9 0 0 0 1-.29C25.7 8.55 50-1 68.84 5.39c11.29 3.73 14 15.64 16.22 25.2 3.2 13.85-4.62 23.15-12.69 30.41zM46 47.29a1.28 1.28 0 0 1 0 1.12 1.7 1.7 0 0 1-.82.79 1 1 0 0 1-.71.09c-.07 0-.3-.09-.49-.5-2.13-4.95 1.11-8.79 4.22-11.13 1.41-1.11 6-5 5.56-9.26-.21-2.06-1.54-3.73-4-4.94A14.85 14.85 0 0 0 43.42 22a10.68 10.68 0 0 0-3.5.55 7.07 7.07 0 0 0-4.21 3.7.93.93 0 0 1-.57.55 1.12 1.12 0 0 1-.77-.11 1.36 1.36 0 0 1-.71-1.86C35 21.93 38 20 42 19.61c4.74-.52 9.5 1.18 11.84 4.23 2.11 2.73 3.43 6.88 1.61 10a20.38 20.38 0 0 1-3.7 3.69c-3.43 2.97-7.3 6.32-5.75 9.76zM44.93 57a1.15 1.15 0 0 1 1.15 1.25 1.41 1.41 0 0 1-.3.91 1 1 0 0 1-.85.34 1.15 1.15 0 0 1-1.15-1.25 1.41 1.41 0 0 1 .3-.91 1 1 0 0 1 .85-.34z"/></svg>