<svg id="Layer_1" data-name="Layer 1" xmlns="http://www.w3.org/2000/svg" width="96" height="24"><defs><style>.cls-1,.cls-2{fill:#272727}.cls-1{fill-rule:evenodd}</style></defs><title>icons</title><path class="cls-1" d="M37.79 10.52c-4.63 1.23-2.32-5.2.49-2.44 0 .8.1 1.73-.73 1.71-.59-.49.41-1.16-.24-1.71q-1.81-.34-1.46 1.46c1.26-.36 1 .74 2.2.49a2.11 2.11 0 0 0 .49-2.44c-1.83-1.23-4.69-.22-3.9 2.68.36.55 2.7 1.39 3.15.25zm-.73-1.46c-.43-.06-1.22.25-1-.49.44 0 .51-.3 1-.24zm2.2-2.82C35.92 5.15 32.46 4 28.26 4a1.45 1.45 0 0 0-.61.41A42.72 42.72 0 0 0 25 14.59c5.19 2.69 11.38 4.41 17.52 6.11A53.08 53.08 0 0 0 47 8.89c-2.38-1.31-5.09-1.78-7.74-2.65zM28.87 4.41c6.36 1.17 12.65 2.42 17.52 5.09-3.74 1-6.92 2.59-10.8 3.46-2.75-2.35-3.87-6.31-6.93-8.35-.03-.17.09-.19.21-.2zM26 14.8c1.82-1.78 4.46-2.74 6.31-4.48a18.08 18.08 0 0 0-6.52 4.28 42.33 42.33 0 0 1 2.44-10c2.69 2.6 4.39 6.2 7.13 8.76 1.74 0 2.71-.82 4.28-1a30.88 30.88 0 0 0 2.65 7.54c-5.45-.85-10.78-3.6-16.29-5.1zm16.5 4.89c-1.06-2.34-1.79-5-2.65-7.54a42.88 42.88 0 0 0 6.34-2.45c-.43 3.3-2.57 6.67-3.67 9.99z"/><path class="cls-2" d="M12.34 4.45c5-.06 11.58 2.82 9.53 6.81-3.43-2.47-5.77-6-12.71-5-3 .9-4 3.85-6.81 5C-.33 6.78 7.12 4.93 11 4 6 4 2.3 5.3 1 9a9.16 9.16 0 0 0 .12 1.85A9.25 9.25 0 0 0 1.79 12l.14.07c.47.06 1 .09 1.41.18l.77-.51L5.6 9.79l-1.48 3c-3.3 8.3 12.86 7.41 15.94 4 1.15-4.42-1.62-7.38-4.54-9.08 3.26.22 3.27 3.69 6 4.46a.68.68 0 0 1 .42-.15h.15c3.75-4.67-4.92-9.15-9.75-7.57zm6.81 12.26c-3.07 2-12.08 2.24-14.53-.45-.88-12.39 16.44-10.9 14.53.45zm-11.06-5.1L8 11.36a.33.33 0 0 0 0-.14 1.18 1.18 0 0 1 .82-.51c.09 0 .08 0 0 0h.16a.36.36 0 0 1 .2 0 .21.21 0 0 1 .1.14c0 .11 0 .25.09.36 0 .08-.13.15-.26.18s-.47.17-.7.27h-.12l-.17-.11zm1.15.81c.05 0 .17 0 .18.08s0 .13 0 .19a.1.1 0 0 1 .08.11c0 .29-.07.53-.3.64l-.06.06a1.23 1.23 0 0 1-.44.21.3.3 0 0 0-.15 0 .28.28 0 0 0-.19-.14.32.32 0 0 0-.09-.22 3.26 3.26 0 0 1 .07-.43.61.61 0 0 1 .12-.17 1.21 1.21 0 0 1 .78-.32zm.28 1.94a.93.93 0 0 1-.15 1.12 1.61 1.61 0 0 1-.89.34.93.93 0 0 1-.48-.15.32.32 0 0 0-.11-.07v-.08a1.63 1.63 0 0 1 1.3-1.2c.09-.03.29-.07.34.04zm1.85-4.12c.21 0 .41.11.41.34s-.25.4-.44.48a1.41 1.41 0 0 1-1.06-.06c-.12-.05 0-.17 0-.23a1.65 1.65 0 0 1 1.1-.53zm.41 1.81c.07 0 .06.07 0 .1l.12.06a.86.86 0 0 1 .05.39.25.25 0 0 0 0 .13l-.05.09a.47.47 0 0 1-.1.11 2.65 2.65 0 0 1-.7.14h-.11a1.14 1.14 0 0 1-.74-.32.4.4 0 0 1 0-.33c.16-.33.67-.38 1-.35h.28a.48.48 0 0 1 .26-.02zm.22 2.37a1.61 1.61 0 0 1 0 .38.3.3 0 0 0 0 .14.83.83 0 0 1-.2.18 1.86 1.86 0 0 1-.5.26.23.23 0 0 1-.08.1.76.76 0 0 1-.73-.51.28.28 0 0 0-.11-.16.48.48 0 0 1 .13-.42 1 1 0 0 1 .79-.26h.15a.64.64 0 0 1 .42.16.32.32 0 0 0 .13.13zm.63-4.22a1 1 0 0 1 .48-.51.78.78 0 0 1 .89.11.45.45 0 0 1 .06.57.26.26 0 0 1-.16.18 1.32 1.32 0 0 1-.67.24.41.41 0 0 0-.17-.06c-.26-.03-.38-.27-.42-.53zm1.47 1.53c.19.07.48.22.43.42a.32.32 0 0 0 0 .13 1.06 1.06 0 0 1-.6.62.89.89 0 0 1-1-.17.58.58 0 0 1-.17-.4 3.44 3.44 0 0 1 .23-.52 2.24 2.24 0 0 1 .61-.19 2.77 2.77 0 0 1 .46.11zm.62 1.68a.48.48 0 0 1 .28.85 2.05 2.05 0 0 1-.46.39 2 2 0 0 1-.26.26c-.38.07-.89.19-1-.26a.31.31 0 0 0 0-.08 1.42 1.42 0 0 1 1.45-1.15zm46.15-9.76A5.14 5.14 0 0 0 55.58 7c-1.18 2.84 1.85 5.3 4 6.34a.31.31 0 0 0 .36-.1C62.6 12.76 64.67 11.91 65 9a5 5 0 0 0-4.13-5.35zm-1.15 9c-1.92-1-3.59-2.3-3.72-4.65-.14-2.6 3-4.07 5.16-3.69S64.47 6.92 64.42 9c-.09 2.65-2.56 3.31-4.69 3.65zM60.5 1c-3.41-.09-7.95 2.27-8 6.15 0 2.55 1.37 4.87 2.46 7.1 1.37 2.79 2.89 5.49 4.49 8.14a.26.26 0 0 0 .11.1l-.06.09c-.24.28.28.62.52.28a63.36 63.36 0 0 0 4.54-7 18.32 18.32 0 0 0 2.6-6.48c.53-4.12-2.31-8.24-6.66-8.38zm5.06 11.59A51.81 51.81 0 0 1 59.92 22a105.06 105.06 0 0 1-5.15-9.55c-1.14-2.32-2.22-4.54-1.09-7.14 1-2.41 3.74-3.41 6.15-3.69 6.3-.71 7.76 6.53 5.73 10.97zm28.21-1.85c-.91-4.4-3.71-7.28-7.7-7.9S77 3.48 75.23 7.67v.1a10.15 10.15 0 0 0 1.68 10.43 9.83 9.83 0 0 0 10.9 2.49c4.29-1.62 6.82-5.82 5.96-9.95zm-1.48 5.65A9.65 9.65 0 0 1 84 20.92a9.23 9.23 0 0 1-4.23-1 9.49 9.49 0 0 1-4.1-12l.05-.07c2.36-3.74 7.08-5.33 11.75-4A8.35 8.35 0 0 1 92.61 9a8.56 8.56 0 0 1-.33 7.38zm-7.78-4.6a3.53 3.53 0 0 1-.05 1.83 4 4 0 0 1-.94.79l-.4.29-.4.32a7.68 7.68 0 0 1-1.88 1.24s-.1 0-.18-.07a.28.28 0 0 1 0-.33 9.43 9.43 0 0 1 1.1-.84c.24-.17.47-.33.69-.5l.2-.14c.85-.55 1.36-.94 1.47-1.25V13s0-.2-.07-.44-.15-.84-.16-.93l-.1-1.51c0-1-.09-2-.15-3.1v-.14a.21.21 0 0 1 .09-.21.29.29 0 0 1 .15 0 .33.33 0 0 1 .15 0 .26.26 0 0 1 .14.24V7c.09 1.36.19 2.76.25 4.11.02.22.05.44.08.68zm7.16.71c0 .18-.17.23-.27.24h-.78a.32.32 0 0 1-.3-.3.22.22 0 0 1 .06-.16.33.33 0 0 1 .21-.11h.81c.12.11.26.2.26.33zm-2.54-4a.27.27 0 0 1-.13-.14.22.22 0 0 1 .06-.3c.17-.08.32-.18.47-.27l.27-.16h.12a.27.27 0 0 1 .08.07.22.22 0 0 1-.09.29l-.67.48a.16.16 0 0 1-.12.01zm-10.45-.64l-.35-.15-.43-.2a.31.31 0 0 1 0-.21.21.21 0 0 1 .17-.11l.78.29a.27.27 0 0 1 .16.14.21.21 0 0 1 0 .17.14.14 0 0 1-.09.08.29.29 0 0 1-.24-.01zm1 9.33a.22.22 0 0 1-.06.3c-.17.08-.33.18-.48.28l-.26.16a.15.15 0 0 1-.12 0 .27.27 0 0 1-.13-.09.22.22 0 0 1 .09-.29l.68-.48a.16.16 0 0 1 .12 0 .27.27 0 0 1 .16.12zm10.52 0c.11.05 0 .25 0 .27a.16.16 0 0 1-.08.08.16.16 0 0 1-.11 0l-.78-.29a.27.27 0 0 1-.16-.14.21.21 0 0 1 0-.17.23.23 0 0 1 .13-.13h.07a.4.4 0 0 1 .17 0l.35.15zM83.75 5.14a.19.19 0 0 1 0-.15v-.81a.2.2 0 0 1 .41 0V5a.25.25 0 0 1-.24.24.24.24 0 0 1-.17-.1zm.39 13.68v.81a.24.24 0 1 1-.47 0v-.81a.19.19 0 0 1 .2-.2.31.31 0 0 1 .27.19zM77 13h-.45a.32.32 0 0 1 0-.65H77c.43.05.43.73 0 .65z"/></svg>