<svg xmlns="http://www.w3.org/2000/svg" width="280" height="140"><defs><style>.cls-1{fill:#272727}</style></defs><title>icons</title><path class="cls-1" d="M131 79.82c.18.45.6.25.82.44a1.06 1.06 0 0 1 .4.81.53.53 0 0 1-.49.56c-1 .18-2.12.16-2.83 1.19-.1.15-.66 0-1 0a10.25 10.25 0 0 0-4.62.79c-1.85.81-3.94.9-5.64 2-.64.43-1.45.15-2 .33-1.09.34-2.21.43-3.29.72-3.42.91-6.85 1.77-10.28 2.68s-6.64 2-9.91 3.13a57.92 57.92 0 0 1-8.59 2.12c-2.4.45-4.73 1.31-7.09 2a2.17 2.17 0 0 0-.85.6c-.24.22-.57.45-.84.29-1-.58-2.18-.4-3.07-1.19a2.29 2.29 0 0 0-1.35-.64.86.86 0 0 1-.66-.41c-.36-1.34-1.25-.71-1.91-.47a7.71 7.71 0 0 0-2.8 1.12c-.44.37-1.45 0-2.1-.52a14.17 14.17 0 0 0-3-2.22c-3.54-1.49-6.13-4.41-9.51-6.11-1-.53-2.14-.26-3.2-.47-1.43-.28-2.9-.42-4.34-.66-.45-.07-1-.18-1-.8a1.15 1.15 0 0 1 .86-1.23c4.15-1.46 8.22-3.08 12.63-3.79 8-1.27 16-2.18 23.95-3.55 2.08-.36 4.2-.5 6.25-.91 1.51-.3 3-.65 4.54-.94 2.29-.44 4.51-.33 6.14 1.75.81 1 .78 1.58-.31 2.31-.92.61-1.9 1-2.38 2.21-.3.79-1.64.87-2.55.83-3.85-.17-7.58 1-11.41 1a2 2 0 0 0-1.2.38 1.32 1.32 0 0 1-1.72.08 2.16 2.16 0 0 0-1.84-.25c-4.72.64-9.45 1.2-14.15 2a54.65 54.65 0 0 1-7.16 1 29.18 29.18 0 0 0 5.28 4.33 12.53 12.53 0 0 1 2.42 2.1 5.06 5.06 0 0 0 5.87 1.6c2.37-.84 4.95-1 7.29-1.8 3.65-1.25 7.56-1.21 11.13-2.63a55.55 55.55 0 0 1 8.24-2.44c3.4-.78 6.88-1.24 10.29-2 2.36-.51 4.82-.51 7.1-1.27a54 54 0 0 1 6.73-1.34c1.38-.27 2.82-.33 4.2-.7s2.67-.68 4-1.15c-1.4-.63-2.43-1.76-3.93-2.29a21.56 21.56 0 0 1-3.71-2.41c-4.27-2.64-8.44-5.45-12.79-8-5.29-3.05-10.49-6.28-16-9-2.62-1.22-5.06-2.86-7.62-4.2-2.43-1.26-4.55-3-7.15-4a11.93 11.93 0 0 1-1.54-.51c-.56-.3-1-.83-.49-1.29.3-.3.85-1 1.54-.44 3.6 2.91 7.91 4.62 11.88 6.89 4.59 2.62 9.34 5 13.82 7.79a27.1 27.1 0 0 0 7.94 3.64 12.59 12.59 0 0 1 3 1.47 30.5 30.5 0 0 0 4.57 2.09c4.14 1.53 8.24 3.15 12.26 4.94 1.59.71 3 1.78 4.59 2.56.89.44.82.83 0 1.4-.42.32-.99.21-1.42.48zm-46.4-3c-3-.06-5.62.71-8.32 1.08-5.21.71-10.39 1.65-15.6 2.29-2.79.34-5.52 1-8.29 1.42-.72.11-1.56.28-1.33 1.37A2.45 2.45 0 0 0 53.43 85c2.29.19 4.43-.67 6.65-.9 4.86-.5 9.68-1.25 14.5-2 .61-.09 1-.18.82-1s.25-1.44 1.18-1.41c.75 0 1.48-.19 2.21-.16 4.33.18 8.37-1.27 12.51-2.17 1.11-.24.54-.92.53-1.43 0-.74-.54-.48-1-.51-1-.06-1.46 1.08-2.2 1-1.47-.07-2.81.8-4.06.45zm24.59 9.07c-13.23 1.74-25.65 5.86-38.45 8.44.55.31.9.73 1.34 1a2.89 2.89 0 0 0 2.58.45c1.48-.37 2.58-1.48 4.12-1.69a59.37 59.37 0 0 0 6.42-1.72c2.09-.54 4.08-1.46 6.27-1.7 2-.22 3.92-1.06 6-1.18.87-.05 1.49-.83 2.37-.93 2.67-.3 5.12-1.5 7.78-1.9a2.44 2.44 0 0 0 1.54-.73zm4.3-15.3l-.18.27.95.59c2 1.29 4.26 2.22 6.29 3.54a69.39 69.39 0 0 0 7.78 4.22c.23.11.66.53.82-.1.1-.37.39-.84-.24-1.07-.22-.08-.41-.22-.63-.31-3.86-1.66-7.56-3.66-11.34-5.49zm-65.17 15a2.7 2.7 0 0 0 1.11-.22c1.44-.31 1.59-.82.76-2.08-.43-.66-.69-.76-1.31-.55-1 .31-1.93.61-2.9.89a.79.79 0 0 0-.65.73c0 .37.24.53.5.72.74.55 1.63.38 2.46.54zM92.61 79a3.65 3.65 0 0 0-3.15-.12c-2.21.57-4.35 1.41-6.68 1.48-1.82.06-3.64.26-5.45.41-.25 0-.61 0-.61.35s.31.5.65.47c.5 0 1-.07 1.51-.14 2.92-.42 5.85-.83 8.77-1.27A20.79 20.79 0 0 0 92.61 79zm1.56-1.6a.58.58 0 0 0 .7.64c.3 0 .79-.19.65-.64s-.38-1-1-1c-.32-.01-.39.46-.35 1.01zm-79.8-18s.23 0 .3.09c.76.75 1.85 1 2.66 1.66 2.2 1.93 4.42 3.84 6.73 5.62 4.36 3.36 8.95 6.4 13.6 9.35A11.61 11.61 0 0 1 39.89 78a21.3 21.3 0 0 0 4.51 3.39c.26.15.59.34.82 0s-.09-.52-.25-.79c-.54-.93-1.61-1-2.36-1.56-1-.81-2-1.83-3-2.53-2-1.3-3.92-2.68-6-3.86a65.18 65.18 0 0 1-7.83-5.72c-2.71-2.16-5.53-4.2-8.11-6.52-1.62-1.46-3.57-2.53-5-4.17-.17-.19-.53-.3-.41-.64s.43-.36.74-.45a20.74 20.74 0 0 1 4.85-.4 55.39 55.39 0 0 0 8.7-.8 19.56 19.56 0 0 1 4.38-.72c5.19.13 10.19-1.34 15.34-1.59a79.88 79.88 0 0 0 9.34-1.34c2.7-.46 5.48-.57 8.2-1 1.57-.28 3.18-.34 4.78-.49.46 0 .76-.26.76-.72s-.46-.39-.79-.47a10 10 0 0 0-4.45.25c-3.42.79-6.91.51-10.33 1-1.93.29-3.89.17-5.83.43-2.44.33-4.77 1.2-7.25 1.27a63.38 63.38 0 0 0-6.83.61c-4 .55-8.11 1-12.15 1.66-2.46.4-4.94.54-7.39 1-1.11.22-2.23.84-3.51.46a1.52 1.52 0 0 0-1.51.82c-.28.71.32 1 .71 1.31a13.08 13.08 0 0 0 2.65 1.82c-.92.63-2 .43-2.8.92-.33.2-.94-.29-1.06.39s.37.88.74 1.24a33.53 33.53 0 0 0 5.66 4.2c3.79 2.35 7.14 5.3 11 7.59C28 73.71 29.82 75 31.76 76c3 1.5 5.74 3.31 8.53 5.07a8.86 8.86 0 0 0 2.48 1.4c.26.07.65.34.81-.1s-.22-.52-.51-.65A13.34 13.34 0 0 1 40.34 80c-2.16-1.73-4.45-3.28-6.74-4.82-2.13-1.43-4-3.31-6.26-4.46a13.17 13.17 0 0 1-3-1.4c-3.93-3.25-8.45-5.72-12.35-9 .72-.57 1.79-.06 2.37-.91zm10.64 0c-.09.23-.11.45.17.59s.53.15.54-.16c0-.77.59-.61 1-.65a21.94 21.94 0 0 0 3.28-.62 8.56 8.56 0 0 1 4.22-.43 3.44 3.44 0 0 0 2.05 0 33.23 33.23 0 0 1 8.62-1.92 6.54 6.54 0 0 0 2.65-.89c.25-.15.64-.31.51-.68s-.53-.24-.83-.22a30 30 0 0 0-3.16.72c-1.36.24-2.74.22-4.09.55-2 .48-3.85 1.36-5.94 1.21a9.19 9.19 0 0 0-1.27 0c-1.55.1-3 1.19-4.57.56A3.65 3.65 0 0 0 25 59.39zm58.44 2.2c.35 0 .75 0 .79-.49s-.38-.56-.62-.58a24.28 24.28 0 0 0-3.33-.22c-1.31.13-2.59.55-4 .64a6.81 6.81 0 0 0-2.82.53c-1.8 1-3.63 1.62-5.62.51a1.07 1.07 0 0 0-.57-.08 39.69 39.69 0 0 0-7.79 1.82c-.25.07-.44.25-.42.49a.48.48 0 0 0 .61.39A7.79 7.79 0 0 0 62.2 64c1.45-.84 3.17-.38 4.61-1.15.1-.05.29.07.44.1 1.64.36 3.18.79 5 .06 3.19-1.31 6.68-1.18 10-1.52.42.07.81.11 1.2.11zm-33.11-7.76c-.36.07-.76.06-.76.53s.39.48.76.51c1.27.1 2.53.19 3.79.36 2.37.31 4.7-.26 7-.45 1.46-.12 2.91-.73 4.45-.68a3 3 0 0 0 1.74-.63.77.77 0 0 0 .43-.78c-.08-.36-.42-.44-.74-.45a7.22 7.22 0 0 0-2.41.25 33.94 33.94 0 0 1-5.45 1.38 20.32 20.32 0 0 1-6.76-.26 7.76 7.76 0 0 0-2.05.22zm5.25 2.94c-.16.38.15.63.42.72.53.18 1 .75 1.63.38 1.14-.67 2.44-.4 3.65-.66a1.11 1.11 0 0 1 1.11.17c.52.55 1 .34 1.59.1 1.27-.52 2.5-1.24 4-.79.53.16 1 .83 1.6.45a6.94 6.94 0 0 1 4.24-1 .69.69 0 0 0 .76-.83c-.06-.48-.49-.51-.91-.5-2.18 0-4.24 1.39-6.49.62-1.41.79-3 .63-4.51.81-2.12.25-4.25.11-6.35.41-.27-.05-.6-.21-.74.12zM44 59a12.44 12.44 0 0 0-4 .75c-.24.09-.47.42-.71.23-.93-.69-1.82-.28-2.76 0a12.49 12.49 0 0 1-2.51.3 18.18 18.18 0 0 0-4.27.47 1.2 1.2 0 0 0-.92 1.3c.07.73.83.64 1.21.43 1.54-.89 3.31-.76 4.94-1.25a14 14 0 0 1 3.15-.72c.6 0 1 .58 1.55.31 1.44-.73 3-.67 4.55-.88.28 0 .55-.06.6-.48A.78.78 0 0 0 44 59zm15.17 1c-1.06.64-2.1 1.31-3.44 1-.2 0-.32.2-.34.4a1.09 1.09 0 0 0 .36.95c.23.19.4.05.59-.12a3.66 3.66 0 0 1 2.29-1c2.17 0 4.19-.77 6.34-.93a33.19 33.19 0 0 0 4.47-.54c.36-.08.94 0 .91-.5s-.65-.36-1-.43a.71.71 0 0 0-.35 0c-2.19.82-4.67-.26-6.8 1.11a2.31 2.31 0 0 1-2.28-.15 3.13 3.13 0 0 0-.79.21zm-25.3 4.14c-.38.08-1 .35-.87.92s.75.53 1.28.43c.9-.17 1.64-.79 2.48-1 2.45-.51 5-.76 7.39-1.36a.76.76 0 0 1 .57 0c.46.36.79 0 1.17-.15.22-.1.46-.19.37-.49s-.32-.32-.57-.28a20.23 20.23 0 0 1-2.09.18c-1.69.08-3.28.75-5 .81a19.38 19.38 0 0 0-4.76.94zM84 63.61a28.6 28.6 0 0 0-3.58.46c-.28 0-.71 0-.64.5s.43.4.74.38c1.69-.13 3.38-.24 5.07-.44 1.37-.16 2.72-.64 4.12-.41.39.06.57-.14.71-.45s.25-.5 0-.75a.78.78 0 0 0-.84-.23 7 7 0 0 1-2.58.53c-1-.13-1.94.39-3 .41zm-11.1 2.5c.38 0 .71 0 .76-.51a.7.7 0 0 0-.55-.78 1.73 1.73 0 0 0-1.13.07 8.79 8.79 0 0 1-3.21.34A5.71 5.71 0 0 0 65 66.35c-.36.25-.86.65-.4 1.13a.82.82 0 0 0 1.3-.15c.37-.47.84-1 1.41-.93 1.62.28 3.12-.53 4.71-.35zm-23.5 2.75c-2.14.44-4.26 1-6.38 1.45a3.6 3.6 0 0 0-1 .38c-.27.16-.76.27-.55.74s.64.36 1 .22a6.83 6.83 0 0 1 1.51-.6c2.73-.3 5.26-1.51 8-1.74a3.68 3.68 0 0 0-2.58-.45zm7-3.45c.34-.06.83.14.94-.43.05-.25.23-.51-.06-.74a1.11 1.11 0 0 0-1.28-.08 6.64 6.64 0 0 1-2.12.59c-1.37.1-2.67.76-4.11.52-.36-.06-1 .08-.93.75s.57.4 1 .38a13.21 13.21 0 0 0 2.97-.4c1.19-.18 2.36-.37 3.54-.58zm4 3.19c.31 0 .54-.46.3-.5-.92-.16-1.71-1-2.63-.74a5.29 5.29 0 0 1-3.07.14 3.55 3.55 0 0 0-1.5.08c-.53.09-.64.5-.59 1s.37.48.82.47c1.74 0 3.42-.66 5.18-.48.44.01.94.06 1.44.04zm-13-10c-.08.23-.4.18-.63.21-.4.05-.9-.11-1.08.45a.44.44 0 0 0 .19.51c.43.28.82 0 1.22-.13.18-.05.34-.2.53-.25a16.74 16.74 0 0 1 3.89-1c.47 0 .93.18 1.19-.38.09-.2.29-.47.05-.63a1.47 1.47 0 0 0-1.35 0 7.4 7.4 0 0 1-2.48.59c-.67-.11-1.3-.16-1.58.63zm-2.79 9c.29 0 .58 0 .68-.29a.59.59 0 0 0-.2-.73c-.28-.18-.61-.29-.86 0a2.23 2.23 0 0 1-1.48.56 34.65 34.65 0 0 1-4.15.56 1.37 1.37 0 0 0-1.26.48c-.12.18-.42.29-.21.57s.34.09.53 0a11.13 11.13 0 0 1 2.91-.52c1.43.28 2.6-.85 4-.63zm32.62-10.39c-.59 0-1.06.32-1 .89.09.72.66.32 1.1.31a8.12 8.12 0 0 1 2.5-.12c.26.08.48.27.69-.06a.93.93 0 0 0 0-1c-.15-.29-.42-.3-.7-.19a3.13 3.13 0 0 1-2.12.16zm-24.12 4.2c-1.2.28-2.38.62-3.58.93-.34.09-.59.29-.51.65s.48.3.76.24a22.77 22.77 0 0 1 3.5-.74.67.67 0 0 0 .7-.55.74.74 0 0 0-.87-.52zm21.34-2.27a1.28 1.28 0 0 0 1.27-.36.24.24 0 0 0-.12-.38 1.53 1.53 0 0 0-1.52.2c-.14.12-.34.2-.32.48.24.32.46.02.69.07z" id="Layer_1" data-name="Layer 1"/><path class="cls-1" d="M254.92 123a.82.82 0 0 1-.78.92l-.73.16a4.76 4.76 0 0 1-1.75.2 16.36 16.36 0 0 0-6.42.28h-5.49c-3.93 0-8 .09-12-.1-4.19-.2-8.41 0-12.5.11s-8.35.31-12.53.1-8.23 0-12.28.14c-2.48.1-5.05.21-7.57.23h-.11a74.61 74.61 0 0 1-21-3.41c-3-.88-4.34-1.74-3.64-4.25a1.45 1.45 0 0 0-.34-1.28c-2.42-2.85-2.32-6.15-2.23-9.65a37.22 37.22 0 0 0 0-4.14c-.5-6-.42-12.17-.34-18.11.06-4.2.11-8.54 0-12.81l-.21-4.06c-.26-7.34-.53-14.93-.49-22.38q0-2.81.06-5.62v-.26c.07-5.84.14-11.89-.07-17.85-.06-1.78.11-1.92 2.64-2.15 1.63-.15 3.41-.22 5.44-.22s4.15.07 6.16.15a81.55 81.55 0 0 0 13.68-.29 99.75 99.75 0 0 1 13.83-.52h4.68c6.31 0 11.95 0 17.26.13 6.58.16 13.19.13 19.57.09h6.84c.8 0 1.06.24 1.27.7.13.28.14.42-.29 1-.09.13-.13.15-.13.15a2.07 2.07 0 0 1-.49-.17l-.44-.18c-3.54-1.22-7.16-1.1-10.66-1-1.38 0-2.82.1-4.22.06-5.15-.15-11.47.2-16.52.18-4.55 0-8.44-.06-13.08-.17-5.45-.13-5.83.17-12.67.25-5.81.07-14.69.71-20.37.73h-3.84c-2.9 0-5 .31-6.2 1.61s-1.44 3.42-1.35 6.19c.08 2.33 0 4.7-.08 7s-.15 4.4-.09 6.63c.08 3.06.2 6.16.32 9.18.14 3.5.28 7.13.35 10.69 0 2.44.19 4.91.32 7.32.2 3.61.42 7.35.31 11-.13 4.36 0 8.77.07 13.08.1 4.07.19 8.27.09 12.4-.09 3.51 0 7.57 1.55 11 1.13 2.55 3.76 4.35 7.21 4.94 1.54.26 3.07.55 4.63.84 3.23.6 6.57 1.22 9.9 1.6a37.85 37.85 0 0 0 7.15-.09l1.64-.12c2.63-.17 5.29-.08 7.86 0 1.68.06 3.58.12 5.43.1 3.05 0 6.15-.17 9.22-.3 4.17-.18 8.48-.37 12.71-.29 4.56.08 9.09-.16 13.48-.4 3.67-.2 7.47-.4 11.2-.41a11 11 0 0 0 2-.23 5 5 0 0 1 3 .06c.93.46 1.02.8 1.04 1.24zm.7-75.8h-.5l-3.74-.2c-5.62-.37-11.43-.75-17.16-.8-2.15 0-4.4-.1-6.38-.17a116.93 116.93 0 0 0-12.65 0c-2.76.2-5.56.17-8.27.15-2.38 0-4.77 0-7.11.08s-4.37 0-6.48-.05-4.29-.17-6.42 0c-1.93.11-3.85.24-5.78.36-6.31.41-12.82.84-19.27.7a2.17 2.17 0 0 0-1.71.6c-.51.52-.77.36-.74 1.42a1.38 1.38 0 0 0 .43 1.09 1.79 1.79 0 0 0 1.43.21 12.57 12.57 0 0 1 2.46-.22c1 0 2 .09 3 .18s1.77.17 2.64.18c8.59.09 15.71-.11 22.4-.63 7.94-.61 16.42-.88 27.49-.84H226a239.38 239.38 0 0 1 25.91.83h.15c.67-.1 1-.22 1.1-.86.22-1.37 1-1 2.37-1a.88.88 0 0 0 .65-.23.6.6 0 0 0 .16-.46.51.51 0 0 0 0-.16 5.49 5.49 0 0 0-.71-.15zm12.07 63.4a13.83 13.83 0 0 1-.23-2.13v-3.92c0-4.52 0-9.2-.42-13.74-.38-4.12-.49-8.29-.61-12.32-.09-3.27-.19-6.65-.42-10a94.43 94.43 0 0 1 .27-12.91c.21-3.18.43-6.46.39-9.67 0-3.64-.24-7.34-.59-11.31a23.6 23.6 0 0 1 .44-5.85 21.43 21.43 0 0 0 .42-4.9v-1.47a16.89 16.89 0 0 0 0-2.42 2.23 2.23 0 0 0-.93-1.42 3.19 3.19 0 0 0-1.86-.68h-.29a1.11 1.11 0 0 0-.82.44 1 1 0 0 0 0 .84c1.24 3.17 1.22 6.4 1.19 9.53v1.75c0 1.38.06 2.77.11 4.16.18 5.11.36 10.33-1.38 15.37-.8 2.3-.46 4.64-.14 6.91.15 1 .31 2.13.35 3.22.21 4.68.31 9.44.41 14 .16 7.59.33 15.39 1 23a89.11 89.11 0 0 1 .11 10.08v1.57c-.11 4.64-.51 5.82-4.53 7.72a1.24 1.24 0 0 0-.81 1.65c.17.43.37.71.57.78a1.09 1.09 0 0 0 .8-.24 3.93 3.93 0 0 1 1.49-.48 3.29 3.29 0 0 0 .81-.21l.5-.24c2.27-1.1 4.06-2 4.41-4.59a9 9 0 0 0-.23-2.48zm-87.48-81.1a3.92 3.92 0 0 0-4 3.57 3.12 3.12 0 0 0 .81 2.29 2.19 2.19 0 0 0 1.56.74c1.68 0 4-2.12 4-3.67a3.16 3.16 0 0 0-.72-2.33 2.21 2.21 0 0 0-1.64-.6zm56.72.57a3.09 3.09 0 0 0-2 .94 2.85 2.85 0 0 0-1 1.88 2.2 2.2 0 0 0 .49 1.62 2.55 2.55 0 0 0 1.86.56 2.91 2.91 0 0 0 3-2.44 2.37 2.37 0 0 0-.54-1.82 2.44 2.44 0 0 0-1.81-.75z" id="Layer_3" data-name="Layer 3"/></svg>