<svg id="Layer_1" data-name="Layer 1" xmlns="http://www.w3.org/2000/svg" width="160" height="24"><defs><style>.cls-1{fill:#272727}</style></defs><title>navbar-logo</title><path class="cls-1" d="M16.55 3.19q-1.25.23-2.47.39t-1.89.28L11 5q-.38 1.6-.81 3.71T9.37 13q-.37 2.22-.62 4.29a30.62 30.62 0 0 0-.25 3.57A11.29 11.29 0 0 1 8.44 22a3 3 0 0 1-.38 1.15h-.23a.45.45 0 0 1-.33-.13.75.75 0 0 1-.19-.33 2.93 2.93 0 0 1-.09-.42 2.79 2.79 0 0 1 0-.36 19.53 19.53 0 0 1 .41-4q.41-2 .89-4t.89-4a20.81 20.81 0 0 0 .41-4.11 1.75 1.75 0 0 0-.9-1.45q-1.92.26-3.74.6a23.62 23.62 0 0 1-3.66.39L1 4.85a.79.79 0 0 1 .26-.42 1.84 1.84 0 0 1 .38-.22 18.58 18.58 0 0 1 3.44-.89Q6.84 3 8.67 2.9l3.68-.31A28.11 28.11 0 0 0 16 2l1.41-.35a6 6 0 0 1 1.44-.17 1.31 1.31 0 0 1 .76.15.47.47 0 0 1 .17.38q0 .35-.92.62a22.78 22.78 0 0 1-2.31.56zm13.89 15.32l-1.57 1q-.81.55-1.66 1a12.62 12.62 0 0 1-1.79.81 5.33 5.33 0 0 1-1.82.32 3.45 3.45 0 0 1-1.51-.35 4.55 4.55 0 0 1-2.19-2.22 3.62 3.62 0 0 1-.34-1.53 7.89 7.89 0 0 1 .57-3.05 8.79 8.79 0 0 1 1.53-2.46 11.28 11.28 0 0 1 2.22-1.93 19.26 19.26 0 0 1 2.66-1.48l1.95-.61a1 1 0 0 1 .87.13 1.74 1.74 0 0 1 .78 1 2.75 2.75 0 0 1 .09.67 3.39 3.39 0 0 1-.57 1.89 6.42 6.42 0 0 1-1.44 1.55 9.23 9.23 0 0 1-1.91 1.15 9.86 9.86 0 0 1-2 .67q-.5.12-.93.17t-.82.15a2.68 2.68 0 0 0-1.27.55 1.92 1.92 0 0 0-.48 1.51 1.07 1.07 0 0 0 .16.54l.31.51.12.26a7.92 7.92 0 0 1 .52.64l.26.26.26.23a2.52 2.52 0 0 0 1.66.47 5.34 5.34 0 0 0 1.38-.17 9.25 9.25 0 0 0 1.26-.44q.58-.26 1.13-.55t1.13-.43l.62-.26a7.74 7.74 0 0 1 .74-.23l.09.15zm-2-9.56a3.84 3.84 0 0 0-1.66.44 8.58 8.58 0 0 0-1.71 1.1A8.35 8.35 0 0 0 23.64 12a4 4 0 0 0-.76 1.64.77.77 0 0 1 0 .23.23.23 0 0 1 0 .15.16.16 0 0 0 .06.12.64.64 0 0 0 .32.32 1 1 0 0 0 .38.09 4.08 4.08 0 0 0 1.51-.42 12.7 12.7 0 0 0 1.9-1 8.49 8.49 0 0 0 1.63-1.38 2.23 2.23 0 0 0 .68-1.45 2.22 2.22 0 0 0-.19-.81.77.77 0 0 0-.73-.54zm16.88 3.37a11.94 11.94 0 0 1-1.34.44l-1.07.24A5.25 5.25 0 0 0 40 14.69a5.68 5.68 0 0 0-1 3.18l-.41 5.84a.89.89 0 0 0-.1.16q-.07.13-.13.13a.56.56 0 0 1-.45-.25 2.24 2.24 0 0 1-.32-.61 4.79 4.79 0 0 1-.2-.76 3.71 3.71 0 0 1-.07-.65 9.81 9.81 0 0 1 .17-1.85 9.87 9.87 0 0 0 .16-1.88 4.4 4.4 0 0 0-.07-.87 1.88 1.88 0 0 0-.25-.62 2.07 2.07 0 0 0-.46-.51q-.29-.23-.73-.52a3.5 3.5 0 0 0-.73 0l-.55.1-.48.1-.54.1a1.73 1.73 0 0 1-.55.09 1.46 1.46 0 0 1-.41-.06 2.26 2.26 0 0 1-.47-.2.4.4 0 0 1 0-.17c0-.1.07-.18.2-.26a1.24 1.24 0 0 1 .33-.19 2.11 2.11 0 0 0 .33-.16 6.83 6.83 0 0 0 1.47-.55 10.51 10.51 0 0 0 1.6-1 9.31 9.31 0 0 0 1.37-1.22 3.22 3.22 0 0 0 .77-1.29q.35-1.31.57-2.59t.39-2.59q.14-1.31.28-2.57T40 .52a.51.51 0 0 1 .61-.52.48.48 0 0 1 .39.18 1 1 0 0 1 .19.38 2.39 2.39 0 0 1 .07.48v.44a13 13 0 0 1-.13 1.85q-.13.92-.33 1.85T40.37 7q-.22 1-.37 1.89a10.44 10.44 0 0 0-.29 2.11 1 1 0 0 0 .32.86 1.39 1.39 0 0 0 .87.25 4.92 4.92 0 0 0 1.51-.23q.73-.23 1.48-.55t1.34-.49a4.3 4.3 0 0 1 1.31-.2c.21 0 .36.16.44.46a1.43 1.43 0 0 1-.6.67 5.69 5.69 0 0 1-1.06.55zm13.6 6.19l-1.57 1q-.81.55-1.66 1a12.62 12.62 0 0 1-1.79.81 5.33 5.33 0 0 1-1.82.32 3.45 3.45 0 0 1-1.51-.35 4.55 4.55 0 0 1-2.19-2.22 3.62 3.62 0 0 1-.34-1.53 7.89 7.89 0 0 1 .57-3.05 8.79 8.79 0 0 1 1.53-2.46 11.28 11.28 0 0 1 2.22-1.93A19.26 19.26 0 0 1 55 8.71l2-.61a1 1 0 0 1 .87.13 1.74 1.74 0 0 1 .78 1 2.75 2.75 0 0 1 .09.67 3.39 3.39 0 0 1-.57 1.89 6.42 6.42 0 0 1-1.44 1.55 9.23 9.23 0 0 1-1.91 1.15 9.86 9.86 0 0 1-2 .67q-.5.12-.93.17t-.82.15a2.68 2.68 0 0 0-1.27.55 1.92 1.92 0 0 0-.48 1.51 1.07 1.07 0 0 0 .16.54l.31.51.12.26a7.92 7.92 0 0 1 .52.64l.26.26.26.23a2.52 2.52 0 0 0 1.66.47 5.34 5.34 0 0 0 1.39-.14 9.25 9.25 0 0 0 1.26-.44q.58-.26 1.13-.55t1.13-.55l.62-.26a7.74 7.74 0 0 1 .74-.23l.09.15zm-2-9.56a3.84 3.84 0 0 0-1.66.44 8.58 8.58 0 0 0-1.71 1.1A8.35 8.35 0 0 0 52.12 12a4 4 0 0 0-.76 1.64.77.77 0 0 1 0 .23.23.23 0 0 1 0 .15.16.16 0 0 0 .06.12.64.64 0 0 0 .32.32 1 1 0 0 0 .38.09 4.08 4.08 0 0 0 1.51-.42 12.7 12.7 0 0 0 1.9-1 8.49 8.49 0 0 0 1.63-1.38 2.23 2.23 0 0 0 .68-1.45 2.22 2.22 0 0 0-.19-.81.77.77 0 0 0-.73-.54zm7.26 5.26a6.65 6.65 0 0 1-.86-.06 7.36 7.36 0 0 1-1.06-.23 2.22 2.22 0 0 1 .58-.32l.49-.15a5.34 5.34 0 0 1 1-.09h1.28a18.38 18.38 0 0 0 1.94-.36 10.18 10.18 0 0 1 2-.19 4.51 4.51 0 0 1 .86.09 6.71 6.71 0 0 1 1.12.35q-1 .2-2.18.38t-2.21.29l-1.85.19q-.82.1-1.11.1zm24.18 6.94a.74.74 0 0 1-.26 0l-.32-.1-.44-.16a1.39 1.39 0 0 0-.47-.07 2.38 2.38 0 0 0-.78.13 4.55 4.55 0 0 0-.7.31 3.89 3.89 0 0 0-.6.33l-.57.36a9.79 9.79 0 0 1-1.53.74 6 6 0 0 1-2.16.33 9 9 0 0 1-1.71-.19 7.45 7.45 0 0 1-1.8-.6 5 5 0 0 1-1.42-1 2 2 0 0 1-.6-1.47 3.17 3.17 0 0 1 .2-1.1 5.17 5.17 0 0 1 .54-1.06 5.92 5.92 0 0 1 .77-.94 6.37 6.37 0 0 1 .9-.76 4.76 4.76 0 0 1 1.71-.58q.55-.14 1.08-.23l.93-.17 1.06-.31a3.85 3.85 0 0 0 .9-.41 2.13 2.13 0 0 0 .62-.58 1.41 1.41 0 0 0 .23-.83 2.21 2.21 0 0 0-.31-1.13 3.18 3.18 0 0 0-.78-.9 4 4 0 0 0-1-.6 3.1 3.1 0 0 0-1.12-.22 2.47 2.47 0 0 0-.94.23 4.14 4.14 0 0 0-.77.48 6.18 6.18 0 0 0-.64.58 5.1 5.1 0 0 1-.55.51h-.06v-.15a1.53 1.53 0 0 1 .41-1 4.67 4.67 0 0 1 1-.87 5.69 5.69 0 0 1 1.26-.62 3.68 3.68 0 0 1 1.19-.23 3.23 3.23 0 0 1 1.87.49 4 4 0 0 1 1.18 1.31 7.26 7.26 0 0 1 .76 1.85q.26 1 .49 2 .17.7.35 1.37a7.91 7.91 0 0 0 .44 1.25 2.5 2.5 0 0 0 .25.48 4.09 4.09 0 0 0 .36.48l.78 1 .64.84a1.13 1.13 0 0 1 .29.58.53.53 0 0 1-.19.42.72.72 0 0 1-.49.21zm-6.19-5.73a6.42 6.42 0 0 0-1.86.29 6.06 6.06 0 0 0-1.77.87A5.12 5.12 0 0 0 77.19 18a3.94 3.94 0 0 0-.6 1.95 3 3 0 0 0 1.47 1.44 5.3 5.3 0 0 0 1.85.31 6.36 6.36 0 0 0 2.76-.57A7.32 7.32 0 0 0 85 19.32a4.54 4.54 0 0 0 .12-.52 3.15 3.15 0 0 0 0-.44 2.41 2.41 0 0 0-.26-1.06 3.43 3.43 0 0 0-1.61-1.61 2.41 2.41 0 0 0-1.08-.26zm12.41-1.21a6.65 6.65 0 0 1-.86-.06 7.36 7.36 0 0 1-1.06-.23 2.21 2.21 0 0 1 .58-.32l.49-.15a5.34 5.34 0 0 1 1-.09h1.28A18.38 18.38 0 0 0 98 13a10.18 10.18 0 0 1 2-.19 4.51 4.51 0 0 1 .86.09 6.71 6.71 0 0 1 1.12.35q-1 .2-2.18.38t-2.21.29l-1.85.19q-.87.1-1.16.1zm22.99-1.89a11.91 11.91 0 0 1-1.34.44l-1.08.29a5.25 5.25 0 0 0-2.89 1.64 5.69 5.69 0 0 0-1 3.18l-.41 5.84a.86.86 0 0 0-.1.16c0 .09-.09.13-.13.13a.55.55 0 0 1-.45-.25 2.25 2.25 0 0 1-.32-.61 4.79 4.79 0 0 1-.2-.76 3.71 3.71 0 0 1-.07-.65 9.88 9.88 0 0 1 .17-1.85 9.83 9.83 0 0 0 .15-1.88 4.4 4.4 0 0 0-.07-.87 1.88 1.88 0 0 0-.25-.62 2.1 2.1 0 0 0-.47-.51q-.29-.23-.73-.52a3.49 3.49 0 0 0-.73 0l-.55.1-.48.1-.54.1a1.73 1.73 0 0 1-.55.09 1.46 1.46 0 0 1-.41-.06 2.25 2.25 0 0 1-.46-.2.4.4 0 0 1 0-.17q0-.15.2-.26a1.25 1.25 0 0 1 .33-.19 2.13 2.13 0 0 0 .33-.16 6.85 6.85 0 0 0 1.47-.55 10.51 10.51 0 0 0 1.6-1 9.31 9.31 0 0 0 1.37-1.22 3.22 3.22 0 0 0 .77-1.29q.35-1.31.57-2.59t.39-2.59q.15-1.31.28-2.57t.33-2.57a.51.51 0 0 1 .58-.49.48.48 0 0 1 .39.16 1 1 0 0 1 .19.38 2.42 2.42 0 0 1 .07.48v.44a13 13 0 0 1-.13 1.85q-.13.92-.33 1.85T112.61 7q-.22.93-.39 1.86A10.41 10.41 0 0 0 112 11a1 1 0 0 0 .32.86 1.39 1.39 0 0 0 .87.25 4.92 4.92 0 0 0 1.51-.23q.73-.23 1.48-.55t1.34-.49a4.3 4.3 0 0 1 1.31-.2q.32 0 .44.46a1.43 1.43 0 0 1-.6.67 5.68 5.68 0 0 1-1.1.55zm13.6 6.19l-1.57 1q-.81.55-1.66 1a12.6 12.6 0 0 1-1.79.81 5.32 5.32 0 0 1-1.82.32 3.45 3.45 0 0 1-1.51-.35 4.56 4.56 0 0 1-2.19-2.22 3.62 3.62 0 0 1-.34-1.53 7.9 7.9 0 0 1 .57-3.05 8.78 8.78 0 0 1 1.53-2.46 11.27 11.27 0 0 1 2.22-1.93 19.28 19.28 0 0 1 2.66-1.48l1.95-.61a1 1 0 0 1 .87.13 1.74 1.74 0 0 1 .78 1 2.76 2.76 0 0 1 .09.67 3.39 3.39 0 0 1-.57 1.89 6.42 6.42 0 0 1-1.39 1.68 9.24 9.24 0 0 1-2 1.15 9.87 9.87 0 0 1-2 .67q-.5.12-.93.17t-.82.15a2.68 2.68 0 0 0-1.27.55 1.92 1.92 0 0 0-.48 1.51 1.07 1.07 0 0 0 .16.54l.31.51.12.26a7.92 7.92 0 0 1 .52.64l.26.26.26.23a2.52 2.52 0 0 0 1.66.47 5.34 5.34 0 0 0 1.38-.17 9.23 9.23 0 0 0 1.26-.44q.58-.26 1.13-.55t1.13-.55l.62-.26q.31-.12.74-.23l.09.15zm-2-9.56a3.84 3.84 0 0 0-1.66.44 8.6 8.6 0 0 0-1.71 1.1 8.35 8.35 0 0 0-1.42 1.5 4 4 0 0 0-.76 1.64.76.76 0 0 1 0 .23.23.23 0 0 1 0 .15.17.17 0 0 0 .06.12.64.64 0 0 0 .32.32 1 1 0 0 0 .38.09 4.08 4.08 0 0 0 1.51-.42 12.7 12.7 0 0 0 1.9-1 8.49 8.49 0 0 0 1.63-1.38 2.22 2.22 0 0 0 .68-1.45 2.21 2.21 0 0 0-.19-.81.77.77 0 0 0-.74-.53zm16.88 3.37a11.91 11.91 0 0 1-1.34.44l-1.08.29a5.25 5.25 0 0 0-2.89 1.64 5.69 5.69 0 0 0-1 3.18l-.41 5.84a.86.86 0 0 0-.1.16c0 .09-.09.13-.13.13a.55.55 0 0 1-.45-.25 2.25 2.25 0 0 1-.32-.61 4.79 4.79 0 0 1-.2-.76 3.71 3.71 0 0 1-.07-.65 9.88 9.88 0 0 1 .17-1.85 9.84 9.84 0 0 0 .17-1.85 4.4 4.4 0 0 0-.07-.87 1.88 1.88 0 0 0-.25-.62 2.1 2.1 0 0 0-.47-.51q-.29-.23-.73-.52a3.49 3.49 0 0 0-.73 0l-.55.1-.48.1-.54.1a1.73 1.73 0 0 1-.55.09 1.46 1.46 0 0 1-.41-.06 2.25 2.25 0 0 1-.46-.2.4.4 0 0 1 0-.17q0-.15.2-.26a1.25 1.25 0 0 1 .33-.19 2.13 2.13 0 0 0 .33-.16 6.85 6.85 0 0 0 1.47-.55 10.51 10.51 0 0 0 1.6-1 9.31 9.31 0 0 0 1.37-1.22 3.22 3.22 0 0 0 .77-1.29q.35-1.31.57-2.59t.39-2.59q.15-1.31.28-2.57t.33-2.57a.51.51 0 0 1 .58-.49.48.48 0 0 1 .39.16 1 1 0 0 1 .19.38A2.42 2.42 0 0 1 142 1v.44a13 13 0 0 1-.13 1.85q-.13.92-.33 1.85T141.1 7q-.22.93-.39 1.86a10.41 10.41 0 0 0-.26 2.15 1 1 0 0 0 .32.86 1.39 1.39 0 0 0 .87.25 4.92 4.92 0 0 0 1.51-.23q.73-.23 1.48-.55t1.34-.49a4.3 4.3 0 0 1 1.31-.2q.32 0 .44.46a1.43 1.43 0 0 1-.6.67 5.68 5.68 0 0 1-1.07.54zm13.6 6.19l-1.57 1q-.81.55-1.66 1a12.6 12.6 0 0 1-1.79.81 5.32 5.32 0 0 1-1.82.32 3.45 3.45 0 0 1-1.51-.35 4.56 4.56 0 0 1-2.19-2.22 3.62 3.62 0 0 1-.34-1.53 7.9 7.9 0 0 1 .57-3.05 8.78 8.78 0 0 1 1.53-2.46 11.27 11.27 0 0 1 2.22-1.93 19.28 19.28 0 0 1 2.66-1.48l1.95-.61a1 1 0 0 1 .87.13 1.74 1.74 0 0 1 .78 1 2.76 2.76 0 0 1 .09.67 3.39 3.39 0 0 1-.57 1.89 6.42 6.42 0 0 1-1.44 1.55 9.24 9.24 0 0 1-1.91 1.15 9.87 9.87 0 0 1-2 .67q-.5.12-.93.17t-.82.15a2.68 2.68 0 0 0-1.27.55 1.92 1.92 0 0 0-.48 1.51 1.07 1.07 0 0 0 .16.54l.31.51.12.26a7.92 7.92 0 0 1 .52.64l.26.26.26.23a2.52 2.52 0 0 0 1.66.47 5.34 5.34 0 0 0 1.38-.17 9.23 9.23 0 0 0 1.26-.44q.58-.26 1.13-.55t1.13-.55l.62-.26q.31-.12.74-.23l.09.15zm-2-9.56a3.84 3.84 0 0 0-1.66.44 8.6 8.6 0 0 0-1.71 1.1 8.35 8.35 0 0 0-1.42 1.5 4 4 0 0 0-.76 1.64.76.76 0 0 1 0 .23.23.23 0 0 1 0 .15.17.17 0 0 0 .06.12.64.64 0 0 0 .32.32 1 1 0 0 0 .38.09 4.08 4.08 0 0 0 1.51-.42 12.7 12.7 0 0 0 1.9-1 8.49 8.49 0 0 0 1.73-1.44 2.22 2.22 0 0 0 .68-1.45 2.21 2.21 0 0 0-.19-.81.77.77 0 0 0-.84-.47zM28.87 2.43a15.73 15.73 0 0 1 .87 1.81q.38.93.78 1.88a1.46 1.46 0 0 1 .09.4.44.44 0 0 1-.07.26.3.3 0 0 1-.26.1 13.38 13.38 0 0 1-.64-1.31q-.29-.69-.59-1.34-.19-.4-.46-.92a8.86 8.86 0 0 0-.6-1 4.21 4.21 0 0 0-.74-.81 1.73 1.73 0 0 0-.88-.4l-1 1.26Q24.7 3.1 24 3.82A15.21 15.21 0 0 1 22.66 5a1.81 1.81 0 0 1-1 .48c-.21 0-.32-.12-.32-.36a.28.28 0 0 1 .12-.12l.18-.18.21-.16.15-.12.31-.2.29-.2a16.35 16.35 0 0 0 3.4-4l.45-.14a3.41 3.41 0 0 1 1.39.93 7.47 7.47 0 0 1 1.03 1.5zm100.86 0a15.73 15.73 0 0 1 .87 1.81q.38.93.78 1.88a1.46 1.46 0 0 1 .09.4.44.44 0 0 1-.07.26.3.3 0 0 1-.26.1 13.39 13.39 0 0 1-.64-1.31q-.29-.69-.59-1.34-.19-.4-.46-.92a8.86 8.86 0 0 0-.6-1 4.21 4.21 0 0 0-.74-.81 1.73 1.73 0 0 0-.88-.4l-1 1.26q-.62.74-1.31 1.46a15.21 15.21 0 0 1-1.4 1.18 1.81 1.81 0 0 1-1 .48c-.21 0-.32-.12-.32-.36a.28.28 0 0 1 .08-.18l.18-.18.21-.16.16-.11.31-.2.29-.2a16.35 16.35 0 0 0 3.4-4l.44-.14a3.41 3.41 0 0 1 1.39.93 7.47 7.47 0 0 1 1.07 1.55zM81 3.31l-.33-.56c-.08-.14-.15-.28-.22-.43l-.27-.59-.45-1 .08-.62q.39-.1.82.64t.92 1.69q.17.29.41.72t.47.89q.23.46.42.9a5.2 5.2 0 0 1 .26.76 6.49 6.49 0 0 1 .14.9l-.31.34q-.18-.42-.45-.95L82 5l-.55-1z"/></svg>