<svg id="Layer_1" data-name="Layer 1" xmlns="http://www.w3.org/2000/svg" width="32" height="32" viewBox="0 0 32 32">
  <defs>
    <style>
      .cls-1 {
        fill: #f50057;
      }
    </style>
  </defs>
  <title>arrow</title>
  <path class="cls-1" d="M30.43,13.83l-12-8.5a.75.75,0,0,0-1.17.74L18,10.14H4a.75.75,0,0,0-.74.65L1.26,26a.75.75,0,0,0,.65.84H2a.75.75,0,0,0,.74-.65L4.66,11.64H16.81l-6,5.56,2.56-4.38a.75.75,0,0,0-1-1l-6.1,3.56A.75.75,0,0,0,7,16.65l3.63-2.12L7,20.8a.74.74,0,0,0,0,.8l-2.54.53a.75.75,0,0,0,.15,1.48l.15,0,15.53-3.22,1.85,5.92a.75.75,0,0,0,.62.52h.09a.75.75,0,0,0,.64-.36l7.13-11.62A.75.75,0,0,0,30.43,13.83ZM18.53,12.13a.74.74,0,0,0,.6.17.75.75,0,0,0,.61-.87l0-.25a.72.72,0,0,0-.14-.78l-.5-2.79,3.66,2.59a.74.74,0,0,0-.22.13L16.1,16ZM8.64,21.26l5.78-5.36-2.34,3.77a.74.74,0,0,0,.06.86ZM20.1,17.59a.74.74,0,0,0,0,.29.74.74,0,0,0-.29.83l.07.23-6.17,1.28,7.78-6.94Zm3,6.68-1.83-5.85L24.7,16l-1.42,5a.75.75,0,0,0,.51.93l.21,0a.75.75,0,0,0,.72-.54l2-7a.75.75,0,0,0-1.15-.82L22.2,15.93l1.52-4.81a.74.74,0,0,0,0-.2L29,14.64Z"/>
</svg>
