<svg id="Layer_1" data-name="Layer 1" xmlns="http://www.w3.org/2000/svg" width="270" height="80" viewBox="0 0 270 80">
  <defs>
    <style>
      .cls-1 {
        fill: #272727;
      }
    </style>
  </defs>
  <title>front-benefits-icons</title>
  <path class="cls-1" d="M268.68,37.35c.1-5.88-2-12.39-3.92-18.15-2.11-5.79-5.21-10.25-8.95-12.91-7.69-5.42-18-6.66-31.42-3.8a71.76,71.76,0,0,0-22.61,8.84l-.84.52-.7-.7a1.3,1.3,0,0,0-.86-.23C188.45,12.06,184,22.42,182.34,28.5A40.34,40.34,0,0,0,189.12,63a39.8,39.8,0,0,0,26.77,14.92c13.15,1.76,25.85-5.47,34.18-11.85C258,60.08,268.48,50.58,268.68,37.35ZM252.37,61h0C243.29,69.09,231.28,75.4,219,75.4a35,35,0,0,1-22.85-8.57c-8-6.62-12.44-16.58-12.55-28-.1-5.45,1.2-13.27,5.13-18.83l1.92-2.71.35,3.3a1.6,1.6,0,0,0,1,1.27.9.9,0,0,0,1-.29C205.7,8.55,230-1,248.84,5.39c11.29,3.73,14,15.64,16.21,25.2C268.26,44.44,260.44,53.74,252.37,61ZM223.58,48.07V20.87a1.25,1.25,0,0,1,2.5,0v27.2a1.25,1.25,0,0,1-2.5,0Zm.1,10.2a1.41,1.41,0,0,1,.3-.91,1,1,0,0,1,.85-.34A1.15,1.15,0,0,1,226,58.27a1.41,1.41,0,0,1-.3.91,1,1,0,0,1-.85.34A1.15,1.15,0,0,1,223.68,58.27Z"/>
  <path class="cls-1" d="M178.68,37.35c.1-5.88-2-12.4-3.92-18.15-2.11-5.78-5.21-10.25-8.95-12.91-7.69-5.42-18-6.66-31.42-3.8a71.77,71.77,0,0,0-22.61,8.84l-.84.52-.7-.7a1.3,1.3,0,0,0-.86-.23C98.45,12.06,94,22.42,92.34,28.5A40.34,40.34,0,0,0,99.12,63a39.8,39.8,0,0,0,26.77,14.92c13.16,1.76,25.84-5.47,34.18-11.85C168,60.08,178.48,50.58,178.68,37.35ZM162.37,61h0C153.29,69.09,141.28,75.4,129,75.4a35,35,0,0,1-22.85-8.57c-8-6.62-12.44-16.58-12.55-28-.1-5.45,1.2-13.27,5.13-18.83l1.92-2.71.35,3.3a1.6,1.6,0,0,0,1,1.27.9.9,0,0,0,1-.29C115.7,8.55,140-1,158.83,5.39c11.29,3.73,14,15.64,16.22,25.2C178.26,44.44,170.44,53.74,162.37,61Zm-27.51-5.28c-2.11,3.49-3.56,4.07-6.17,2.49-4.32-2.69-7.91-7.25-10.85-11.38a.82.82,0,0,1,.21-1.29,1.68,1.68,0,0,1,1-.32h.12a1.35,1.35,0,0,1,1,.61c.47.6,3.51,3.9,5.06,5.56,4.81,5.18,4.82,5.18,5.45,5.22l.57,0,.4-.4.17-.21c2.23-3.5,4.34-7.09,6.45-11a226.68,226.68,0,0,0,11.06-24,1.5,1.5,0,0,1,2-.8.84.84,0,0,1,.58,1.19A194.12,194.12,0,0,1,134.86,55.73Z"/>
  <path class="cls-1" d="M88.68,37.35c.1-5.88-2-12.4-3.92-18.15C82.64,13.42,79.55,9,75.81,6.29,68.12.87,57.85-.37,44.39,2.5a71.77,71.77,0,0,0-22.61,8.84l-.84.52-.7-.7a1.3,1.3,0,0,0-.86-.23C8.45,12.06,4,22.42,2.34,28.5A40.34,40.34,0,0,0,9.12,63,39.8,39.8,0,0,0,35.89,77.93c13.16,1.76,25.85-5.47,34.18-11.85C78,60.08,88.48,50.58,88.68,37.35ZM72.37,61h0C63.29,69.09,51.28,75.4,39,75.4a35,35,0,0,1-22.85-8.57c-8-6.62-12.44-16.58-12.55-28C3.49,33.34,4.78,25.52,8.71,20l1.92-2.72L11,20.54a1.6,1.6,0,0,0,1,1.27.9.9,0,0,0,1-.29C25.7,8.55,50-1,68.84,5.39c11.29,3.73,14,15.64,16.22,25.2C88.26,44.44,80.44,53.74,72.37,61ZM46,47.29a1.28,1.28,0,0,1,0,1.12,1.7,1.7,0,0,1-.82.79,1,1,0,0,1-.71.09c-.07,0-.3-.09-.49-.5C41.85,43.84,45.09,40,48.2,37.66c1.41-1.11,6-5,5.56-9.26-.21-2.06-1.54-3.73-4-4.94A14.85,14.85,0,0,0,43.42,22a10.68,10.68,0,0,0-3.5.55,7.07,7.07,0,0,0-4.21,3.7.93.93,0,0,1-.57.55,1.12,1.12,0,0,1-.77-.11,1.36,1.36,0,0,1-.71-1.86h0C35,21.93,38,20,42,19.61c4.74-.52,9.5,1.18,11.84,4.23,2.11,2.73,3.43,6.88,1.61,10a20.38,20.38,0,0,1-3.7,3.69C48.32,40.5,44.45,43.85,46,47.29ZM44.93,57a1.15,1.15,0,0,1,1.15,1.25,1.41,1.41,0,0,1-.3.91,1,1,0,0,1-.85.34,1.15,1.15,0,0,1-1.15-1.25,1.41,1.41,0,0,1,.3-.91A1,1,0,0,1,44.93,57Z"/>
</svg>
