<svg id="Layer_2" data-name="Layer 2" xmlns="http://www.w3.org/2000/svg" width="900" height="300" viewBox="0 0 900 300">
  <defs>
    <style>
      .cls-1 {
        fill: #272727;
      }
    </style>
  </defs>
  <title>header-bg</title>
  <path class="cls-1" d="M68.73,123.84c-1.09-.59-2.07-1.29-3.09-2,.95-1.65,2.48.58,4.23.16.63,0,1.13-.82,1.79-.33.17.64-.34,1.76.16,2.12-.91.77-2.48.88-3.09,2,.15.39.65.43,1.14.49.92-.22,1-1.31,2.28-1.14,1.34,4-5.34,2.91-5.53,0C66.87,124.26,68.28,124.53,68.73,123.84Zm10.74,1.63c.83-.31,1-1.24,1.14-2.28C79.71,121.67,78.48,124.58,79.47,125.47ZM55.23,154.76c-.44,2.87.85,5.3,2.93,6.18.23-1.87-1.63-3-1.79-5,2.64-1.29,6.91-5.85,3.74-8.46h-.33C60,150.59,58.23,153.86,55.23,154.76Zm21.32,11.07c.22-.33,1.06,0,.81-.81-.82-.21-1.79-.27-2.6-.49-2.18-1.91-3-4.89-3.09-8.14h-.33C69.93,160.48,71.71,165.92,76.54,165.82ZM79,120.58c0,.7-.3.91.16,1.3,1.62.32,1-1.65,2.44-1.46,1.51,2.47-.64,5.51-2,7.16a.82.82,0,0,1,.49.49,1.52,1.52,0,0,0,1-.59,3.1,3.1,0,0,1,1.31-1.18l0,0c.62-.14.69-.83.81-1.46l.31-.14a2.59,2.59,0,0,1,0-1c.09-.45.2-.91.32-1.37.23-2.09-.66-3.89-2.91-3.72-.36-.51-.51-1.23-1.14-1.46-.87.71-1.23,2.78-2.28,2.77.62-1.19,1.8-5.38-.33-5.86-.47,1.56,0,3.05-.33,4.23-.27.84-1.18,1.14-1.14,2.12C76.17,121.89,78.17,121.33,79,120.58ZM65.42,100c0,.38-1.16.86-.28,1.14C65.29,101,66.29,100.28,65.42,100ZM53.47,115.65h.85a4.89,4.89,0,0,0,.06.77,9.17,9.17,0,0,1,.7-2.5,7.23,7.23,0,0,1-.47-1.12,8.08,8.08,0,0,1,5.12-9.67c-.51,1-1.53,2.1-2.34,3.42a2.56,2.56,0,0,1,3,.52c-.2.55-1.27.25-2,.33a3.91,3.91,0,0,0-1.63,4.88,8,8,0,0,1,2.44.16c.84-.91,1.25-3.07,2.93-2.6.44,1.1-1,1.37-1.46,2.12a17.59,17.59,0,0,0,.33,4.56c.55-.4.76-.19.33.33,1.17.42,3.39,2.14,5.37,1.14-1-.86-2.21-1.48-2.77-2.77-.06-1.67.93-4.72,2.93-3.74-.27,1.44-1.95,1.68-1.46,3.42.59,1,1.73,2.15,3.42,1.46.38-.9-.69-2.21.33-2.93,1,.23.62,1.76,1.46,2.12.65.28,1.84,0,2.44.33,0,1.22-1.33,1.16-2.6,1.14-1.83.56-2.91,1.87-4.56,2.6-2.94-.37-5.74-.87-6.67-3.25a2.22,2.22,0,0,1-1,0c-.09.67-.29,1.24-.43,1.87a6.14,6.14,0,0,1,1,.28c-.47,1-.56,3.29.33,3.91a20.07,20.07,0,0,0,4.07,0c-.2,2.77-5.13,2-5.86-.33,0-.15,0-.31,0-.46C54.35,121.32,53.31,119.08,53.47,115.65Zm4-1.9a1.21,1.21,0,0,0,.05.18l.25.41a2.76,2.76,0,0,0,1,.56c.09-.34.4-.46.33-1C58.57,113.88,58,113.37,57.5,113.75Zm-.08,4.34a12.44,12.44,0,0,0-1.2-2.25,1.28,1.28,0,0,0-.35.2A1.74,1.74,0,0,0,57.43,118.08Zm-2.34.08c.66,1,1.62,1.64,2.25,2.64a6.4,6.4,0,0,0-.16-1.36C56.56,118.93,55.71,118.66,55.08,118.16Zm73.49,32.18c-9-.64-16.95.11-26.74-.28-.28,0-.34.23-.57.28,0,.35.09.67.57.57,11.06.55,25.13.68,36.41.28C136.34,149.58,131.86,150.58,128.57,150.35ZM102.4,156c8.08,1.57,16.66-.08,25.32.57,2,.15,5.76,1.76,7.11-.57A242.39,242.39,0,0,0,102.4,156Zm34.42,18.77a202.63,202.63,0,0,0-36.13.28c3.4.82,8.13.15,12.23.85C121.33,174.13,129.61,176.63,136.82,174.81Zm-5.69,2c-2.49-.24-5.65-.5-7.4.28-6,.23-11.83-.44-15.93.57,10.36,1.19,19.41-.12,29.3,0C136.14,176,133.14,177,131.13,176.8Zm-10.53,3.13c2,0,4.29.66,5.4-.57-3.5-.93-8.81.21-13.37,0C114,181.1,117.78,179.91,120.6,179.93ZM70,180.22a10.12,10.12,0,0,0,.64,2.05,2.8,2.8,0,0,1,1.1-.52,15.37,15.37,0,0,1-1.16-1.54Zm27.31,12.23c4.18,1.23,7.91,2.9,8.82,7.4-7.12,7.11-19.92,0-21.33-8.25,3.87,3.12,9.46,10.29,15.65,10.24a3.52,3.52,0,0,0,3.41-1.71c-10-.26-7.81-12.67-12.8-17.92C95.3,182.31,96.33,188.08,97.28,192.45Zm.57,2.28a9.83,9.83,0,0,0,6.54,4.55C102.94,197.22,100.53,194.61,97.85,194.73Zm-53.76,1.71c2.55-3.8,3.54-9.16,5.69-13.37h-.85c-1.63,2-2.53,5.78-3.7,7.4C45.52,192.79,43.08,195.27,44.08,196.43Zm-7.4-8.53c-1.23,5.19-2,13.05.57,16.78C36.71,200.06,37.69,192.51,36.69,187.9Zm31.86,4c-1.55-.82-2.05-2.69-3.7-3.41a.78.78,0,0,0,0,1.14c2.81,4.49,5.45,9.15,6.83,15.08,1.38.8,1,3.4,3.13,3.41.64-1.61-.87-2.93-1.42-4.27C71.76,199.88,70.62,195.46,68.55,191.88Zm37.26,4.55c7,2.59,18.49.2,25.6.85-.24-1.79-2.51-1.62-4-1.71a64.75,64.75,0,0,0-14.22.57C111.45,195.87,107.09,195.3,105.81,196.43Zm-19.34,7.68c2.19-.49,4.91,0,6.26-1.71-5-.62-9.54,1.65-14.79,1.71-1.75-2.42-2.79-5.55-5.12-7.4a2,2,0,0,1-.57.85c2.33,7.54,8.54,11.18,9.67,19.91-1.22,3.15-4.14,4.59-8.82,4.27-1.56-.62-2.46-1.9-4.27-2.28-.3,2.41,2.2,3.76,4.27,4,4,.44,7.62-2.15,9.67-3.7.89-6.07-1.22-10.18-3.41-13.94C82.16,205.62,84.38,204.58,86.47,204.11Zm-6.83,10.52c-.49-1.74-2.66-2.06-4.27-3.13-2.91-1.95-5.27-3.31-10-3.41.3-1.13,1.41-1.44,1.42-2.84-3.55-6.91-15.32,3.43-19.63-3.7.74,8.84,13,0,17.64,4.55-.4.83-1.07,1.4-1.14,2.56a.78.78,0,0,1,.57.85c1.4,1.11,3,.52,5.12.57C73,211.21,75.56,214.91,79.64,214.64Zm55.19-8.53c-3.46,0-8.69-.85-11.09,0-13-.14-25.85.38-36.7.57a10.8,10.8,0,0,0-5.12,1.14c2.27,1.7,6.63,1.32,9.39,1.42,7.46.27,14.68.29,22.47,0,2.34-.09,4.69-1,6.83-.85,5.06.24,10.49,1,15.36-.28A2,2,0,0,1,134.83,206.1Zm-74.24,31c-.2-8.29-5.15-16.51-7.11-25-.36,0-.39-.36-.85-.28,2.35,10.18,7,20.06,6.84,29.13a3.1,3.1,0,0,1,1-1.31A10.34,10.34,0,0,0,60.58,237.11Zm5.12-23.33c-.28,4.73-1.27,10-1.14,14.79.09,3.56.23,7.74,2.48,10.16a3.08,3.08,0,0,1,.36.29c-1.14-8.62-1.2-15-1.13-25C66.21,213.85,66,213.74,65.7,213.78Zm3.41,27.59a6.56,6.56,0,0,1,.06,3.07c-.18,1.07-.23,2.15-.36,3.23s-.54,2.11-.67,3.19c0,.34,0,.79,0,1.24.08,0,.15,0,.14,0a4.92,4.92,0,0,1-.19.7,1.25,1.25,0,0,1-.67,1c-.35.16-1.6.61-2,.35a.39.39,0,0,1-.14-.21c-.06,0-.1,0-.1,0a1.9,1.9,0,0,1,.05-.33.16.16,0,0,1-.15-.13c0-.26-.06-.51-.08-.77s0-.25,0-.37a3.51,3.51,0,0,1-.6.51l-.14.06-.68.6-.07.1c.14,0,.22.16.06.29s-.54.41-.81.61c-.63.47-1.27.91-1.93,1.33l-.26.24a2.66,2.66,0,0,1-.19.56c-1.54,1-3,2.23-4.54,3.27-1.93.48-3.83.06-4.34-2.1-2.45,1.53-9.19,1.61-6.83-2.56l.2.06.23-.27c-.19.05-.49,0-.24-.17l1.37-.93.12-.1.35-.55c.09-.14.46-.18.52-.06h0a.22.22,0,0,1,.05-.08,16.48,16.48,0,0,1,1.58-2c.06-.24.11-.49.17-.73.25-.23.5-.46.74-.7a1.47,1.47,0,0,0-.12.32l.1-.17a5.49,5.49,0,0,1,1.75-2.5c.2-.12.65,0,.34.21-.94.57-1.4,1.9-1.92,2.82-.07.13-.15.26-.24.38a1.48,1.48,0,0,0,2.58.34,1.31,1.31,0,0,0,1.46-.32l.91-.87a3.72,3.72,0,0,1-.28,2.81,1.79,1.79,0,0,0,.29-.13,11.79,11.79,0,0,0,.58-1.78c.06-.24.6-.3.53,0l0,.08L56,251l.1-.19a1.73,1.73,0,0,0,.13.3,4.65,4.65,0,0,1,1.16.73,1.31,1.31,0,0,0,.72-.26l.17-.12h0a11.94,11.94,0,0,0,3-1.5c.13-.12.27-.24.41-.35.47-.92,1.64-1.54,2.38-2.13.31-.25.62-.52.93-.8a8.36,8.36,0,0,1,1.72-2.17.72.72,0,0,1,.31-.1,14,14,0,0,0,.81-1.21s0-.08,0-.12a3.06,3.06,0,0,0,.54-1.44A1.39,1.39,0,0,1,69.12,241.38ZM48,253.36l-.13.05-.08.12.07,0h0Zm1.79.12h0v0Zm0,2.41h0Zm3.88-2-.23-.13a9.22,9.22,0,0,1-.62,1c-.16.34-.36.66-.56,1a.36.36,0,0,1-.15.12l-.22.4.35.15A19.73,19.73,0,0,1,53.76,253.89Zm.13,1.89h0Zm3.4-2.26h0s0,0,0,0ZM65,251.73l-.22.26.06-.06a.37.37,0,0,1,.15-.07S65,251.77,65,251.73Zm0-.42h0Zm3.12-6.46v0Zm-16.18,2,.76-.79a3.83,3.83,0,0,0,.47-1.57c-.17.07-.33.14-.49.22a4,4,0,0,1-.36,1.41C52.21,246.39,52.09,246.63,52,246.87ZM70,103.41h1.71c0-1.3.82-1.83.57-3.41-1.2-.78-1.27-1.31-1.14-2.28-2-1.33-6.53-.75-6.26,1.42.79-.08,1.57-1.63,2.28-.85-.25.5-1.15.36-.85,1.42.71.23,2.45-.55,2.28.57-2.59-.13-3.42,1.51-4,3.41,1.79-.2,2.23-1.75,4.27-1.71C69.23,102.45,70.19,102.34,70,103.41Zm7.68-4.84c6.78-1.14,11.06,4.59,10,10.52,1.52,1.89,3.83,3.73,4.55,6.83,1.18,5-.9,10.7-2.28,13.94.19,1.7,1.38,2.42,1.71,4-5.2-.17-4.3-9.82-1.42-11.95.19,1.71-.26,2.78-.28,4.27,2.87-5.93.06-12.77-3.41-16.21-1-1.28-3-1.51-3.13-3.7,1.07-.39,1.94,1.58,3.41,1.71C86.62,101.93,82.11,100.28,77.65,98.58ZM89.6,126.45c.31.73-.86,1.36,0,1.71C89.64,127.73,90.65,126.21,89.6,126.45ZM51.48,171.52a2.67,2.67,0,0,1-.54.11c.07.39.15.79.26,1.19C51.3,172.4,51.39,172,51.48,171.52Zm-6.83,39.42c-2.56,1.1-5.5-.51-8.53.57-2-.76-2.4-3.1-4-4.27a4.54,4.54,0,0,0-4.27,1.42c1,.8,3.82-.22,4.84.57.13,1.64-2.44.6-2.28,2.28-2.63.12-4.27-.82-6.26-1.14C19,217,25.71,225.76,25.31,233.13a14.15,14.15,0,0,1-5.12,10.53c-1.12-2-6,.2-7.4-2,.21-1.22,1.21-1.63,2.28-2,1.55-1.91,3.28-3.45,3.7-5.69.72-3.86-1.89-7.13-2.56-10.81-.73-4,.53-8.92,1.42-11.66.53-1.62.18-3,.85-4.27.27-.52,1.12-.81,1.42-1.42,1.78-3.58,2-7.59,4.27-10.53-.76-1.53,1.46-4.14.85-6.26-2.25,2.34-2.46,6.24-6.54,6-2-.13-2.67-1.65-4.55-2.56-3-8.53.43-15.69,7.68-16.5,3.63-.4,9.3,2.62,11.38-1.71,1.41-2.93,1.57-7.1,2-10.52a11.89,11.89,0,0,1-6.83-.28c2.29-.86,5.49-.38,7.4-.57v-1.14c-3.55-.49-6,.19-9.67-.57,2.28-2.08,8.43,0,10-1.42-2.95-.6-9.09.45-11.95-1.42,3.76.29,9.89-.26,13.94-.57-3.86-1.14-9.75.87-12.52-1.71,3.54-.29,6.5.31,9.1-.57-4.66-.34-9.14.13-13.94-1.14,2.15-1,7-.35,11.38-.57-1.76-.81-5.15-.32-7.68-.85-.83-.17-2.87-.17-2.56-1.71.74-.08,1.22.1,1.14.85,7.3-1.6,18.79-1.53,27.31-.57h.32a15.14,15.14,0,0,0-.49,1.89c-3.66-.11-6.15.05-10.92.11,3.73,1.09,7.28,0,10.75.88-.16,1.1-.25,2.21-.32,3.3a15.77,15.77,0,0,1-3.6-.2c1.11.48,2.35.82,3.54,1.22v.11c0,.62-.07,1.27-.1,1.92-2.58-.06-5.72.3-7.13.16-1,2.84-1.12,6.47-2.28,9.1,2.19.66,5.75-.06,7.91.62-.06-.18-.11-.35-.16-.54.07-4.22,2.31-7.37,3.09-11.39,0-.86-.77-.86-1-1.46.14-.67,1-.61,1.3-1.14,0-1.16-.91-1.44-1-2.28-.17-2,1.85-2.16,2.93-3.42-2.65-3.28-.29-9.81,2.44-11.88a5.9,5.9,0,0,1,5.21-1.14c-.75,1.31-2.84,1.28-4.23,2a11.75,11.75,0,0,0-3.25,7.32c1.48,2.57,1.94,5.37-1.63,6-.47,1.48,1.34,2.52.81,4.07.15.71,1.52.22,1.63,1-.09.72-.76.86-1.63.81-1.45,2.51-2,5.89-3.42,8.46-.38,3,.92,5,2.37,6.71a24.81,24.81,0,0,1,1.54-2.41l-.49-.06c-.67-2.34,1.12-3.51,1.63-5.21,1.31-1.84,3.86-2.43,5.21-4.23.56.13.69-.18,1-.33,1.64-3,4.3-5,4.23-9.76-1.48-2-2.39-4.66-4.39-6.18-.57-1.09.25-1.88.49-2.77s0-1.74.16-2.6c.2-1.22.81-2.36,1-3.42s-.39-2.34,0-3.25c-.65-1.41-2.54-4.13-1-5.7.56.25.6,1.33.49,1.79.45.33.83-.5,1.14-.81-.43-.83-.44-2.12.49-2.44-1-.72-4.34.92-3.58-1.46,1.75.1,3.12-.33,5-.16.52,2.47-.81,4.36-1.79,5.86,2.24.59,4.4-.22,5.86-.49.25,2.94-4.46,1.61-6.18,2.12.24.65.48,1.14,1.3.81-.6.58,1,1.4,1.63,1.79.18-.09-.13-.78.16-1.14,1.1,0,2.47.2,2.93-.49a1.9,1.9,0,0,1,1.3,2.28c-1.17.9-2.33.11-3.42-.16a7.06,7.06,0,0,0,4.72,3.42c.9,0,1.29-.45,2.28-.33.31-.29,1-.19,1-.81,3.32-.8,4.34-4.59,5.53-7a3.53,3.53,0,0,1,.08,3.1c1.87.42,1.87,2.72,2.94,3.94q.44-.42.85-.85c2.34,2.79,8.41,2.11,9.67-1.42.09-.86-1.49-1.52-.57-2.28,0-1.45,1.61.29,2-.57.11-1.92-1.35-2.26-3.13-2.28,1.25-2.15,4.21-.48,4.55,1.42-.17,2.11-1.75,2.8-1.71,5.12a8,8,0,0,1-3.8,2.74l.87.81a4.47,4.47,0,0,1-1.65-.57,10.11,10.11,0,0,1-8.23-1.28c-.3,1,.68.82.57,1.67a2.8,2.8,0,0,0-2.62-1.49l-.22,0a7.17,7.17,0,0,0,.28-.78,1.85,1.85,0,0,1,1.42-.28c-.46-1.18-1.41-1.87-1.44-3.48-.73,1.44-2,2.72-2.64,3.77-2.31,2.14-6.48,3.44-9.28,1-.67,1.8-.87,3.84-1.63,5.86,1,2.17,3,3.29,4.23,5.21.48-1.44-.37-3-1-4.23,2.55.05,2.49,3.1,2.28,5.86a1.46,1.46,0,0,0,.65.65c.46.13.42-.23.81-.16.68-1.33,1.86-2.16,2.77-3.25,1.21-.13,1.93-1.07,3.25-1.14,1.5-.08,3,.72,4.07-.16,1.81-2.47,3.18-5.39,7.32-5.53a11.26,11.26,0,0,0,1.63-1.08l.2.18.84.72-.55.18c.24,1-.61,1.58-.33,2.12.94,0,1.35-.49,2-.81,0-.32-.19-.44-.19-.76.66.52,1.32,1,2,1.53a3.23,3.23,0,0,0-.05.42,2.21,2.21,0,0,0-2.39,1.16h0a3,3,0,0,0-.41.15c-1.7-.67-3.1-.15-5,.1a20.31,20.31,0,0,1-2.28,2.28h-.42a10.92,10.92,0,0,0-.19,2.84c.27.62,1.09-1.46,1.71-.57a34.3,34.3,0,0,0-1.69,7.17,6.94,6.94,0,0,1,1.31.29c.88.29,1.69.74,2.57,1a3.6,3.6,0,0,0,2.15,0c.88-.38,1.71-.87,2.61-1.22a.32.32,0,0,1,.34.07c0-.23,0-.45,0-.67a3.32,3.32,0,0,0,.87.11,2.93,2.93,0,0,0,1.88-.62c0,.35,0,.7,0,1a5.46,5.46,0,0,0,.54.05l.3-.17,0-.11-.29-.16c-.24-.13.19-.38.39-.3,0-.27.08-.55.1-.83,0-.09.21-.17.37-.17q0-.33.05-.66-.23-1.5-.45-3c0-.14.24-.24.4-.22h0c-.13-.47-.26-.94-.39-1.41,0-.18.48-.32.53-.14l.28,1a.18.18,0,0,1,.1.09c.73,1.63,1.24,4.22.13,5.81a1.42,1.42,0,0,1-.87.56c0,.08-.05.16-.08.24a.44.44,0,0,1-.47.16l-.69-.28a3.54,3.54,0,0,1-.65,2.05c5.69.23,11.48-1,17.35-.57,1.16-.4.67-1,1.42-1.42,2.14.32,4.77-1,5.69.85,1.62-1.3,7.12-1.91,8.53,0,2.19-.11,5.82-1.09,7.4,0-5.53,2.26-13.58,2-21.33,1.71-5.7,1.07-12.45.94-18.77.28-1.75,5.76-1.79,13.87-5.4,18.49A132.12,132.12,0,0,0,94,159l-1,.3c-1.58.42-3.57,1.14-5.22.69a7,7,0,0,1-2.62-1.54l-.14-.1c-.42,3.64-.47,7.44-.76,11.87,1.45,1.47,5.2,1.9,4.55,4.55-1.67-.74-2.78-3.42-4.84-2.84a3.62,3.62,0,0,0,.87,1.67q.44-.66.9-1.29a2.93,2.93,0,0,0,.53,1l-1,.71c1.25,1.24,2.84,2.21,2.4,4.14a15,15,0,0,0-3.35-3.45c-.95.7-1.87,1.43-2.73,2.21a4.66,4.66,0,0,0-1.56.56c-1.87-.17-3.33.8-5-.16a20.89,20.89,0,0,1-8.55-1.08,2.78,2.78,0,0,1,.58,1c.07.2-.45.35-.53.14a2.45,2.45,0,0,0-1.54-1.56c-.12,0-.12-.11-.07-.18q-.92-.41-1.77-.9c-1.77,1.48-4.45,2-6,3.71a10.86,10.86,0,0,1,1.81-.13c.78-.31,1.51-.74,2.26-1.12.23-.12.53.05.21.22-.6.31-1.19.63-1.8.91.4,0,.8,0,1.2.08a5.15,5.15,0,0,1,1.42-.15c.09,0,.21.06.14.16a.36.36,0,0,1-.24.13l2.47.32a2.8,2.8,0,0,0,1.31,1.47c-3.85-.1-8.07,1-11.47-.16a2.4,2.4,0,0,1,.13-.27l-.52.22.47-.51c-.45-1-1.81-1-2.44-1.79-.08-.3-.17-.6-.28-.88l-1.64.39c.1.92.93,2.06.57,2.56-.81.27-1.29-.63-2,.57-15.71-1-16.41,13.75-19.91,25,3.48-1.89,6.21,2.12,8.25,4.27,4.52-1,1.48-8,4.84-10,1.44-.15,4.29-1.37,5.4,0-1.22.81-3.48,0-5.12,1.14-2.67,2-.63,6.29-2.28,8.53,1.14-.86,4,.17,4-1.14,3.33,3.3,5.49,9.26,8,14.79,1.65,3.69,3.9,6.74,4.27,10.81.34,3.81.67,9-2.28,10.81,2.43-4.85.37-11.25-1.42-15.65C49.78,222.91,47.49,215.67,44.65,210.94Zm52.93-53.37h.05v0Zm-3.71.39.17-.06v0l-.09.05Zm-8.14.53a7.36,7.36,0,0,0,.6.48c1.82,1.25,3.66.95,5.68.45.66-.16,1.33-.34,2-.55,0-.25,0-.51,0-.76-.89.32-1.73.73-2.62,1a5.32,5.32,0,0,1-2.14.48C88.15,159.57,86.92,158.82,85.73,158.49Zm-.08-11.87a10.08,10.08,0,0,1,3.42-2.93C87,143.62,85.35,144.84,85.66,146.62ZM67.92,163.38a36,36,0,0,0-2.12,6.51,22.9,22.9,0,0,0-1.29,2A16.1,16.1,0,0,0,66.2,173a4.33,4.33,0,0,0,1.23-.5c.65.48,1.31,1,2,1.42.21-.14.17-.53.25-.81a13.47,13.47,0,0,0,3.47.7q-1.15.09-2.33.15a.67.67,0,0,0,.36.34c4.35,0,8.08-1.07,12-.3-.77-.52-1.58-1-2.4-1.47l-1,.28c.38-.15.75-.31,1.1-.49a3,3,0,0,0,1.09-.9,1.06,1.06,0,0,0,1.11.83c.51-.47-1-1.91.28-2.56-1-2-.81-4.92-.57-8.82,0-.58.06-1.16.09-1.75-.19,0-.36-.1-.21-.26l.22-.21q0-.34,0-.67l-.46,0h-.06v0s.06-.1.15-.14l.4-.12a73.4,73.4,0,0,1,.44-8.24c-1.74.79-4.23.08-6.63.27a7.61,7.61,0,0,1-2.12,1.3,5.06,5.06,0,0,1-1.3,2.6,14.49,14.49,0,0,1-2.6-.49C69.79,156.58,68,159.11,67.92,163.38Zm-5.86-24.25c0-.1.4-.63,0-.65C62,138.58,61.66,139.11,62.06,139.14Zm-.33,3.25c-.45-1.2.87-1.78.16-3.09C61.57,139.92,61,141.76,61.74,142.39ZM51.55,174.94a3,3,0,0,0,0,.33v0a2.83,2.83,0,0,0,.06.33l0,.11c0,.07,0,.14.07.21l0,.13c0,.08.07.16.12.25l.1.17.11.17.11.15a3.23,3.23,0,0,0,.22.25,3.12,3.12,0,0,0,4.37,0c.53-.52,1.07-1,1.6-1.54a18.13,18.13,0,0,0,4.41-3.11l-.34-.23a2.84,2.84,0,0,0,.89-1.17l.18.13c2-3.89,3.09-8.19,4.06-13.12.17-.61-.4-.46-.33-1,.29,0,.34.2.65.16a3.76,3.76,0,0,1,1.14-2c1.94-5.62-4.31-6.77-4.07-11.39.08-1.47,1.09-2.71.81-4.88-.55.81-.34,2.38-1.14,2.93.08.77-.12,2.56-1.46,2.44.45-1.95,1-4.78.49-7-.87,1.79-.42,4.9-1.46,6.51-.68.19-.63-.34-1.14-.33-.14.58,0,.4-.16,1,1.7.91,1.79,3.41,3.74,4.07.09.36-.31.23-.33.49A15.46,15.46,0,0,1,65.8,152c-.61,3.71-2.68,6.84-4.39,9.93-2.3,1.5-4.78,2.82-6.51,4.88a.59.59,0,0,0,0,.19,2.76,2.76,0,0,0-1.16,2.39c0,.11,0,.21,0,.31s-.08.34-.11.5l.1-.12a4.4,4.4,0,0,1-1.3,2.61,3.91,3.91,0,0,0-.76,1.46h0a3.25,3.25,0,0,0-.11.73Zm-11.73-2.11a42.83,42.83,0,0,0-1.71,7.11c3.71-1.06,7-3.1,10.53-.85.58-1.31,1.16-2.61,1.8-3.87a2.49,2.49,0,0,0-.58-.28c-.41-.86-.89-1.65-1.33-2.48C45.88,172.84,42.14,172.12,39.82,172.82ZM41,157.46c-.68.09-3.25-.24-2.56.28C39.72,157.61,40.21,158.3,41,157.46Zm4.27,0c-1.56.16-3.12-.67-4,.57C42.65,158.1,45.26,157.89,45.22,157.46Zm-5.12-1.71a9.59,9.59,0,0,0,5.4-.28C43.8,155.66,41.34,155.1,40.1,155.75Zm-.57-.28c-1.29-.08-2.87-.53-4.27,0C36.49,155.49,38.47,156.23,39.53,155.47ZM20.47,189.89c0-.43.1-1-.28-1.14C19.82,189.13,19.81,189.81,20.47,189.89Zm0-4h-.57V187h.57Zm3.7-1.42c-.16-2.84-5.27-2.29-4,.57A2.52,2.52,0,0,1,24.17,184.48Zm-6.26,55.19c-.23-.66-1.34.15-1.42.57h1.42Zm2.84.28c-.65-.08-1.07.07-1.14.57C20.12,240.46,21,240.81,20.76,240Zm4.55-58.88c4.32,3.28,4.69,10.63,3.41,16.5,2.51-3.18,3.23-8.15,5.12-11.95-1.16-1.17-.1-4.23-.57-5.4-1.49,0-1.72,1.31-3.41,1.14-.93-.49,1.11-1.12-.28-1.14C28.55,180.89,26.49,180.54,25.31,181.07ZM29,199h-.85c-.24,3.76-2.79,6.67-3.13,9.39C27.6,206.49,28.36,202.8,29,199Zm71.12-46.37c0-.33.06-.51.28-.57,12.23-.54,23.46.39,37,.28.18,1-.59,1.12-1.42,1.14q.42.44.85.85c-8.3,1.59-16.35.65-24.18.57-3.38,0-7-.48-11.09-.28,1.91-1.34,5.24-.66,7.4-1.14C106.09,152.5,102.55,153.68,100.12,152.63ZM134.26,154a1.25,1.25,0,0,0,1.14-.57C134.89,153.54,134,153.19,134.26,154Zm-14.51-.28c2.39.91,6.49.17,9.1.28,1.41.06,3.39.29,4.84-.57-3.31,0-6.53,0-9.39,0A34.76,34.76,0,0,1,119.75,153.76ZM92.16,139.54c3,.6,3.82,3.54,4,6.71a3,3,0,0,1,.91,1.46,12.07,12.07,0,0,1,.42,2.51,18.17,18.17,0,0,0-.53-9.82c-1.22-.68-2.12-1.67-3.7-2C93.21,139.07,91.95,138.57,92.16,139.54ZM126.29,170c-8.83.24-19.9,0-29.58,1.14,4.1,2.64,10.41,2.77,16.21,2.56,8.16-.29,16.43-.11,23-1.14-.62-.9-3.55.52-3.7-.85,1.16,0,4.56.06,5.69-.85C135.63,169.51,130.55,170.54,126.29,170ZM80.21,181.07l-.66-.91-1.67,0a12.2,12.2,0,0,1,.94,1.17,8.49,8.49,0,0,1,2.81.58,5.68,5.68,0,0,1,1.11.62c2.35.18,4.88.31,6-1.22C85.76,181.44,82.65,180.64,80.21,181.07ZM59.83,240.53c-.11,3.77-2.4,7-4.66,9.86,0,0,.42,0,.52-.1,2.27-2.86,4.56-6.11,4.67-9.9C60.36,240.33,59.84,240.39,59.83,240.53Zm182.45-171c.52-1.05.36-3.33-1.53-2.8C239.85,68.12,240.42,70.37,242.28,69.56Zm-76.6-1c5.86.14,11.34-.7,17-.51,2,.07,4,1,5.85,1,4.63.12,9.1.24,13.49.25a17.1,17.1,0,0,0,7.13-1c-11.67-1.22-30.28-.94-42.24-1-5.33,1.61-12.58.46-17.65,1.14l.12.81C154.29,68.49,161,70.41,165.69,68.54Zm72.27-1c-.41.25-.59.68-.25,1C238,68.46,237.91,67.9,238,67.52Zm12.21,1.27c-.91,1-1,2,.25,2.8.53-.15.82-.53,1.27-.76C251.75,69.59,251.59,68.57,250.17,68.8Zm13,6.62c.07.59.68.58,1,.25C264.09,75.32,263.53,75.45,263.15,75.41Zm-25.7,5.85c.4,1,.84-.2,1.53-.25,1.87-.16,4.72.93,6.36,1.27C244.52,79.85,239.09,79.19,237.45,81.26Zm1,2.29c2.15.05,3.63.78,5.6,1C243.35,83.41,239.74,81.67,238.47,83.55Zm6.62,22.9c-.78-4.65-2.52-11-2-17C240.75,94.61,243.16,101.83,245.08,106.46Zm-13,53.95A62.62,62.62,0,0,0,237.19,150c5.47-9.37,8.49-21.2,13-31.55-.33.09-.4.45-.76.51-1.56,4.13-3.95,7.42-5.09,12-.06.37-.76.09-.76.51-.78,6.36-3.78,8.93-5.09,15.27-.37.65-.48,1.55-1.53,1.53-1.15,5.6-5.66,9-6.87,15.27C231.29,163.92,231.6,161.48,232.1,160.41Zm30-28c-1.87.44-6.47.3-8.91,1C256,134.55,261,135.57,262.13,132.41Zm-60.06,1.78c-2.55-1.83-6.34-.87-9.67-1-7.39-.33-14.78-.88-21.12,0a65,65,0,0,0-12.33-1l.2,1.34c1.83-.15,3.67-.3,5.51-.31,4.79,0,9.65,1.06,14.25,1.27,2.82.13,5.85-.62,8.65-.51C192.58,134.14,197.09,134.65,202.08,134.19Zm29.77-1c2.6,1.59,6.15.48,9.92.25C239.8,131.69,234.29,132.34,231.85,133.18Zm-23.67,23.16c-.92,1.24-2.33,1.1-3.56,2.54,3.49.09,3.65-3.14,6.87-3.31.24-.92-1-.35-1.53-.51,1.17-2.7,1-5.44,1.27-9.16C209.65,148.4,210.18,153.62,208.18,156.33Zm-.51-8.4c-.46,0-.54.31-1,.25.41,1.43-.47,4.37-.25,5.6-1.75,1-1.88,3.72-4.58,3.82C206.73,158.78,207.45,152.94,207.67,147.94Zm38.17,11.45a16.35,16.35,0,0,0-4.58-3.05c1-1.14-1.32-1.86-.76-4.07a20.43,20.43,0,0,1,7.89-2.54v-1a29.86,29.86,0,0,0-10.69,3.82c.26.72,1.08-.07,1.53,0,1.22,2.23.1,3.75,2,5.34-1.36.85-3.27,1.14-4.07,2.54,2.59.89,3.5-2.17,5.6-2,1.18.07,1.22,1.32,2.29,1.78.33.14,1.2-.09,1.78,0,1,.16,2.12.92,2.8,1,4.86.67,11,0,16,.51-.56,2.14-3.43,1.65-5.34,2-6.72,1.36-17.53,3-24.18-.25-.77-.26-.45.57-.51,1a11.38,11.38,0,0,0-4.33.76c1.43,1.54,4.74,1.18,6.36.25,3.59,1.77,9.28,1.41,13.49,1.27,5.19-1.25,11.61-1.29,15.52-3.82-.4-.7-.92-1.29-1.27-2C259.45,160.56,252.42,159.92,245.85,159.39Zm-33.34-82.7c-.22-2.93-1.4-5.14-1.53-6.87.23-2,2.23-3,2.8-5.34,4.85-4.56,12-6.81,20.87-7.38.69.16.63,1.06,1.53,1,.34-1.41,2.62-3.12,1.53-4.33,1.58,0,.9-2.32,2.29-2.54.93.31-.62,1.53.25,1.78,2.13.09,3-1.07,4.58-1.53.87.25,2.68,1.14,2.29-.76-.78-.18-.75.44-1.53.25.77-.76.12-1.59-1.27-1.53-.14.9.9.63.76,1.53a2.18,2.18,0,0,0-2.54.51c-.2-.65,1-1.17.25-1.53-3.36.37-5.41,2.05-7.63,3.56,1.56-2.85,4.57-4.25,8.65-4.58-2.7-2.06-7,.11-9.16.51,1.88-2.39,7.05-2,10.18-1.78-1.75-1.26-5-1.18-7.38-.51,1.64-2,6.35-1.36,8.14,0,1.55-1,6-2.82,6.87,0-.39.06-1.19,1-1.53.25.24-.27.94-.08.76-.76a6.64,6.64,0,0,0-5.34,1.27c0,.75.58.95,1,1.27.69-.33.9-1.13,2-1,.34,1.54-2.35,1.08-1.53,2.29,2.95-.83,7.15-6.23,9.92-1.78-1.8-1.81-5.83-.86-6.62,1.27,1.75,4,9.4-3.35,10.94.51a5.74,5.74,0,0,0-4.07.76c2.57.06,5.4-.14,6.11,1.78-3.21-.69-7-1.55-9.92-.76,2.78,3,10.07,1.46,11.2,6.11a9.66,9.66,0,0,0-6.36-2.8c1.31,1,1.91,2.67,3.82,3.05.45,1.42,1.73,2,2.29,3.31-.44.63-1.87-2-2.8-2.54a5.22,5.22,0,0,0-1.53-.76c-1.24-2.07-2.79-3.83-5.85-4.07a4.75,4.75,0,0,0-4.58-2.29c-.63-.3.62-1.06-.51-1q-.39.37-.76.76c1,1.07,2.9,1.17,3.56,2.54h1.53a5.57,5.57,0,0,0,3.31,1.27,4.61,4.61,0,0,0,2,1.78c.14,2.54,5.05,2.85,3.82,5.09-3.28-3-5.88-6.67-11.2-7.63-.55-.94-2.69-2.56-3.56-1.53,2.29,1.35,4.35,2.95,7.38,3.56.78,3.24,6.71,3.94,5.85,7.13-1.6-2.47-4.47-3.68-6.11-6.11-3.36-.21-5-3.53-7.89-3.31,3.53,4.18,10.5,5.39,11.71,11.45-1,.18-1.45-.24-2.29-.25-1.89-4-6.69-5.18-11.2-6.62,1.33,1.47,3.49,2.11,5.09,3.31,2.6-.38,2.25,1.85,3.05,3.05,1,1.51,2.44,2.06,2.54,3.31.22,2.74-3,5.23-3.56,7.89v2.29c1.31,2.08,4.68,3.46,5.09,5.6-1.86-1.62-3.45-3.5-5.6-4.83-4.76.81-9.73-2.44-12.47-5.34-2.9,1.76-3.79,5.54-5.85,8.14.63-4.12,3.73-7.12,5.34-9.42-2.49.54-4-2.34-3.05-3.56.09,1.88,2.64,3.54,4.07,1.78a3.2,3.2,0,0,1-3.05-2.8c2.17,3.47,7.05,1.27,7.13-2-1.15-.19-.69-1.6-1-2-2-.35-4.56,0-5.6-1.78,3.81-.42,6.78,1.58,9.16-.25.32,1.87-2.29,2.71-1.78,5.6-1.93,1-2.45,3.16-3.82,4.07,1.07.54-.2,1.6-.25,2.54,2.64,1.88,7.18,4.49,10.43,4.07-2.33-3.22-6.55-9.9-2.54-13.49-.21-.48-.94-1.32,0-1.53,1,.8,2.42,2.49,4.07,1.78-1.71-3-6.23-3.27-8.65-5.6.07-.78.55-1.14.76-1.78,2.86.54,5.73,2.41,8.4,2.29-2.54-1.62-4.42-3.89-7.12-5.34-1.71,2-3.46,4-6.11,5.09,2-2.07,4.68-3.46,5.6-6.62-.82-.12-1.5,1.19-2,.51.68-.43,2.08-1.47,1.78-2a13.06,13.06,0,0,0-6.36,4.07c1.11.43-.54,1.37-.76,2,.44.91-.78,4-2.29,4.58-1.28-1,.07-3.43-2.29-4.58C231,59.69,230.65,66,232.87,68.8c-3.32-1.78-3.31-6.59-1.27-10.18-3.3-.58-4.25.8-6.36,1.53-7.06,2.42-11.75,3.63-13.49,9.92a34.59,34.59,0,0,0,2,7.13c-1.17,1.85-3.52,3.7-2.54,6.87C209.31,81.49,211.2,79,212.51,76.68Zm39.7-1.27h-1.53c.3.38.32,1,.76,1.27C252.22,76.78,252,75.85,252.21,75.41Zm1-1.78c-.69-.59-2.45-.09-3.56-.25C250.11,75,252.4,74.66,253.23,73.63ZM255,68c.39.74-.37,1.16.76,1.27C255.82,68.58,255.8,67.92,255,68Zm-1.53-1c-.75.5-2.6.34-2.8-.51-1.4.3-1.36,2-2.29,2.8.31,2.06,1.25,3.5,4.07,3.05.25-.85,1-1.18,1.27-2,.79.89-.4,2-.76,2.54,1.61,1,1.6-1.79,2.8-2-.19-.75-.77-1.09-1.27-1.53-.37.06-.09.76-.51.76s-.06-1.21.51-1A6.57,6.57,0,0,0,253.48,67Zm4.58-2.29A12.85,12.85,0,0,0,255,60.91C253.78,62.43,257.15,63.65,258.06,64.72ZM250.94,52h.76c.07-.41-.24-.44-.25-.76h-.51Zm-10.69,2c.46,0,.54-.31,1-.25C241.35,53.33,239.84,53.33,240.25,54Zm-4.07,6.11c.88-.37.32-1.35.25-1.78C235.5,58.55,236.45,59.17,236.18,60.14Zm-34.35,97c-1.32.34-3.65,1.13-3.82-.76.4-1.28,1.68-1.65,2.29-2.8.79-1.49.5-4.18,1.27-6.36.2-.55.88-1,1-1.53.7-2.74-.19-6.12.51-8.65s5.1-5.8.76-7.63c3.22-2.09,6.33.64,8.91,1.53.66-5.18-4.79-6-8.14-5.09.21.46.23,2.48-.51,2.8-1.3-2.63-.3-4.69,0-7.89-3.52,1-6.18-.64-8.14-2-12-3.31-26.68-5.43-39.77-4.73l-.17-1.11c13.52-.79,26.84,1.47,38.92,4.31,3.73-4.75,7.41-9.56,10.94-14.51.07-2,.36-2.21.51-4.07,2.67-2.54,2.86-6.75,3.31-10.43.13-1-.67-3.66,1.53-3.56-.17.76-1.15.72-1.27,1.53.92,4.1.18,9.93-2.54,13.49-.21.72.36.66.25,1.27-2.79,7-.82,16.06-3.31,23.67,4.46-1.4,7.08,1.68,8.91,2.8-.61-3.18.08-6.18-.51-9.16,1.32-6.65.11-13.16,1-18.83,1.4,4.51-.47,9.3.51,14,2.25-2.25,5.28-3.72,8.4-5.09,4.31-6.29,6.11-13.14,7.38-22.14.63-4.45-.08-9.06.51-13.49.12-.9.11-2.26,1.27-2.8a15.11,15.11,0,0,1-.76,2.8c1,6.68-.74,13.68-1,20.1-1.07,5.55-3.5,9.7-6.11,14.25,3.85-1.49,6.74-3.95,9.67-6.36.17-4.54,2.29-9.94.76-13.23a24.4,24.4,0,0,1-.76-19.59,11.48,11.48,0,0,1-.76-3.56,5.93,5.93,0,0,0,1.78-4.07,5,5,0,0,1,.76,3.05c-.26.75-1.46.58-1.53,1.53,0,1.52.3,1.52.51,3.05-1.64,6.37-3.5,19.07,3.56,21.12a13,13,0,0,0,3.56-.25,35.3,35.3,0,0,0,6.36-7.13c.67.3.66-1.22.76,0a67.26,67.26,0,0,0-5.09,7.13,7.86,7.86,0,0,1-7.89.76,42.32,42.32,0,0,0,1.78,9.92c1,.14,1.24-.45,2.29-.25,2.06,2.79,4.35,5.58,4.58,9.42.31,5.07-4.49,7.87-5.6,11.2,9.6-.83,9.85-11,17-14.25-2.13,4.4-6.35,6.71-8.91,10.69-.11.71,1.39-.2,1.27.51-3.8,1.89-2.14,10.58-4.58,13,.57-4.06,1.94-7.37,1.53-10.94a25,25,0,0,1-8.14,2.54c-5.3,6.15-7.1,15.8-12,22.39,5-10.78,9.2-24.06,14.25-34.61-.13,5.69-4.28,9.91-4.33,14,2.58-5.84,8.35-8.59,8.65-16-1.06-2.59-2-5.32-4.33-6.62-3.24.16-5,2.16-6.87,3.31-1,.61-2.55.81-3.56,1.53-.78.55-1.23,1.53-2,2-2.46,1.57-4.57,1.95-5.85,4.07-2.67-1-5.45,1.94-6.87,3.82a33.45,33.45,0,0,0,.25,7.63A71.8,71.8,0,0,0,225,121a68.52,68.52,0,0,0,4.07-8.4c.91-.88,2.84-2.08,2.54-3.31-4.7,3.62-8,10-14.25,11.2,7.26-2.83,9.71-10.47,16.54-13.74-1.49,5.55-5.79,8.29-7.89,13.23,0,.3.4.28.76.25-1.69,1.46-1.4,3.76-2,6.11-.8,3-2.44,5.64-3.56,8.4-2,5-4,10.07-6.87,14.25,1.41-5.83,5.32-9.63,5.6-15.27-1.14.19-4.39.79-5.09-.25,1.48-1,3.5,0,5.6-.51,1.8-3,4-6.88,4.07-10.69-3.35.55-6.84,1-10.43,1.27.87,3.07-.69,6.31-.51,9.16-.45.06-1.27-.26-1,.51.47,5.69,2.24,13.72,0,18.32,1-6.71-.5-14.28-.76-19.85-2-.41-3.64-2.42-5.85-1.78a6.81,6.81,0,0,1,.25,3.31c-1.08,1-1.51,2.73-2.29,4.07.47,4.06-2,12.25-3.05,17.81-.68.59-2.23.32-2,1.78,5.78,0,3.54-6.59,5.85-9.92C204.15,151.06,204.34,154.17,201.82,157.1Zm2.54-37.66c.38-4.05.9-9.38,1-14-3.44,3.1-5.77,8.65-9.16,10.94-.49,0,.44,1-.51,1C198.27,118.67,200.58,120.73,204.37,119.44Zm65.91,15c2.07,6.92,3,15,4.58,22.39.48.48.64,0,1.27,0,.33,1.79,1.39,2.85,1.78,4.58-.89.84-2.91.93-4.33.51a150.1,150.1,0,0,0-4.33-28c-2.74-.14-4.67-1.1-6.87-1.78.24-.27.94-.08.76-.76-.34.08-.49.36-1,.25.64-3.46-.78-7.18,1-9.92.38-4.08-1.52-7.41-5.34-5.09-.27,2.34-2.43,3.71-3.31,6.11-2,5.51-1.33,13.23-4.07,17.81a23.58,23.58,0,0,1-1.78,6.62c.25-6,3.16-13.82,3.82-20.1-1.22,1.32-1.65,3.44-2.29,5.34-.3,0-.72,0-.76.25a101.69,101.69,0,0,0-4.33,9.67c-2.92,2.08-4.47,5.54-6.87,8.14,2.67-6.06,8.69-10.79,9.42-16.54,3.74-4.57,5.15-11.47,8.4-16.54a.26.26,0,0,0,.51,0c1.94-3.4,2.82-7.86,3.82-12.21-.84-.94-1.16-2.41-2.29-3.05-2.71.94-5.74,1.55-7.38,3.56-1.78-.69-4.16,2.69-5.6,1.53a35,35,0,0,0,5.6-4.07c0-5.19,3-11.58,3.05-19.09,1,.65,1.88,2.15,3.31,3.05,1,2.41-1.35-1.45-2.8-1.27-.39,4.87-1.37,8.25.25,12.47,3.1-.2,7.53-1.22,10.94-1.27-1.52-.69-2.42-2-4.07-2.54,1.11-2.37-3.83-3.78-3.82-5.85,2.17.21,2.46,2.29,4.07,3.05A27.94,27.94,0,0,0,266.46,83c-1.37-.15-1.23-1.83-2.8-1.78-1.37,2.62-3.84,4.13-5.34,6.62.08-3.32,4.38-4.61,5.09-8.14-1.72-.82-2.62-2.47-3.82-3.82,1.64-4.75,5.51-8.12,5.09-13,1.51,3.48-1.71,6.59-2.29,9.67,2.51-.48,3.7,2.35,3.56,5.34,2.66,2.93,6,5.23,8.4,8.4-3.11-1.38-4.86-4.13-7.13-6.36a3,3,0,0,1-2.29-2c.91-2.48-.89-4.34-2.8-4.83-.48.88-1.07,1.64-1.53,2.54,1.13,1,1.59,2.65,3.31,3.05.44,1.39,1.14,3.43,2.8,2.8,2.65,4.56,8.76,5.66,15.27,6.36,1.84,2.14,2.44,5.54,4.33,7.63.81.15.79-.48,1.27,0,0,4.36-2.86,8.38-5.6,11.45a256.33,256.33,0,0,1-4.33,26.72C275.35,133.69,271.88,132.95,270.27,134.45Zm16.54-37.66V96C286.07,95.65,286.07,97.16,286.82,96.79ZM267.48,97c.24.15.78-.16,1,0,3.07,2.08,6.21,4.39,9.67,6.62,1.23.79,2.45,1.55,3.05,1.53,3.33-.15,3.19-5.81,5.6-7.63-2.13-2-3.06-5.66-5.34-8.14-2-.37-3.91-.84-5.85-1.27-1.27.11.56.54.25,1.27-3.07-1.68-6.53-3-8.4-5.85-1.45,3.64-3.71,6.47-5.09,10.18C264,94.4,265.59,95.84,267.48,97Zm-4.33,29.52c-.12.54.36.48.76.51,0-.21-.26-.25-.25-.51Zm.51,1c-1,.29-.53,1.24-.51,2C263.94,129.56,263.58,128.35,263.66,127.58Zm13.23,4.07c1.55-2.75,1.42-6.51,1.27-9.92a86.22,86.22,0,0,0,2.8-15c-3.52-3.95-9.22-5.71-14-8.4-4.85-.35-8.55.44-12.47,1-.42.34-.09,1.44-.51,1.78-1.8-1.69-.47-2.77-.51-4.83-1.77.77-1.36,4.38-2.29,6.87,2.68-.54,3.84-2.61,7.38-2.29,1.94,2.53,3.52,4,3.05,8.4-.19.63-.77-.84-1.27,0,0,2.32-1.48,4.42-1.53,5.85,3.48-.87,5.78,2.09,5.09,5.34,1.25-.19.93-2,1-3.31,1.63-6.13,1.48-13.91,2.8-17.56a86.08,86.08,0,0,1-.51,12.72c-.29,2.47-.87,4.52-1.27,7.89a102,102,0,0,1-2,11.71C267.93,132.9,272.67,131.62,276.89,131.65Zm-52.42-68.2c0-.3-.46-.21-.76-.25-1.69,3.62-3.29,7.14-3.31,11.45-1.92-2-1.1-6.7-1.78-9.92-2.66,4.32.92,12.61,1,16.54-.28,1.56-.11,2.69-.25,4.84,1.65-1.82.65-4.19.76-6.36C220.45,74,222.79,68.46,224.47,63.45ZM216.33,74.9c-.49,9.55,0,19.71-.76,27.23,1.7-2.28,1.1-7.36,1.53-10.18,4.81-4.44,9.19-10.08,8.91-18.83-.59-.08-.28.74-.76.76-.31,6.84-3.83,12.6-7.63,16.8C217.32,86,217.19,79.32,216.33,74.9Zm21.38,91.86c-4.38.66-12.07-1.62-16.29-3.82-1.57-.82-2.45-2.6-3.56-3.31.09-2.68-.31-4.3.25-6.36a16.12,16.12,0,0,0,5.6-.51c0-3.77,1.19-5.4,1.78-8.91a20.89,20.89,0,0,0-2.54,7.13c-2.64,2.27-6.56.38-9.16,2.29.45.86,1.5,0,2.8.25.18,1.47-.42,4,.25,5.85-1.19.59-2.83.74-3.82,1.53,1.05,1.2,3.47-.13,4.58-.51,2.59,4.27,8.71,6.61,15.52,7.63,2.7.41,5.24-1.74,6.62,1-9.85,4.24-23.11,1.46-32.32-1.78-.61.59.4.68.51,1.27h-2.29c-.5-5.76,3.16-7.36,4.58-11.2a28.77,28.77,0,0,0-5.34,5.85c0,3.22-.23,4.11-.25,5.34,1.15,2.17,3.45,1.08,5.85,1.27s5,1.91,7.89,2.29c8.85,1.19,20,.64,24.94-4.07C240.75,169.29,239.65,167.47,237.7,166.77Zm-105-126.67a.5.5,0,0,0-.4.58l33.87,191.12a.5.5,0,0,0,.49.41h.09a.5.5,0,0,0,.4-.58L133.29,40.5A.5.5,0,0,0,132.71,40.09Z"/>
  <path class="cls-1" d="M353.28,53.66a35.87,35.87,0,0,1-3.64.85q-2,.37-3.89.62t-3,.43l-1.88,1.83q-.6,2.52-1.28,5.83T338.34,70q-.6,3.45-1,6.7a48.21,48.21,0,0,0-.39,5.63,17.76,17.76,0,0,1-.09,1.81,4.77,4.77,0,0,1-.59,1.81l-.37,0a.71.71,0,0,1-.53-.21,1.19,1.19,0,0,1-.3-.53,4.6,4.6,0,0,1-.14-.66,4.39,4.39,0,0,1,0-.57,30.75,30.75,0,0,1,.64-6.22q.64-3.11,1.4-6.25t1.4-6.31a32.76,32.76,0,0,0,.64-6.47,2.75,2.75,0,0,0-1.42-2.29q-3,.27-5.81.8a37.19,37.19,0,0,1-5.77.62l-.82-.78a1.24,1.24,0,0,1,.41-.66,2.9,2.9,0,0,1,.6-.34,29.25,29.25,0,0,1,5.42-1.4q2.77-.43,5.65-.66l5.79-.48a44.26,44.26,0,0,0,5.74-.89l2.22-.55a9.49,9.49,0,0,1,2.26-.27,2.06,2.06,0,0,1,1.19.23.74.74,0,0,1,.27.6Q354.72,53.22,353.28,53.66Zm18.14,24.59.14.23,0,.14q-1.19.78-2.47,1.65t-2.61,1.65a19.87,19.87,0,0,1-2.81,1.28,8.38,8.38,0,0,1-2.86.5,5.43,5.43,0,0,1-2.38-.55,7.17,7.17,0,0,1-3.44-3.5,5.69,5.69,0,0,1-.54-2.4,12.42,12.42,0,0,1,.89-4.8,13.84,13.84,0,0,1,2.4-3.87,17.76,17.76,0,0,1,3.5-3,30.31,30.31,0,0,1,4.19-2.33l3.07-1a1.62,1.62,0,0,1,1.37.21,2.74,2.74,0,0,1,1.23,1.62,4.32,4.32,0,0,1,.14,1.05,5.34,5.34,0,0,1-.9,3A10.11,10.11,0,0,1,368,70.54a14.52,14.52,0,0,1-3,1.81,15.53,15.53,0,0,1-3.14,1.05q-.78.18-1.47.27t-1.28.23a4.22,4.22,0,0,0-2,.87,3,3,0,0,0-.76,2.38,1.68,1.68,0,0,0,.25.85q.25.44.48.8l.18.41a12.45,12.45,0,0,1,.82,1l.41.41a4.8,4.8,0,0,0,.41.37,4,4,0,0,0,2.61.73,8.4,8.4,0,0,0,2.17-.27,14.55,14.55,0,0,0,2-.69q.91-.41,1.78-.87t1.78-.87q.5-.23,1-.41A12.18,12.18,0,0,1,371.42,78.25Zm-11.8-7.32a1.21,1.21,0,0,1,0,.37.37.37,0,0,1,0,.23.26.26,0,0,0,.09.18,1,1,0,0,0,.5.5,1.52,1.52,0,0,0,.59.14,6.42,6.42,0,0,0,2.38-.66,20,20,0,0,0,3-1.65,13.36,13.36,0,0,0,2.56-2.17,3,3,0,0,0,.78-3.57,1.21,1.21,0,0,0-1.26-.73,6,6,0,0,0-2.61.69A13.51,13.51,0,0,0,363,66a13.15,13.15,0,0,0-2.24,2.36A6.25,6.25,0,0,0,359.62,70.93Zm37.24-4.67a6.77,6.77,0,0,0-2.06.32q-1,.32-2.1.78t-2.33.87a7.74,7.74,0,0,1-2.38.37,2.19,2.19,0,0,1-1.37-.39,1.6,1.6,0,0,1-.5-1.35,16.44,16.44,0,0,1,.41-3.39q.27-1.46.62-2.93t.71-2.93q.32-1.46.53-2.91a20.53,20.53,0,0,0,.21-2.9c0-.18,0-.41,0-.69a3.77,3.77,0,0,0-.11-.76,1.56,1.56,0,0,0-.3-.59.75.75,0,0,0-.62-.25.81.81,0,0,0-.91.78q-.32,2.06-.53,4t-.44,4q-.27,2.06-.62,4.07t-.89,4.07a5.07,5.07,0,0,1-1.21,2,14.65,14.65,0,0,1-2.15,1.92A16.54,16.54,0,0,1,378.26,72a10.76,10.76,0,0,1-2.31.87,3.33,3.33,0,0,1-.53.25,2,2,0,0,0-.53.3c-.21.12-.32.26-.32.41a.64.64,0,0,0,0,.27,3.56,3.56,0,0,0,.73.32,2.31,2.31,0,0,0,.64.09,2.73,2.73,0,0,0,.87-.14l.85-.16.76-.16q.41-.09.87-.16a5.5,5.5,0,0,1,1.14,0q.69.46,1.14.82a3.27,3.27,0,0,1,.73.8,3,3,0,0,1,.39,1,6.93,6.93,0,0,1,.11,1.37,15.54,15.54,0,0,1-.27,2.9,15.45,15.45,0,0,0-.27,2.91,5.84,5.84,0,0,0,.11,1,7.55,7.55,0,0,0,.32,1.19,3.53,3.53,0,0,0,.5,1,.88.88,0,0,0,.71.39c.06,0,.13-.07.21-.21a1.39,1.39,0,0,1,.16-.25l.64-9.2a9,9,0,0,1,1.62-5A8.26,8.26,0,0,1,391.14,70l1.69-.46a18.77,18.77,0,0,0,2.11-.69,9,9,0,0,0,1.67-.82,2.25,2.25,0,0,0,.94-1.05C397.42,66.51,397.2,66.27,396.86,66.27Zm19.4,12,.14.23,0,.14q-1.19.78-2.47,1.65t-2.61,1.65a19.88,19.88,0,0,1-2.81,1.28,8.38,8.38,0,0,1-2.86.5,5.43,5.43,0,0,1-2.38-.55,7.17,7.17,0,0,1-3.44-3.5,5.69,5.69,0,0,1-.54-2.4,12.42,12.42,0,0,1,.89-4.8,13.84,13.84,0,0,1,2.4-3.87,17.76,17.76,0,0,1,3.5-3,30.32,30.32,0,0,1,4.19-2.33l3.07-1a1.62,1.62,0,0,1,1.37.21,2.74,2.74,0,0,1,1.23,1.62,4.33,4.33,0,0,1,.14,1.05,5.34,5.34,0,0,1-.9,3,10.11,10.11,0,0,1-2.27,2.45,14.52,14.52,0,0,1-3,1.81,15.53,15.53,0,0,1-3.14,1.05q-.78.18-1.47.27t-1.28.23a4.22,4.22,0,0,0-2,.87,3,3,0,0,0-.76,2.38,1.68,1.68,0,0,0,.25.85q.25.44.48.8l.18.41a12.46,12.46,0,0,1,.82,1l.41.41a4.81,4.81,0,0,0,.41.37,4,4,0,0,0,2.61.73,8.41,8.41,0,0,0,2.17-.27,14.56,14.56,0,0,0,2-.69q.91-.41,1.78-.87t1.78-.87q.5-.23,1-.41A12.18,12.18,0,0,1,416.26,78.25Zm-11.8-7.32a1.21,1.21,0,0,1,0,.37.37.37,0,0,1,0,.23.26.26,0,0,0,.09.18,1,1,0,0,0,.5.5,1.52,1.52,0,0,0,.59.14,6.42,6.42,0,0,0,2.38-.66,20,20,0,0,0,3-1.65,13.36,13.36,0,0,0,2.56-2.17,3,3,0,0,0,.78-3.57,1.21,1.21,0,0,0-1.26-.73,6,6,0,0,0-2.61.69,13.52,13.52,0,0,0-2.7,1.74,13.15,13.15,0,0,0-2.24,2.36A6.25,6.25,0,0,0,404.46,70.93Zm28.6-1.24a16,16,0,0,0-3.11.3,28.93,28.93,0,0,1-3.07.43l-1.1.07-.92,0a8.41,8.41,0,0,0-1.56.14q-.37.09-.78.23a3.49,3.49,0,0,0-.91.5,11.58,11.58,0,0,0,1.67.37,10.48,10.48,0,0,0,1.35.09q.46,0,1.72-.11t2.91-.3q1.65-.18,3.48-.46t3.43-.6a10.57,10.57,0,0,0-1.76-.55A7.1,7.1,0,0,0,433.05,69.7Zm29.24,13-.5-.16-.69-.25a2.18,2.18,0,0,0-.73-.11,3.75,3.75,0,0,0-1.23.21,7.16,7.16,0,0,0-1.1.48,6.12,6.12,0,0,0-.94.53q-.43.3-.89.57a15.41,15.41,0,0,1-2.4,1.17,9.49,9.49,0,0,1-3.41.53,14.15,14.15,0,0,1-2.7-.3,11.73,11.73,0,0,1-2.84-.94,7.88,7.88,0,0,1-2.24-1.58,3.12,3.12,0,0,1-.91-2.26,5,5,0,0,1,.32-1.74,8.14,8.14,0,0,1,.85-1.67,9.33,9.33,0,0,1,1.21-1.49,10,10,0,0,1,1.42-1.19,7.5,7.5,0,0,1,2.7-.92q.87-.23,1.69-.37t1.46-.27q.87-.23,1.67-.48a6.07,6.07,0,0,0,1.42-.64,3.35,3.35,0,0,0,1-.92,2.23,2.23,0,0,0,.37-1.3,3.48,3.48,0,0,0-.48-1.78,5,5,0,0,0-1.24-1.42,6.33,6.33,0,0,0-1.65-.94,4.89,4.89,0,0,0-1.76-.34,3.89,3.89,0,0,0-1.49.37,6.52,6.52,0,0,0-1.21.76,9.73,9.73,0,0,0-1,.91,8,8,0,0,1-.87.8s0,0-.09,0v-.23a2.41,2.41,0,0,1,.64-1.58,7.36,7.36,0,0,1,1.58-1.37,9,9,0,0,1,2-1,5.8,5.8,0,0,1,1.88-.37,5.08,5.08,0,0,1,3,.78,6.22,6.22,0,0,1,1.85,2.06,11.43,11.43,0,0,1,1.19,2.91q.41,1.58.78,3.18.27,1.1.55,2.15a12.44,12.44,0,0,0,.69,2,3.93,3.93,0,0,0,.39.75,6.44,6.44,0,0,0,.57.76l1.24,1.6,1,1.33a1.78,1.78,0,0,1,.46.92.83.83,0,0,1-.3.66,1.13,1.13,0,0,1-.76.25A1.16,1.16,0,0,1,462.29,82.71Zm-4.71-4.32a3.8,3.8,0,0,0-.41-1.67,5.39,5.39,0,0,0-2.54-2.54,3.79,3.79,0,0,0-1.67-.41,10.1,10.1,0,0,0-2.93.46,9.54,9.54,0,0,0-2.79,1.37,8.06,8.06,0,0,0-2.13,2.24,6.2,6.2,0,0,0-.94,3.07,4.68,4.68,0,0,0,2.31,2.26,8.35,8.35,0,0,0,2.91.48,10,10,0,0,0,4.35-.89,11.52,11.52,0,0,0,3.61-2.86,7.14,7.14,0,0,0,.18-.82A5,5,0,0,0,457.58,78.39Zm14.92-6.54q.46,0,1.72-.11t2.91-.3q1.65-.18,3.48-.46t3.43-.6a10.56,10.56,0,0,0-1.76-.55,7.11,7.11,0,0,0-1.35-.14,16,16,0,0,0-3.11.3,28.93,28.93,0,0,1-3.07.43l-1.1.07-.92,0a8.41,8.41,0,0,0-1.56.14q-.37.09-.78.23a3.48,3.48,0,0,0-.92.5,11.59,11.59,0,0,0,1.67.37A10.48,10.48,0,0,0,472.49,71.85ZM511.29,67q-.18-.73-.69-.73a6.76,6.76,0,0,0-2.06.32q-1,.32-2.11.78t-2.33.87a7.74,7.74,0,0,1-2.38.37,2.19,2.19,0,0,1-1.37-.39,1.61,1.61,0,0,1-.5-1.35,16.38,16.38,0,0,1,.41-3.39q.27-1.46.62-2.93t.71-2.93q.32-1.46.53-2.91a20.53,20.53,0,0,0,.21-2.9q0-.27,0-.69a3.82,3.82,0,0,0-.11-.76,1.58,1.58,0,0,0-.3-.59.75.75,0,0,0-.62-.25.81.81,0,0,0-.92.78q-.32,2.06-.53,4t-.43,4q-.27,2.06-.62,4.07t-.89,4.07a5.07,5.07,0,0,1-1.21,2,14.65,14.65,0,0,1-2.15,1.92A16.54,16.54,0,0,1,492,72a10.78,10.78,0,0,1-2.31.87,3.36,3.36,0,0,1-.53.25,2,2,0,0,0-.53.3q-.32.18-.32.41a.63.63,0,0,0,0,.27,3.54,3.54,0,0,0,.73.32,2.3,2.3,0,0,0,.64.09,2.72,2.72,0,0,0,.87-.14l.85-.16.75-.16q.41-.09.87-.16a5.5,5.5,0,0,1,1.14,0q.69.46,1.14.82a3.31,3.31,0,0,1,.73.8,3,3,0,0,1,.39,1,6.93,6.93,0,0,1,.11,1.37,15.48,15.48,0,0,1-.27,2.9,15.55,15.55,0,0,0-.27,2.91,5.84,5.84,0,0,0,.11,1,7.54,7.54,0,0,0,.32,1.19,3.55,3.55,0,0,0,.5,1,.87.87,0,0,0,.71.39c.06,0,.13-.07.21-.21a1.36,1.36,0,0,1,.16-.25l.64-9.2a9,9,0,0,1,1.62-5A8.26,8.26,0,0,1,504.89,70l1.69-.46a18.73,18.73,0,0,0,2.1-.69,8.94,8.94,0,0,0,1.67-.82A2.25,2.25,0,0,0,511.29,67Zm10.91,16.2a8.38,8.38,0,0,1-2.86.5,5.43,5.43,0,0,1-2.38-.55,7.18,7.18,0,0,1-3.44-3.5,5.69,5.69,0,0,1-.54-2.4,12.43,12.43,0,0,1,.89-4.8,13.82,13.82,0,0,1,2.4-3.87,17.75,17.75,0,0,1,3.5-3A30.35,30.35,0,0,1,524,63.2l3.07-1a1.62,1.62,0,0,1,1.37.21,2.74,2.74,0,0,1,1.24,1.62,4.35,4.35,0,0,1,.14,1.05,5.34,5.34,0,0,1-.89,3,10.11,10.11,0,0,1-2.27,2.45,14.54,14.54,0,0,1-3,1.81,15.54,15.54,0,0,1-3.14,1.05q-.78.18-1.47.27t-1.28.23a4.23,4.23,0,0,0-2,.87,3,3,0,0,0-.76,2.38,1.68,1.68,0,0,0,.25.85q.25.44.48.8l.18.41a12.46,12.46,0,0,1,.82,1l.41.41a4.71,4.71,0,0,0,.41.37,4,4,0,0,0,2.61.73,8.4,8.4,0,0,0,2.17-.27,14.53,14.53,0,0,0,2-.69q.91-.41,1.78-.87t1.78-.87q.5-.23,1-.41t1.17-.37l.14.23,0,.14q-1.19.78-2.47,1.65T525,81.91A19.84,19.84,0,0,1,522.2,83.19Zm-4-12.26a1.19,1.19,0,0,1,0,.37.36.36,0,0,1,0,.23.26.26,0,0,0,.09.18,1,1,0,0,0,.5.5,1.51,1.51,0,0,0,.6.14,6.43,6.43,0,0,0,2.38-.66,20,20,0,0,0,3-1.65,13.37,13.37,0,0,0,2.56-2.17,3,3,0,0,0,.78-3.57,1.21,1.21,0,0,0-1.26-.73,6,6,0,0,0-2.61.69,13.53,13.53,0,0,0-2.7,1.74,13.14,13.14,0,0,0-2.24,2.36A6.24,6.24,0,0,0,518.2,70.93Zm37.24-4.67a6.76,6.76,0,0,0-2.06.32q-1,.32-2.11.78t-2.33.87a7.74,7.74,0,0,1-2.38.37,2.19,2.19,0,0,1-1.37-.39,1.61,1.61,0,0,1-.5-1.35,16.39,16.39,0,0,1,.41-3.39q.27-1.46.62-2.93t.71-2.93q.32-1.46.53-2.91a20.53,20.53,0,0,0,.21-2.9q0-.27,0-.69a3.81,3.81,0,0,0-.11-.76,1.57,1.57,0,0,0-.3-.59.75.75,0,0,0-.62-.25.81.81,0,0,0-.92.78q-.32,2.06-.53,4t-.43,4q-.27,2.06-.62,4.07t-.89,4.07a5.08,5.08,0,0,1-1.21,2,14.65,14.65,0,0,1-2.15,1.92A16.54,16.54,0,0,1,536.85,72a10.78,10.78,0,0,1-2.31.87,3.36,3.36,0,0,1-.53.25,2,2,0,0,0-.53.3q-.32.18-.32.41a.63.63,0,0,0,0,.27,3.54,3.54,0,0,0,.73.32,2.3,2.3,0,0,0,.64.09,2.72,2.72,0,0,0,.87-.14l.85-.16.75-.16q.41-.09.87-.16a5.5,5.5,0,0,1,1.14,0q.69.46,1.14.82a3.31,3.31,0,0,1,.73.8,3,3,0,0,1,.39,1,6.93,6.93,0,0,1,.11,1.37,15.49,15.49,0,0,1-.27,2.9,15.55,15.55,0,0,0-.27,2.91,5.84,5.84,0,0,0,.11,1,7.54,7.54,0,0,0,.32,1.19,3.55,3.55,0,0,0,.5,1,.87.87,0,0,0,.71.39c.06,0,.13-.07.21-.21a1.36,1.36,0,0,1,.16-.25l.64-9.2a9,9,0,0,1,1.62-5A8.26,8.26,0,0,1,549.73,70l1.69-.46a18.74,18.74,0,0,0,2.1-.69,8.94,8.94,0,0,0,1.67-.82,2.25,2.25,0,0,0,.94-1.05Q555.95,66.27,555.45,66.27ZM575,78.48l0,.14q-1.19.78-2.47,1.65t-2.61,1.65A19.84,19.84,0,0,1,567,83.19a8.38,8.38,0,0,1-2.86.5,5.43,5.43,0,0,1-2.38-.55,7.18,7.18,0,0,1-3.44-3.5,5.69,5.69,0,0,1-.54-2.4,12.43,12.43,0,0,1,.89-4.8,13.82,13.82,0,0,1,2.4-3.87,17.74,17.74,0,0,1,3.5-3,30.35,30.35,0,0,1,4.19-2.33l3.07-1a1.62,1.62,0,0,1,1.37.21,2.73,2.73,0,0,1,1.24,1.62,4.35,4.35,0,0,1,.14,1.05,5.34,5.34,0,0,1-.89,3,10.11,10.11,0,0,1-2.27,2.45,14.54,14.54,0,0,1-3,1.81,15.54,15.54,0,0,1-3.14,1.05q-.78.18-1.47.27t-1.28.23a4.22,4.22,0,0,0-2,.87,3,3,0,0,0-.76,2.38A1.68,1.68,0,0,0,560,78q.25.44.48.8l.18.41a12.45,12.45,0,0,1,.82,1l.41.41a4.71,4.71,0,0,0,.41.37,4,4,0,0,0,2.61.73,8.4,8.4,0,0,0,2.17-.27,14.53,14.53,0,0,0,2-.69q.91-.41,1.78-.87t1.78-.87q.5-.23,1-.41t1.17-.37ZM563,70.93a1.19,1.19,0,0,1,0,.37.36.36,0,0,1,0,.23.26.26,0,0,0,.09.18,1,1,0,0,0,.5.5,1.51,1.51,0,0,0,.6.14,6.43,6.43,0,0,0,2.38-.66,20,20,0,0,0,3-1.65,13.37,13.37,0,0,0,2.56-2.17A2.95,2.95,0,0,0,573,64.3a1.21,1.21,0,0,0-1.26-.73,6,6,0,0,0-2.61.69,13.53,13.53,0,0,0-2.7,1.74,13.15,13.15,0,0,0-2.24,2.36A6.24,6.24,0,0,0,563,70.93ZM370.4,56.15A24.78,24.78,0,0,0,369,53.3,11.76,11.76,0,0,0,367.41,51a5.37,5.37,0,0,0-2.18-1.47l-.69.21a25.74,25.74,0,0,1-5.35,6.3,4.06,4.06,0,0,1-.46.32l-.48.32-.25.18a3.06,3.06,0,0,0-.33.25,2.94,2.94,0,0,0-.29.28.44.44,0,0,0-.12.28c0,.38.17.57.5.57a2.85,2.85,0,0,0,1.52-.76,24,24,0,0,0,2.13-1.93q1.08-1.13,2.06-2.3l1.64-2a2.73,2.73,0,0,1,1.38.64,6.63,6.63,0,0,1,1.16,1.27,14,14,0,0,1,1,1.56q.43.81.73,1.45.47,1,.92,2.11a21.06,21.06,0,0,0,1,2.07.47.47,0,0,0,.41-.16.7.7,0,0,0,.11-.41,2.3,2.3,0,0,0-.14-.64Q371,57.62,370.4,56.15Zm146.13,2a2.85,2.85,0,0,0,1.52-.76,23.94,23.94,0,0,0,2.13-1.93q1.08-1.13,2.06-2.3l1.64-2a2.73,2.73,0,0,1,1.38.64,6.62,6.62,0,0,1,1.16,1.27,14,14,0,0,1,1,1.56q.43.81.73,1.45.47,1,.92,2.11a21.09,21.09,0,0,0,1,2.07.47.47,0,0,0,.41-.16.7.7,0,0,0,.11-.41,2.3,2.3,0,0,0-.14-.64q-.63-1.49-1.23-3a24.77,24.77,0,0,0-1.37-2.85A11.76,11.76,0,0,0,526.19,51,5.37,5.37,0,0,0,524,49.48l-.69.21A25.73,25.73,0,0,1,518,56a4.06,4.06,0,0,1-.46.32l-.48.32-.25.18a3.07,3.07,0,0,0-.33.25,3,3,0,0,0-.29.28.44.44,0,0,0-.12.28C516,58,516.2,58.18,516.53,58.18Zm-66.25-5c.11.24.23.46.35.68s.29.51.52.88.41.69.67,1.15.53,1,.81,1.47l.84,1.59q.42.82.71,1.49l.48-.54a10.22,10.22,0,0,0-.23-1.42,8.18,8.18,0,0,0-.41-1.19q-.29-.69-.65-1.42t-.73-1.4q-.37-.67-.65-1.14v0q-.78-1.5-1.45-2.65t-1.29-1l-.13,1,.71,1.57Zm-42.25,68h-.15a2.79,2.79,0,0,0-.64.06.47.47,0,0,0-.3.16,1.82,1.82,0,0,0-.06.64q0,.58.14.71a.6.6,0,0,0,.42.13,1,1,0,0,0,.45-.23,2.21,2.21,0,0,0,.46-.42,1,1,0,0,0,.14-.6.38.38,0,0,0-.17-.32A.54.54,0,0,0,408,121.11Zm3.51,0h-.15a2.79,2.79,0,0,0-.64.06.47.47,0,0,0-.3.16,1.82,1.82,0,0,0-.06.64q0,.58.14.71a.6.6,0,0,0,.42.13,1,1,0,0,0,.45-.23,2.21,2.21,0,0,0,.46-.42,1,1,0,0,0,.14-.6.38.38,0,0,0-.17-.32A.54.54,0,0,0,411.54,121.11Zm3.51,0h-.15a2.79,2.79,0,0,0-.64.06.47.47,0,0,0-.3.16,1.82,1.82,0,0,0-.06.64q0,.58.14.71a.6.6,0,0,0,.42.13,1,1,0,0,0,.45-.23,2.21,2.21,0,0,0,.46-.42,1,1,0,0,0,.14-.6.38.38,0,0,0-.17-.32A.54.54,0,0,0,415.05,121.11Zm13.84-.81a10.72,10.72,0,0,1,.41-2.83,3.08,3.08,0,0,0,.13-.5q0-.62-.46-.62a.58.58,0,0,0-.49.24,4.69,4.69,0,0,0-.47,1,9.42,9.42,0,0,1-1.76,3.14q-1,1.13-1.69,1.13T424,120.8a8.73,8.73,0,0,1,.64-2.95,4.2,4.2,0,0,0,.33-1.36.64.64,0,0,0-.17-.42.57.57,0,0,0-.46-.2.65.65,0,0,0-.62.41,10,10,0,0,1-.36,2A12.07,12.07,0,0,0,423,121a2.39,2.39,0,0,0,.47,1.62,1.29,1.29,0,0,0,.92.53,2.68,2.68,0,0,0,1.7-.81,9.47,9.47,0,0,0,1.79-2.28c0,.08,0,.15,0,.23v.23a5.76,5.76,0,0,0,.29,2.1q.29.71.77.71a1,1,0,0,0,.5-.16q.28-.16.28-.35t-.27-.41A2.86,2.86,0,0,1,428.9,120.3Zm14.27,0a16.09,16.09,0,0,1,.53-3.66,2.86,2.86,0,0,0,.1-.53.49.49,0,0,0-.55-.55q-.68,0-.8,1.26a11.39,11.39,0,0,1-.24,1.72,4.62,4.62,0,0,1-1.43.28,18.19,18.19,0,0,1-1.9.17q-.26,0-.26-.38a9.56,9.56,0,0,1,.16-1.5q.16-1,.16-1,0-.4-.49-.4a.76.76,0,0,0-.44.14.67.67,0,0,0-.25.26,2.23,2.23,0,0,0-.08.55q-.23,3.31-.45,4.66a7.69,7.69,0,0,0-.12,1.22q0,.73.56.73t.67-.73v-.84a5.34,5.34,0,0,1,.07-.89,1.21,1.21,0,0,1,.16-.53,1.26,1.26,0,0,1,.49-.22,7.5,7.5,0,0,1,1.33-.19q.93-.08,1.57-.08.16,0,.16.22,0,3.3,1.07,3.29a1,1,0,0,0,.5-.16q.28-.16.28-.35t-.27-.41A2.86,2.86,0,0,1,443.17,120.3Zm8.1,0a10.72,10.72,0,0,1,.41-2.83,3,3,0,0,0,.13-.5c0-.41-.15-.62-.46-.62a.58.58,0,0,0-.49.24,4.69,4.69,0,0,0-.47,1,9.42,9.42,0,0,1-1.76,3.14q-1,1.13-1.69,1.13t-.52-1.12a8.73,8.73,0,0,1,.64-2.95,4.2,4.2,0,0,0,.33-1.36.64.64,0,0,0-.17-.42.57.57,0,0,0-.46-.2.65.65,0,0,0-.62.41,10,10,0,0,1-.36,2,12.07,12.07,0,0,0-.43,2.64,2.39,2.39,0,0,0,.47,1.62,1.29,1.29,0,0,0,.92.53,2.68,2.68,0,0,0,1.7-.81,9.47,9.47,0,0,0,1.79-2.28c0,.08,0,.15,0,.23v.23a5.76,5.76,0,0,0,.29,2.1q.29.71.77.71a1,1,0,0,0,.5-.16q.28-.16.28-.35t-.27-.41A2.86,2.86,0,0,1,451.27,120.3Zm9.5,2h-.23a1.54,1.54,0,0,1-.92-.29,7,7,0,0,1-1.21-1.4,3.4,3.4,0,0,0-1.05-1s-.06,0-.06-.05,0,0,0,0a4.94,4.94,0,0,0,1.16-1,14,14,0,0,1,1.11-1.18,1.8,1.8,0,0,1,.63-.35q.64-.19.64-.53a.57.57,0,0,0-.21-.44.62.62,0,0,0-.41-.18,1.55,1.55,0,0,0-1,.35,5.83,5.83,0,0,0-1.06,1.19,4.6,4.6,0,0,1-2.91,2.09,14.41,14.41,0,0,1,.49-2.89,2.15,2.15,0,0,0,.08-.55.92.92,0,0,0-.12-.49.35.35,0,0,0-.3-.19.74.74,0,0,0-.57.3,1.14,1.14,0,0,0-.28.67q-.33,3.83-.66,5.5a8.21,8.21,0,0,0-.18,1.16.49.49,0,0,0,.16.35.6.6,0,0,0,.45.17.8.8,0,0,0,.52-.2.58.58,0,0,0,.24-.45q0-.48,0-1.26a4.45,4.45,0,0,1,.08-.91q.05-.13.47-.26a2.82,2.82,0,0,1,.51-.14,1,1,0,0,1,.7.31,4.68,4.68,0,0,1,.68.9,7.23,7.23,0,0,0,1.12,1.45,1.49,1.49,0,0,0,1,.45,1.38,1.38,0,0,0,1-.28.78.78,0,0,0,.29-.54C461,122.34,460.92,122.27,460.76,122.28Zm6.85-5.76a3.09,3.09,0,0,1,.68,2,4.77,4.77,0,0,1-1.4,3.29,4,4,0,0,1-2.92,1.52,2,2,0,0,1-1.54-.71,2.61,2.61,0,0,1-.61-1.76A6.05,6.05,0,0,1,463,117.4a3.42,3.42,0,0,1,2.84-1.71A2.18,2.18,0,0,1,467.62,116.53Zm-.47,2.13a2.21,2.21,0,0,0-.39-1.36,1.25,1.25,0,0,0-1.06-.52,2.24,2.24,0,0,0-1.89,1.35,5.12,5.12,0,0,0-.79,2.57,2,2,0,0,0,.29,1.13.89.89,0,0,0,.77.44,2.86,2.86,0,0,0,2-1.12A3.59,3.59,0,0,0,467.15,118.66Zm12.87,2q-.08-.71-.12-1.73l-.09-2.13q0-1.26-.06-1.43c0-.11-.12-.22-.33-.31a1.48,1.48,0,0,0-.58-.14.37.37,0,0,0-.27.12,4.84,4.84,0,0,0-.46.72q-.35.6-1,1.92l-.79,1.61c-.12.23-.23.47-.33.71l-.57,1.33c-.12.28-.21.42-.27.42s-.22-.31-.38-.92-.28-1.11-.34-1.49-.11-.71-.23-1.35-.21-1.11-.23-1.31a2.08,2.08,0,0,0-.14-.56,1,1,0,0,0-.24-.42.74.74,0,0,0-.46-.1q-.57,0-.66.45a14.1,14.1,0,0,1-.85,2.71q-.67,1.65-1.1,2.48a9.21,9.21,0,0,1-1,1.56.88.88,0,0,0-.1.35.46.46,0,0,0,.17.32.54.54,0,0,0,.38.16.7.7,0,0,0,.43-.18,4.69,4.69,0,0,0,.74-1.08,17.16,17.16,0,0,0,1.06-2.33q.36-1,.83-2,.14.44.55,2.37a17.78,17.78,0,0,0,.53,2.15,1,1,0,0,0,.37.56,1.39,1.39,0,0,0,.62.1q.53,0,1.25-1.67.21-.49.29-.64.23-.44.46-.92a33.41,33.41,0,0,1,1.56-3,6.27,6.27,0,0,1,.13,1.33,22.72,22.72,0,0,0,.37,4.39q.25.77.73.77a1.21,1.21,0,0,0,.5-.12.45.45,0,0,0,.27-.45,2.85,2.85,0,0,0-.32-1.08A3.77,3.77,0,0,1,480,120.69Zm8-5q-.62,0-.66,1.37a11,11,0,0,1-.14,1.78,2,2,0,0,1-.34.73,4.88,4.88,0,0,1-.93.84,5.94,5.94,0,0,1-1.24.75,2.51,2.51,0,0,1-.93.23.46.46,0,0,1-.44-.29,1.5,1.5,0,0,1-.14-.67,6.34,6.34,0,0,1,.9-3.21,1,1,0,0,0,.16-.44,1.14,1.14,0,0,0-.12-.5.36.36,0,0,0-.32-.24.88.88,0,0,0-.62.21,5.65,5.65,0,0,0-.67,1.79,10.39,10.39,0,0,0-.44,2.73,2.27,2.27,0,0,0,.38,1.34,1.18,1.18,0,0,0,1,.54,3.82,3.82,0,0,0,1.59-.55,9.78,9.78,0,0,0,2.08-1.53,12.25,12.25,0,0,1-.75,3.72,1.92,1.92,0,0,1-1.77,1.45,3.06,3.06,0,0,1-2.75-1.37c-.06-.09-.12-.13-.18-.13s-.2.07-.27.22a1,1,0,0,0-.11.44q0,.49,1,1.19a4.17,4.17,0,0,0,2.38.7,2.85,2.85,0,0,0,2.6-2.07,17.16,17.16,0,0,0,1.09-5.72c0-.17,0-.36,0-.57q.12-1.37.12-1.78a1.69,1.69,0,0,0-.11-.74Q488.42,115.72,488.05,115.72ZM503,111.17q0,.23-.55.62a6,6,0,0,1-1.93.72,6.39,6.39,0,0,0-1.07.32c-.13.07-.19.14-.19.22s.18.4.53.71a5.61,5.61,0,0,1,2,4.41,5.85,5.85,0,0,1-.6,2.44,4.4,4.4,0,0,1-1.6,1.94,3.65,3.65,0,0,1-2,.64,1.41,1.41,0,0,1-1.31-.84,3.91,3.91,0,0,1-.44-1.85,5.81,5.81,0,0,1,1.1-3.38,3,3,0,0,1,2.33-1.59.7.7,0,0,1,.41.21q.23.21.33.16a4,4,0,0,0-1.2-1.52q-.89-.77-.89-1.31a.93.93,0,0,1,.29-.71,2.68,2.68,0,0,1,1.07-.49q1-.27,2-.6t1.21-.43a.62.62,0,0,1,.27-.06Q503,110.76,503,111.17Zm-3,5.13a2.47,2.47,0,0,0-2.08,1.48,5.49,5.49,0,0,0-.87,2.73,2.85,2.85,0,0,0,.2,1.19q.2.43.53.43a2.29,2.29,0,0,0,1.18-.54,3.73,3.73,0,0,0,1.2-1.6,5.05,5.05,0,0,0,.45-2,3,3,0,0,0-.22-1.24C500.25,116.46,500.12,116.3,500,116.3Zm8.87.23a3.09,3.09,0,0,1,.68,2,4.77,4.77,0,0,1-1.4,3.29,4,4,0,0,1-2.92,1.52,1.94,1.94,0,0,1-1.54-.71,2.61,2.61,0,0,1-.61-1.76,6.06,6.06,0,0,1,1.19-3.48,3.42,3.42,0,0,1,2.84-1.71A2.18,2.18,0,0,1,508.87,116.53Zm-.47,2.13a2.21,2.21,0,0,0-.39-1.36,1.25,1.25,0,0,0-1.06-.52,2.25,2.25,0,0,0-1.89,1.35,5.13,5.13,0,0,0-.79,2.57,2,2,0,0,0,.29,1.13.88.88,0,0,0,.77.44,2.86,2.86,0,0,0,2-1.12A3.59,3.59,0,0,0,508.4,118.66Zm9.4,3.38q-.93-.78-1.77-5a8.06,8.06,0,0,0-.33-1.27.69.69,0,0,0-.34-.2,1.34,1.34,0,0,0-.37-.09.39.39,0,0,0-.37.26q-.65,1.44-1.7,3.26a18.94,18.94,0,0,1-1.69,2.57,2.31,2.31,0,0,0-.66,1.26q0,.51.53.51t1.25-1.52l.16-.26a32.67,32.67,0,0,0,2.14-3.84q.16-.32.32-.31a7.75,7.75,0,0,1,.29,1.13,13.18,13.18,0,0,0,1.23,3.86q.53.71.67.71a1.88,1.88,0,0,0,.53,0,.65.65,0,0,0,.27-.22.61.61,0,0,0,.14-.39.34.34,0,0,0,0-.18A1.75,1.75,0,0,0,517.8,122Zm7.53-4.57a1.8,1.8,0,0,1,.56,1.15,4.15,4.15,0,0,1-1.62,3,4.88,4.88,0,0,1-3.26,1.46,1.29,1.29,0,0,1-1.14-.6,3.09,3.09,0,0,1-.41-1.73,13.42,13.42,0,0,1,.31-2.71,16.7,16.7,0,0,1,.49-2c0-.14.1-.28.14-.43s.27-.32.68-.4a.34.34,0,0,1,.2-.06q.17,0,.29.46a2.38,2.38,0,0,1-.16.75,6.47,6.47,0,0,0-.46,1.8c0,.09,0,.14.08.15a4.44,4.44,0,0,1,2.91-1.51A1.79,1.79,0,0,1,525.33,117.47Zm-.7,1.4a1.11,1.11,0,0,0-.23-.71.75.75,0,0,0-.62-.29,2.3,2.3,0,0,0-1.06.27,5.47,5.47,0,0,0-1.17.87l-.39.36a.78.78,0,0,1-.39.17,8.57,8.57,0,0,0-.14,1.52q0,1,.81,1a3.18,3.18,0,0,0,2.05-1.09A3.07,3.07,0,0,0,524.63,118.87Zm12.93,1.43a13.44,13.44,0,0,1,.13-1.66A11.21,11.21,0,0,1,538,117a3,3,0,0,0,.13-.5q0-.62-.46-.62a.62.62,0,0,0-.52.28,4.13,4.13,0,0,0-.44,1.08q-.38,1.23-.5,1.56a6.51,6.51,0,0,1-.6,1.07,7.65,7.65,0,0,1-1,1.24,3.4,3.4,0,0,1-.84.67,1.36,1.36,0,0,1-.57.16q-.52,0-.52-1.12a8.43,8.43,0,0,1,.64-2.88,4.19,4.19,0,0,0,.33-1.36.64.64,0,0,0-.17-.42.57.57,0,0,0-.46-.2q-.44,0-.74.79a15.08,15.08,0,0,1-1.79,3.34q-1.13,1.6-2,1.6a.34.34,0,0,1-.35-.29,3.35,3.35,0,0,1-.08-.83,8,8,0,0,1,.38-2.24,5.74,5.74,0,0,0,.28-1.57.69.69,0,0,0-.19-.55.61.61,0,0,0-.4-.17.63.63,0,0,0-.66.49,7.85,7.85,0,0,1-.21,1.89q-.05.3-.1.64t-.1.83a8.66,8.66,0,0,0-.08,1.33,1.64,1.64,0,0,0,.45,1.22,1.27,1.27,0,0,0,.84.45,2.9,2.9,0,0,0,1.82-.92,7.53,7.53,0,0,0,1.67-2.21,7.4,7.4,0,0,0-.12,1.24,2.39,2.39,0,0,0,.47,1.62,1.29,1.29,0,0,0,.92.53,2.68,2.68,0,0,0,1.7-.81,9.47,9.47,0,0,0,1.79-2.28c0,.08,0,.15,0,.23v.23a5.75,5.75,0,0,0,.29,2.1q.29.71.77.71a1,1,0,0,0,.5-.16c.19-.1.28-.22.28-.35s-.09-.24-.27-.41A2.86,2.86,0,0,1,537.56,120.3Zm8.27.38q0,.7-1.23,1.68a4,4,0,0,1-2.55,1,2.2,2.2,0,0,1-1.7-.65,2.58,2.58,0,0,1-.6-1.81,6.11,6.11,0,0,1,1.32-3.72,3.67,3.67,0,0,1,2.88-1.76,1.13,1.13,0,0,1,1.16,1.14,2.78,2.78,0,0,1-1,2,13.23,13.23,0,0,1-2.76,1.89.55.55,0,0,0-.36.48,1.26,1.26,0,0,0,.33.91,1.28,1.28,0,0,0,1,.34,4.28,4.28,0,0,0,3-1.63c.15-.15.26-.23.34-.23S545.83,120.45,545.83,120.68Zm-4.75-1.07q2.9-1.72,2.9-2.77,0-.41-.37-.41a2.1,2.1,0,0,0-1.42.92A5.31,5.31,0,0,0,541.08,119.62Z"/>
  <path class="cls-1" d="M643.73,15.91c-.55,3.84,1.07,7.63,6,7C645.45,25.58,640.53,19.76,643.73,15.91ZM652,20.65c1-.82,2.64-1,3.48-1.9C654,17.82,652.25,19.36,652,20.65Zm14.88,1.58c-1.14-1-2.64.28-2.85-1.58-.24-1.19,1.68-.22,1.27-1.58-1.28-1.54-2.46.37-3.48.95,0,1,.53,1.58.32,2.85,1.47.81,2.73-.12,4.11-.32,2.35,3.59-.81,7.83-.32,11.39-1.27,1.58-4.41,1.28-7.28,1.27,2.27,2,7.64,1.1,8.55-1.58.07-1-.56-1.34-.32-2.53C668.28,28.86,668.62,24.35,666.83,22.24Zm-9.18,1.9c-1,0-.9,1-2.22.63.27-1-.5-1-.63-1.58.65-1.08,1.76-.06,2.53-.63-1.14-2.62-4.4-.81-4.43.95C652.87,25.74,656.81,27.12,657.65,24.14ZM665.57,27c-2.24,0-4.94.24-5.7,2.85,1.7,0,1.89,1.49,3.48,1.58.82-.45,2.14-.39,1.9-1.9-.73-.91-3.25,1.66-3.48-.63C663.25,28.46,665,28.31,665.57,27Zm-17.72,1.27c.25.73,1.58,2.19,1.9.95C649.23,28.76,649,28.08,647.84,28.25Zm7.91,74.7a14.75,14.75,0,0,1,5.7-16.46C656.81,87.31,651,97.76,655.76,102.95Zm-3.16,22.47c2.22-7.67-5.2-13.84-5.38-19-1,7.28,7.57,13.21,3.17,20.89C651.41,127.77,652.36,126.21,652.59,125.42Zm7.91-6.33a27.92,27.92,0,0,1-7,8.55c-3.58,2.32-9.32,2.5-10.76,7C648.77,129.72,659.76,128.15,660.5,119.09Zm26,5.7c3.35,2.13,3.86,7.11,4.75,11.71-2.38,3.21-6.22,5-12.34,4.43-1.71-.14-3.85-3-4.43-2.22,3.44,6.55,17,3.88,18-2.85C690.74,131.9,692.36,124.58,686.46,124.79Zm-37.66,1.27c-.07-.25-.27-.37-.63-.32-2.34,4-12.54,2.9-13,8.86-.2,2.79,3.39,5.44,7,3.8-2.81-.46-5.76-.78-6.33-3.48.43-.63.64-1.47,1.58-1.58,2.38-.21,3.48,2.34,5.06,1.9-.89-1.75-2.87-2.41-5.06-2.85C640.12,129.19,647,130.2,648.79,126.05Zm36.71.32c0,1.34,1.59,2.83.63,4.11-1.28-.09-.56-2.18-1.9-2.22-.64,1.49.79,3.35,2.22,3.8.07-.25.27-.37.63-.32C687.62,129.94,687.19,127,685.51,126.37Zm37,1.58c-.51-.09-.54.3-.95.32-6.94,1-15.49,1-22.47,1.9-1.31.17-3.52-.21-4.11,1.27,8.36-.29,18.78-1.26,27.54-2.22Zm-44.94,7.91c2.62,1.89,10.14,1.9,11.08-1.58-.4,0-.44-.41-.95-.32C686.56,137.6,679.64,134.55,677.59,135.86ZM601,140v.63c10.55-.75,19.75-.92,29.44-2.53C621.91,137.85,610.26,138.95,601,140Zm15.83-65.83c2.47-10.5,10.63-15.33,17.09-21.84.19-1.11-1.5-1-.63-1.9,4.39.06,4.11-4.54,7.28-5.7-1-1.46-1.78.38-2.85.63-6.65,1.4-8.14-6.86-3.17-8.55.08-2.35,1-3.85,3.17-4.11-.72,1.5-2.5,1.93-2.53,4.11,1.18.7,1.11-2.14,3.48-1.27,0,1.13-.81,0-1.58.63a4.3,4.3,0,0,0,2.22,5.7,10,10,0,0,1,2.22-1.9c-.34-1.46-1.38-2.21-1.9-3.48.4-1,.34-2.4,1.27-2.85-4.59-1.93-3.2-8.2-2.22-12.34-2.77-3.56-1-10.29,4.11-10.44,2-1.46,4-4.64,7.28-3.8-.09,1.18-2.12.42-2.53,1.27-.39,1,1,.24.63,1.27-3.31,3.13-6.87,6-7.28,12-1,.15-.24-1.45-.95-1.58-.75,1.13-.26,2-.95,3.48.34,1.24,3,.12,2.85,1.9-1,.43-1.06.07-2.22,0-2.6,1.75-.92,7.37,2.53,7-.36-1.25-2.55-3.82-.32-4.75-.94,2.67,1.74,4.87,4.43,3.8-.3-1.39-2-1.36-2.22-2.85A3.22,3.22,0,0,1,645.31,26c-1.3-1-3.22-1.43-3.48-3.48,1.34.94,4.95,3.5,7.91,2.85-.48,1-2.43.53-3.8.63-.14,1.41,2.75-.21,2.53,1.27-1.16.1-2.8-.27-3.48.32a5.3,5.3,0,0,0,6.65,3.48c-1,2.62-5.41-.31-5.7,2.85a2.54,2.54,0,0,0,1.9,2.53A3.26,3.26,0,0,0,651,33c1.41.88.35,3.92,0,5.06-3.47,1.81-6.44,4.11-10.13,5.7,4.17,2,7.89-1.52,9.5-4.11-.15,5.23-8.52,5-12,7.91,0,1.12,1.8.53,2.22,1.27a2.4,2.4,0,0,1-.63,2.22c1.54,0,1.84-1.33,3.17-1.58a2.39,2.39,0,0,1,2.22,2.22c1.44.39,1.24-.87,2.53-.63.71.87-.22,3.39,1.27,3.48,1.16-1.84.27-7.77,2.53-9.5-.43,2.42-.78,4.91-1.27,7.28.39,1,1.21-.46,1.58.32,0,.57-.39.67-.32,1.27.45,1.13,2.33,1.44,3.48.95.69.05.14-1.12.32-1.58,2.25.31,4,2,5.7.32.77.81-.14,3.31.63,4.11,1.73.15,1.67-1.5,2.53-2.22,1.23,0,.35,2.18,1.58,2.22,1.06.33.49-1,.63-1.58,2.08,1.06,3.29.4,4.43-.95.71.68-.26,1.08,0,2.22,1.21,0,1-1.29,1.58-1.9.87-.14.3,1.18.95,1.27,2.23-10.77-13.31-6.53-13.61-15.83-2-1.09-6.09-.9-8.23-.95,1.67-1.76,5.79-1.35,7.91-.32,1.06-.82-.88-2.29,0-2.85,2.11,1.17.61,4.48,1.58,6.33,4,5.17,14.72,3.64,13.93,13.61a28.41,28.41,0,0,1,4.43,3.16c-.34,3.67-3.4,4.62-5.38,6.65.63,2.93-.66,8.34.32,12.34,1.53,1.21,3.67,1.82,4.11,4.11-1-.1-.89-1.22-1.9-1.27a65.7,65.7,0,0,1,5.06,9.81c2.69,6.75,6.13,11.71,3.48,19-1.54.68-2.14,2.29-3.8,2.85-.46,2.39-1,4.7-1.27,7.28.54.83,1.64-.45,2.85,0,.38-2.5-1.16-4.74-.32-6.65,1.41.58,1,3.25.95,4.43,1.55-.24,2.2-1.39,4.43-.95.3,1.33,0,1.84,1.27,2.53-1.91,5.16-7.21,6.93-8.23,13-1.57-.33-2.08-1.72-1.9-3.8-1.17.09-1.14,1.39-2.85.95a26.11,26.11,0,0,0-.32,7.6c-2-1.17-1-5.34-1.27-8.23,1.25-1.71,1.25-4.66,3.8-5.06-.55,1.52-2.68,2.92-1.9,4.75,1.42-.9,1.6-3,2.85-4.11-.66-1.45-2.18-2-3.17-3.17-.28-1,1-.44,1.27-.95.09-.83-1.23-.25-.95-1.27a3.39,3.39,0,0,1,2.85-.95c1.17-4.16-.13-7.37,0-10.44,1.51-.35.44,1.89,1.58,1.9.79-2.94-.75-6,.63-9.18-6-6-12.7-11.15-15.19-20.57-1.41.18-2.18,1-3.17,1.58-5.57,1.71-7.29-2.43-10.76-3.8a22.09,22.09,0,0,0-.95-2.53c-5-4.16-8.6-9.76-11.08-16.46-3.78,4.87-9.5,7.8-14.24,11.71,7,4.25,12.25,10.33,20.57,13.29-.15.72-.63,1.62,0,2.22,3.27-1.58,3.81-5.9,8.23-6.33-.37,2.16-2.73,2.33-4.11,3.48-3.24,4.82-6.47,10.16-6.33,17.09.12,6.15,4.25,12.46,4.75,18,.13,1.4.39,3.73-1.27,4.75,1.16-9.14-4.93-14.57-4.43-23.42.21-3.76,1.11-7.43,1.27-11.71.15-1-.85-.84-.95-1.58-7.58-2.76-16.63-4-21.52-9.5a50.2,50.2,0,0,1-5.38-2.53C617.19,74.41,617.07,74.21,616.83,74.14Zm61.4,47.16h1.27c-.14-.6.43-1.91-.63-1.58C678.73,120.33,678,120.29,678.23,121.3Zm1.9,4.75c-.83-.1-1,.44-.95,1.27C680,127.41,680.22,126.88,680.13,126.05Zm2.85.63c-.7-.73-1.23.11-2.22,0,.23,1.4-1.14,3.46.32,4.11A45.08,45.08,0,0,1,683,126.68Zm0-4.75c1.81,1.43,4.11-1.11,4.11-3.48C684.46,118.35,683.8,120.23,683,121.94Zm-4.43.32c.68,1.21,2.15,1.65,2.53,3.17h3.8c.46-2.11,3.43-3.26,3.17-5.06h-.95c-.15,2.28-1.71,3.15-4.11,3.17-.86-.41-1-1.53-1.9-1.9C680.75,122.35,679.62,122.28,678.54,122.25Zm3.17-11.08c1.15.2,1.24-.66,1.27-1.58H682A2.06,2.06,0,0,1,681.71,111.18ZM643.1,13.37a32.63,32.63,0,0,0,4.11-4.43C645.41,9.79,642.68,11.37,643.1,13.37Zm-4.43,5.38c.87-1.91,3.2-5.61,2.53-7C639.49,13.25,638.36,15.29,638.66,18.76Zm.95,25c-1.5-2-3.58-3.38-4.43-6-2.49-.17-2.5,2.15-2.53,4.43C633.43,44.25,637.31,45.14,639.61,43.76Zm11.08-7.6c-1.14,1.16-5.09,1.63-5.38-.63-.51-1.1,1.19-2.43-.32-2.53C640.84,36.82,649.66,41.13,650.69,36.16Zm-8.23-3.48c.4.43,1.55.49,1.58-.32C643.05,32.53,642.75,31.62,642.46,32.68Zm5.06,6.65c-3.1-.3-5.43-2.24-4.11-6C636.83,34,643.75,43.51,647.53,39.33Zm-7,2.85a2.75,2.75,0,0,0,3.48-.95C643.1,40,640.58,40.08,640.56,42.18Zm-8.86,38c-.83-.1-1,.44-.95,1.27C631.59,81.52,631.57,80.76,631.7,80.16Zm8.55,4.43c.19,0,.37,0,.32.32h.63C641.69,84.13,640.12,84,640.25,84.59ZM638,83.32c-.1.83.66.82,1.27.95C639.39,83.44,638.64,83.46,638,83.32Zm-.32-1.9c.65.18.62,1,1.27.32A.66.66,0,1,0,637.71,81.42Zm-1.9-1.9a2.83,2.83,0,0,0,.63,2.22c-.45-1.38,1.08-1.46.32-2.22ZM633,80.79c-.5.47-1.1,1.64.32,1.58C633.12,81.38,634,81.08,633,80.79Zm47.79,17.72c.09-.72-.08-1.19-.63-1.27C679.63,97.72,679.77,98.66,680.76,98.52Zm-3.17-2.85c1.61,1.87,1.12-1.86,0,0Zm-1.27-1.27c.05,0,0,.26,0,.32h.95c.5-1.24-.82-.66-.95-1.27.72-2,1.75-3.74,1.9-6.33-1.25-3.18-3.18-5.68-4.75-8.55.07-5.79-1.45-14.63.63-19.31V65c2.25-.6,3-2.66,3.8-4.75-1.24-2.33-5.54-2.18-7.28-.95-1-.11-.37-1.95-1.9-1.58-2-.19-1.82,1.77-3.48,1.9C664.43,74.72,667.95,87.46,676.33,94.4ZM617.14,73.19c3.81,2.52,7.58,5.08,11.71,7.28,1.61-.71,2.43-2.21,4.11-2.85-1.51-3.13-5.56-3.72-7.6-6.33,3.5-6,11.53-7.46,14.88-13.61-.19-.79-1.25-2.52,0-2.85.27,1.32,1.08,2.08.95,3.8a67.33,67.33,0,0,0,11.39,16.77c-.2,1.26.84,1.27.63,2.53,3.56,1.83,8,1.28,12.66,1.58-.4-3.72-1.91-7.88-1.9-12.34,0-3.24,1.54-6.85,0-9.18-1.2.06-1.2,1.33-2.53,1.27-1.19-.39-1.65-2.12-.95-3.48-1.18-.12-.83,1.28-2.22.95-1-.43.93-1.91-.63-1.9s-4.55,1.94-7,.32c-.18,7,2.71,12.69,4.11,17.09-3.18-4.1-4.67-9.89-5.38-16.46a3.79,3.79,0,0,1-2.85-2.85c-1.35-.19-.61,1.71-2.22,1.27-1.54-.64-1.24-1.87-1.58-3.17-1.58.11-2.52,2.53-4.43,1.27-.18-1.44,1.19-1.34.95-2.85-.4,0-.44-.41-.95-.32C631.25,57.13,622.47,63.44,617.14,73.19Zm36.4-65.52c-2.91-5.18,7.17-9.46,8.86-4.43,1.33-.36,1.88-1.5,3.17-1.9,4.1-.38,5.65,4.36,4.11,7.6,2.71,2.82-.21,5.76,0,8.55-.74.53-.76,1.77-2.22,1.58.13-1,1.41-.91,1.27-2.22-1.26-1.15-3.06,1.21-4.43,0,1.78-.3,3.85-1.76,3.16-3.48-1.55,1.83-3.76,3-5.7,4.43-1.3.15.25-.8-.63-1.27-3.57,1.37-6.65.11-7-3.48-1.19-.14-1.44.67-1.9,1.27-.15,1.52.12,2.62,1.27,2.85-2.36,2.16-3.52-5.56.63-4.43,1.31-1.38,2.43-4.47,5.38-3.17-.27,1.13-.78,0-1.9.32-4.15,1.26-1.43,9.47,2.53,5.7-.34-1.58-2.53-.19-4.11-.95,2.67.22,4.55-1.06,6.33-2.53A7,7,0,0,0,660.5,7a9.16,9.16,0,0,0-3.48.32c2.73-3.51,7,1.27,6.33,4.11,3.39-4.68-5.24-9.33-8.86-5.38-.09,1.71-.27,1.68.32,2.85-6.3-1.15-12.66,8.38-6.33,12.34C640.39,18.32,647.67,8.1,653.54,7.68Zm9.18,5.7c-.9.37-1.88.65-1.9,1.9C662.46,15.64,662.47,14.39,662.72,13.37Zm4.43-3.48c-2.46,0-4.73,2.73-3.8,4.11.06,1.11-1.07,1-1.27,1.9C665.78,15.29,666.67,13.23,667.15,9.89Zm-1.27-.32a1.35,1.35,0,0,0-.95-2.22C664.57,7.81,664.87,9.53,665.88,9.58Zm2.22.32a24.41,24.41,0,0,0,.63,5.38C670.13,13.91,670.47,10.47,668.1,9.89Zm-4.43-5.7c3.72-.62,5.2,2,3.8,4.75C672.53,7.39,665.92-1.58,663.67,4.2Zm3.17,3.16c.5-2.27-2-2.92-3.48-2.22C663.06,7.34,665.88,6.42,666.83,7.36Zm-13.29-1.9c2.44-1,5.07-2.78,8.23-1.27C660.93-.16,654.23,2.41,653.54,5.46Zm-1.9,131.35c-12.88,4.11-14.25,19.72-21.21,29.75,3.33-1.63,3.58-6.34,6-8.86.15-2.27,1.59-3.27,1.9-5.38,5.3-5.56,9.9-11.83,17.09-15.51-6.78,1.56-11.5,7.91-15.51,13.29-.19,0-.37,0-.32-.32C642.2,144,646.54,140,651.64,136.81ZM672.85,139c-1.63,1.67-6,2-8.55.95-5.72,8.12-1.63,22.27-2.53,33.87-1.31-9.5-3-17.42-3.17-28.49-11.41,9-21.92,18.8-27.54,33.55-.51,1-1.68,1.27-1.9,2.53-.08,2.2,2.81,3.7,1.27,5.38-2.11,0-4.89-2-6.33-3.8.25-1.55.3-3.28,1.58-3.8.58.81-.59,2-.63,3.16.26,1.11,1.26,1.48,2.22,1.9-1.29-2.43,1.77-7.63-.95-10.13-2.2,1.07-2.9,3.64-3.48,6.33a4.71,4.71,0,0,1-3.17-2.53c6.24-1.05,1.9-10.75,8.55-11.39,2,1,4.84,1.28,5.38,3.8,7.07-10,14.56-19.62,25.32-26,.29-2.14,1.3-3.56,1.9-5.38-3.93-2.29-11-7.61-16.14-2.85.74-3.08,5.23-3.3,7.91-2.85C658.33,134.3,664.78,142.76,672.85,139Zm-44.31,28.8c-2.5-.27-5.73,3-3.16,4.75C625.53,170.1,627.41,169.34,628.54,167.83Zm4.75,4.11c-.55-1-.73-2.43-2.22-2.53.22,4.13-1.08,6.72-1.9,9.81C631.3,177.56,631.67,174.13,633.28,171.95ZM663,139.35a1.49,1.49,0,0,1-.95-.32c-2.11,3.16-3.6,10.84-1.58,15.83C659.74,149,661.75,144.09,663,139.35Zm8.86,51.59c-1.22,2-6,.61-7.91.32-1.71-2.26.85-5.11-1.58-6.33-.59,2.08.75,4.95.63,7.6-1-.06-2.32.21-2.85-.32,0-1,1.59-.31,1.58-1.27-.18-1.47-1.14-.33-1.9-.95.38-5.64-5.22-9.56-.63-13.93,2.45.06,4.46-1.38,6,.32-.49-12.84,3.38-23.43,5.38-35.45.51-.09.55.3.95.32-3.05,13.84-7.37,31.57-3.8,47.48-2-2.35-1.4-7.25-2.22-10.76-.42-.53-1.41-.49-1.9-.95,1.8,4.21,1.27,10.75,4.75,13.29.86-.29-.84-.59-.32-1.58C669.86,189,669.78,191,671.9,190.94ZM660.5,177.33c-1.81.63-3,4.88-.95,5.7A11,11,0,0,1,660.5,177.33Zm132.9-99c2,2.59,4.5,6.32,7.05,7.36C798.29,83.05,796.57,80,793.4,78.34Zm54.27,5.83c.31-2.53,4.82-4.27,5.52-1.23C853.36,85.43,848.59,86.44,847.67,84.16Zm.61.31c1.71.7,4.94.51,4.29-2.15A2.7,2.7,0,0,0,848.28,84.47ZM837.55,86c-.64-.58-1.62-.84-1.53-2.15.35-1.08,1.74-1.12,2.15-2.15-1.45.16-2.31,2.5-3.68.92-.23.94.84.59.61,1.53a4.35,4.35,0,0,0-1.84,2.15C835,83.84,835.87,85.5,837.55,86Zm.61-1.23c.31-2.53,4.82-4.27,5.52-1.23C843.85,86,839.08,87.06,838.16,84.78Zm.61.31c1.71.7,4.94.51,4.29-2.15A2.7,2.7,0,0,0,838.77,85.08Zm-9.2.92c-1,.21-2.1,1.16-2.76,0-.4-2.65,2-2.47,3.07-3.68a3.64,3.64,0,0,0-3.68,4C826.76,87.16,829.42,87.29,829.58,86Zm-20.24,9.2c2-.2,3.78,1.22,3.07,2.76,2.15-.9.78-3.18-.61-4.29-3.56-.29-4.19,2.35-5.83,4C807.55,97.29,807.79,95.6,809.34,95.2Zm4.6,2.76c-1.29.35-2.21,1.07-3.68,1.23,0-.84.51-.62,0-1.23-2.22,1.15-4,2.7-6.13,4C808.23,101.45,812.06,100.67,813.94,98Zm27.59,6.75c-2.19-.08-4-1.23-5.52.31,7.68.61,17-.67,25.14-.61C855.17,102.46,847.55,104.92,841.53,104.71Zm-73.89,10.12c-3.51-1.13-9.27-.65-12,.92,10.68-.82,18.84-.84,28.82-.92C780.54,113.46,772.67,114,767.65,114.82Zm11,21.77c-.93-.71-1.35-1.92-2.45-2.45-3.26,1-7.35-5.57-11-2.45,1.18-2.57,5.38-.31,7.05-2.15,2.27.29,3.46,1.65,4.6,3.07,1.19-3,4.06-7.57,7.36-6.44C780.55,126.79,776.87,132.29,778.68,136.59Zm-2.76-2.76c-.53-1.72-2.57-3.55-4.29-3.07C773.15,131.7,774.4,132.9,775.92,133.83ZM774.39,136c-1.8-3.21-8.52-5.91-12-2.15C767,130.94,771.47,135.45,774.39,136Zm-3.07,1.84c.33-3.21-6.9-4.76-9.5-2.45A11.69,11.69,0,0,1,771.32,137.82ZM821,134.75c-4.11,2.13-9.52,7.24-10.42,12.57C813.65,142.74,817.61,139,821,134.75Zm-54,3.68c-.48-2.41-4.19-3.12-6.75-2.45C760.34,137.45,765.48,136.73,767,138.43Zm28.51,135.21c-3.51.27-5.87,1.69-9.2,2.15.07.58-.35.68-.31,1.23C789.26,276.14,794.52,275.68,795.54,273.64Zm-11,2.76c-1.81,4.11-7,4.87-10.12,7.66,4.75-1.28,8.89-3.17,10.73-7.36C785.05,276.46,784.86,276.35,784.51,276.4ZM763.35,288c3.29-.89,7.59-2.07,10.73-4h-2.76C769.19,285.71,764.29,286.22,763.35,288Zm1.53-88.61c-4.65,1.06-8.09.12-12.88.61,3.87-1.53,9.5.54,12.88-1.53,2.74,1.79,7.48.93,11,.61.07-1-.54-1.3-.31-2.45-.27-.85-1.23-1-2.15-1.23-5.92-14.31-5.55-29.36-1.84-43.84-4.6-1.92-7.47,1.08-11.65.31-8.27-1.54-9.23-18,.31-18.09-7.33,1.67-6.3,15.67.31,17.17,9.24-.94,16.95-1.64,26.37-2.15-.43-6.25,3.4-8.25,6.75-10.73-.21-4.9,2.25-6.41,4.29-9.2-.36-1.79-1.69-2.61-1.53-4.91-2.69,2.25-2.78,5.2-4.29,8.58-.46-.78.07-3.19.61-4-2.6,1.49-2.29,5.89-3.68,8.58-.23-6.15,2.28-12.2,7.66-14.41A191,191,0,0,0,801.06,98c-1.25,1.3-1.46,3.65-1.84,5.83-.64-2.11-.19-5.68,1.84-7.36-.25-3.32.61-8.33-.61-10.73a1.5,1.5,0,0,1,.61,1.53c1.39-4.78-.8-12.93.92-18.09.86,8.23-.53,20.1,0,29.13a5.6,5.6,0,0,1,3.37-2.76c-.77,2.22-4.28,4.29-4.29,8.28.93.81.95-1.9,2.76-1.23-2,2-3.27,3.78-3.37,7.05-.34-.09-.5-.23-.52-.4a5.08,5.08,0,0,1,.22-.52.76.76,0,0,0-.22.52c-1.07,3-.21,8.16-2.24,10.82.28,1.86,1.37,2.93,2.15,4.29,10.59,2.65,18.65-8.79,23.61-15-.93,2.44-2.64,4.11-4,6.13,5.75-.76,8-4.53,8.28-8.58-.73-.64-1.77.27-2.76.31-.51-2.07,1.72-3.79,2.15-6.13.91-5-1.92-9.33-3.37-12a47.3,47.3,0,0,0-10.42-.92c-1.3,0-3,2.6-3.37,1.53,1.83-1.16,3.25-2.47,5.52-2.45-.79-3.7.09-8,.61-11.34,6.38,1.48,14.43-.6,21.46-1.53,4-.53,7.5-.06,11.34,0,2.31,0,3.87-.47,6.13-.31,3.07.23,6.33-.24,8.58,0,0,13.17-1.25,28.54-1.53,42-.53,3.13-.77,6.61.31,9.2-1.85-.05-2.15.26-3.68,0,1.3.94,3.59.91,4.91,1.84-14.68-4.44-33.24-1.13-48.44-.92,3-2.41,9.2-.38,13.49-.92,3.32-.42,6.45-1.67,10.42-1.53,3.2.11,6.32.61,9.81,0-3.78-3.28-10.22-3.89-15.94-5.21,7.18-.73,14.21,4,20.85,5.83,1.14-.19,1.93-.73,3.07-.92,1.43.1,2.1,1,3.68.92.81-10.22,1-20.29,1.84-31,.18-2.41-.33-4.82,0-7.05.51-3.48.19-6.43.31-11-3.36-.87-9.62-.14-14.72.31-1.14-.19-1.93-.73-3.07-.92-6.85,1.24-13.36.59-19.32,2.76-1.85.09-4.13-.25-5.52.31-1.66.44-3.4-1.11-3.68.61.33,1,.1-.85.92-.31A8.89,8.89,0,0,0,817,81.4c-.33-.08-.21-.61-.61-.61a15.76,15.76,0,0,0-.31,6.13c.74.13.67-.56,1.53-.31.3-1.12.43-4.54.92-6.44,14.1-1.54,28.44-1.89,42.31-3.07-.38,3.61-.5,6.87-.61,11-9.31,2-22.35.72-31.89,2.15,2.32,4.75,0,11.43-2.45,15.64.64.7,1.7-.94,2.76,0,3.15,4.61-3.25,7-5.52,9.81-1.64-.17-2.68.71-4,0-3,4.41-17.05,16.82-21.77,7.36-1.78,1.85,1,3.48,1.23,5.21,5.36-.78,11-.46,13.18-4.91-.42,4-6.45,5-11.34,5.52-3.29,2.29-2.89,7.49-4.91,10.42,4.73,2,9.17,4.32,12.57,7.66-1.82.8-4.9-2.18-6.44-3.68-2.08-.47-3.23-1.88-5.21-2.45-3,1.15-3.27,5.11-4.91,7.66,3.68-.11,12.1-2.4,15.33.61,4.87-1.38,7.38,1.94,11,2.76-3.23.47-6.2-2-9.81-2.15.51,1.33,3.63,2.7,5.21,4-2.69-.27-5.58-3-8.28-4.29-6.34-1.25-12.19.52-17.17.31-.42.09-.25.77-.31,1.23-.53-.39-.62-1.22-1.23-1.53-3.67,1.44-9,1.18-13.49,1.84-2.78,6-2.71,16.74-2.15,25.45-.62,5.19,1.27,10.32,1.84,15.33,1.38.86,1.6,2.89,3.68,3.07,3.53-1,4.57-4.43,5.83-7.66.27.89-.3,3.58-1.23,4.29,2.67,18.28,3.28,37,4.29,54.57,1.25,8.1,2.22,21.92.92,29.43-1.64-.69-.9-3.18-.92-4.6-.19-18.58-1.51-32-4.6-51.2-.48-1.87-1.41-3.29-1.23-5.82a52.22,52.22,0,0,1-3.07-14.1C771.84,199.85,767.78,201.51,764.89,199.44ZM776.23,197c1.63,5.89,1.46,10.34,4,15.94v2.76c1.87,2.35.65,7.12,2.76,8.58-.55-11.8-1.27-19.3-2.15-30.66-.07-.24-.26-.36-.61-.31C779.82,195.47,777.16,195.37,776.23,197Zm46-110.68c2.75-.9,3.82,2.51,5.83,3.37,9.36-1.29,19.39-.64,31-1.84a79.2,79.2,0,0,0,.61-9.81c-12.28,1.33-25.27.11-37.4,3.07-.58-.54-2-.22-3.07-.31-.54,1.57-.33,5-.31,6.13H821c.85-1,.78-2.9,1.84-3.68,1.42.29,2.93-.93,3.68-.31A11.19,11.19,0,0,0,825,86.62c-1.41-1.25,1.7-3.16.31-3.37a5.73,5.73,0,0,1-2.45.31C822.68,84.34,821.6,85.77,822.22,86.31Zm1.84,1.84a1.67,1.67,0,0,0-1.53-1.53C822.34,87.82,823.21,88,824.06,88.15Zm4.6,8.58c-.38-3.2-1.25-7.53-4-7.36C826.13,91.7,827.4,94.21,828.66,96.73ZM794,139c.58-.07.68.35,1.23.31,0-.76.06-1.49-.61-1.53C794.62,138.43,793.79,138.21,794,139Zm-6.13,9.5a1.55,1.55,0,0,1,.92.92,7.78,7.78,0,0,0,2.45-.61c-.21-4.4,1.87-6.51,4.29-8.28C791.08,138.5,787.94,143.43,787.88,148.55ZM854.72,82c.7-.53,2.57.12,2.76-.92a3,3,0,0,0-3.37,4.29C854.69,84.64,854.2,82.82,854.72,82Zm-8.28.92c.13,1-.4,2.65.61,2.76a15.15,15.15,0,0,0-.61-4.29,16.86,16.86,0,0,1-2.76,4.6C845.25,85.64,845.17,83.61,846.44,82.94Zm-16.56,3.68c1.62-.33,1.33-2.55,2.45-3.37.19,1-.4,2.85.31,3.37.64-1.1.16-3.32.31-4.91-1.3.44-1.1,2.38-2.15,3.07-.16-1.06.46-2.91-.61-3.07C830.12,83.38,830.4,85.4,829.88,86.62Zm-65.61,1.84c7.53,3.81,16.43,6.26,23.61,10.42,1.24-.4,2.36.88,2.76.31-4.9-1.94-8.67-5-14.41-6.13-1.85-1.52-4.67-2.07-6.74-3.37-2.68.41-5.47-3.79-6.74-.92C763.48,88.89,763.41,88.2,764.27,88.46Zm52.12,15.64c.64.18.87.76,1.84.61C821.9,102.45,816.29,99.49,816.39,104.09Zm2.76,8c-.57,1.17-1.79,1.68-2.45,2.76,4.4-1.11,5.08-7.69-1.23-7.36C816.45,109.25,819.91,108.54,819.15,112.06Zm-34,48.14c.46-1.28.35-3.13,1.84-3.37,7,3.21,13,7.42,23.3,7.36C820.67,160.1,828,151.56,829,139c-1.59-7.52-9.11-10.71-15.94-12,4.92,3.95,13.72,4.46,14.41,12,.48,5.21-3.23,12.55-5.52,15.64-1.7,2.3-3.78,4.76-6.13,5.83-14.78,4.94-26.14-4.53-36.18-9.2,1.27,2.81,4.91,3.26,6.75,5.52C785.16,156.86,784.67,160.53,785.12,160.2Zm27-34.65c-3.7,5.6-12.19,8-14.72,13.8,4.4-4.9,11-7.58,15.64-12.26C812.41,126.88,813.21,125.26,812.1,125.55Zm-1.23,17.78c2-3.19,1.67-8.76,4.6-11C811.48,134.18,811.19,139.21,810.87,143.34Zm-3.07,55.49a195.09,195.09,0,0,0,7.05,32.5c1.13,10.25,4.93,19.41,7.36,27.9C817,238.56,812.2,219.38,807.81,198.83Zm-12.88,76.65a22.85,22.85,0,0,1,.61,7.66c-1.36.17-2.07,1-3.68.92-.67-.64.15-.88,0-1.84-6.14,6.9-19,5.19-30,7.05,3.81.24,9,1.12,12.26,0,3.16.81,5.7-.28,8.89-.31,3-1.19,6-5.08,9.2-3.37,2-.85,4.2-1.52,5.52-3.07C796.33,280.62,797.34,276.34,794.93,275.48Zm74.5-211.24c-20.74,2-41.4,1.66-61,4.29.05,8.14-1.33,13.8-.31,20.24,1.43-5.64.18-13.14,1.84-19,9.66-1.4,20-2.22,29.13-3.07,2.74,1.37,6.39,0,9.5,0,7.56-.11,15.57,0,22.38-1.84C870.38,64.72,870.2,64.19,869.43,64.23Zm-61,28.51c2.84-2.19,4.29,2.21,6.44,1.53C814.31,91.76,809.66,89.31,808.42,92.75Zm16.25,6.13c.13-4.68-4.9-7.15-8.28-4C821.21,93.49,821.88,97.41,824.67,98.88Zm-2.45,4.29c-.47.65-1.11,1.14-1.53,1.84,3.49-.89,3.48-5.92,1.23-8-2.89-.76-4.82,1-6.13,2.76C818,97.68,823.77,98,822.22,103.17Zm51.51-43.54c0-.19,0-.36-.31-.31a1.55,1.55,0,0,0-.92.92c-24.18,1.65-49.17,2.28-71.13,5.52,6.43-.2,13.09.41,19.62-.61,1.56-.24,3-1.32,4.6-1.53a122.52,122.52,0,0,1,17.48-.92c1.37,0,2.66.64,4,.61,3.39-.08,6.81-1.56,10.12-1.53,5.44,0,10.36.48,15.64,0-1.17,10.45-.16,20.29-.61,30-.28,6-1.23,11.93-1.23,18.09,0,4.58.51,8.13.61,12.26.52,20.12-2.7,41-.31,62.85-1,7-.38,11.07-.61,18.7.77.56-.29,2.95,1.23,2.76.34-9.35,0-18.55-.31-28.51-.09-3.06.59-6.14.61-9.2.06-9.12-.95-16.15-.61-25.75.24-6.87,1.34-13.88,1.23-20.54-.08-4.69-1-9.5-.92-14.1.22-8.37,1.21-17.27,1.53-24.22C872.13,75.89,873.85,68.41,873.73,59.64Zm-60.09,45.68c-.63.08-.07,1.36-.92,1.23-3-1-6.18-3.4-8.58-4,1.61,3.3,5.78,4,9.5,5.21C813.25,106.75,815.23,105.6,813.63,105.32Zm-10.73,0c-.27.55-.86.78-.61,1.84,2.63,3.09,7.28,4.16,11.65,5.52-1.17,5.72-11.48,3.39-11-1.53,1.86.66,4,3.3,6.13,3.68.39.07,3.81,0,3.37-1.23-4.32.86-8.2-2.16-10.12-5.52,0,1.78-.58,2.9-.61,4.6,1.32,3.23,4.33,5.52,8.89,4.6,2-2.44,5.12-3.67,7.05-6.13-5.07.92-10.66-2.23-14.41-4.6C803.07,106,804.15,105.22,802.9,105.32Zm-16.56,18.09c-5.3-2.54-14.12-.73-14.72,5.21,2.92-.18,3.37-5.4,8.28-4.6.42-.19,0-1.18.61-1.23,1.82.33,3.58.71,4.6,1.84,2.88-.61,6.77-1.1,8.58-1.84C791.19,121.77,788.61,123.18,786.35,123.41Zm42.92,6.13c.85.89,1.68,1.8,2.45,2.76,3.31,1.3,6.39,3.74,9.5,5.83,3.27,2.2,7,3.9,9.5,6.13.82.73,1.3,2.5,2.45,2.45-2.51-4.54-6.94-6.25-11.34-8.89S832.67,130.32,829.27,129.54Zm-57.64,8.58c-3,.24-6.61.31-8.28,2.15,9.64-1.42,17.72-.73,27.59-1.23C786.66,137,778,137.61,771.63,138.12Zm96.27,2.15c1.19,3-1.57,4.53-3.68,5.21-1.09-.75-2.67-1-3.07-2.45C861.29,138.79,865.34,137.27,867.9,140.27Zm-1.84.92c-.32-.7-1.19-.85-1.53-1.53-1.84.64-2.53,1.81-1.84,3.68.94-.22.9.53,1.84.31A4.38,4.38,0,0,0,866.06,141.19Zm-9.81,65c-10.44-1.77-22.36-1.86-34-2.76-1.47,0-8.13,1.41-8.58-2.15,4.37.29,9,.27,13.8.61,6,.44,13.27,2.83,18.09.61,5.29.43,13.27,1.67,19,1.84,1.21,0,2.88.23,3.37-1.23a337.15,337.15,0,0,0-36.18-.92c-1.12-.31-1.79-1.07-3.07-1.23-5.21.44-9.49-1.14-15-.31a44.87,44.87,0,0,1,0-5.52c3.24-9.53,3.72-20.28,5.52-30,.75-.88.9-2.37,1.23-3.68-.26-1.39,2-2.47.61-3.07-4.85,10.42-5.53,25.32-7.05,35.26-6.17,4.09-17.66,3.31-24.53.61-5.37-10-4.94-21.34-4.91-33.42-2.4,12.89-1.13,25.48,4.29,34.65,6.72,3.43,18.42,3.25,24.22,0-.11,3.51-.3,4.81-.31,10.12.53.6.53,1.72.92,2.45a244.39,244.39,0,0,0,8.89,47.22,163.92,163.92,0,0,1,4,15.94c1.9,2.31,3.15,6.84,3.37,9.81-3.07-.91-7-1-9.5-2.45-7.18-25.35-15-53-25.75-77-.23-1.54,1.25.52.92-.92a3.54,3.54,0,0,0-2.76-.31c-1.88,16.66-.4,32.68.92,52.73,1.62,7.07,1.59,13.29,3.07,21.15-1.19-23.06-6.14-49.53-3.37-72.66,9.86,19.48,14.82,43.29,23,65a85.27,85.27,0,0,0,3.68,13.18c-1.79,2.74-.55,7.07.92,9.2,1.54.9,3.73,1.8,5.21.31a42.82,42.82,0,0,0,20.23,8.28c.75.17.28,1.56,1.53,1.23.77-.25,1.2-.84,2.15-.92-1.29-3-4.09-4.5-6.44-6.44-2.2-1.14-5.9-5.1-7.05-4.29-.35-1.91-3.61-3-5.21-4.6.83,3.37,5.77,5.26,8.58,7.66,3.12,2.11,7.26,4.78,8.89,7.36-5.51-1.35-12.3-4-18.4-5.83-.41-1.38-1.91-2.14-3.07-3.07a20.89,20.89,0,0,0-3.07-2.45c-1.83.87,1.44,2.09-.31,2.76-3.25-.52-4.43-4.69-3.37-8.58,3.16-.08,5.75.89,9.81,1.84-1.77-11.64-7.29-23.94-10.12-37.1-1.72-8-3.07-16.29-4.29-24.22-.86-5.58-1.42-11.45-1.84-16.56,18.16.33,37.47,3.23,56.11,2.76C867.7,204.48,860.59,205.66,856.25,206.19Zm37.1,0c-6.23,2.4-14.15-1.64-19.32,0,2.21,2,5.72.51,8.89.92,1.4.18,2.8,1.19,4.29,1.23,1.77,0,3.56-1,5.21-.92,2.44.06,5.77,2.54,7.36-.31A26.34,26.34,0,0,1,893.35,206.19ZM752.09,47.71a.51.51,0,0,0-.57.41L722,229.17a.5.5,0,0,0,.41.57h.08a.5.5,0,0,0,.49-.42l29.55-181A.5.5,0,0,0,752.09,47.71Z"/>
</svg>
