<svg id="Layer_1" data-name="Layer 1" xmlns="http://www.w3.org/2000/svg" width="96" height="24" viewBox="0 0 96 24">
  <defs>
    <style>
      .cls-1, .cls-2 {
        fill: #272727;
      }

      .cls-1 {
        fill-rule: evenodd;
      }
    </style>
  </defs>
  <title>icons</title>
  <path class="cls-1" d="M37.79,10.52c-4.63,1.23-2.32-5.2.49-2.44,0,.8.1,1.73-.73,1.71-.59-.49.41-1.16-.24-1.71q-1.81-.34-1.46,1.46c1.26-.36,1,.74,2.2.49a2.11,2.11,0,0,0,.49-2.44c-1.83-1.23-4.69-.22-3.9,2.68C35,10.82,37.34,11.66,37.79,10.52Zm-.73-1.46c-.43-.06-1.22.25-1-.49.44,0,.51-.3,1-.24Zm2.2-2.82C35.92,5.15,32.46,4,28.26,4a1.45,1.45,0,0,0-.61.41A42.72,42.72,0,0,0,25,14.59C30.19,17.28,36.38,19,42.52,20.7A53.08,53.08,0,0,0,47,8.89C44.62,7.58,41.91,7.11,39.26,6.24ZM28.87,4.41C35.23,5.58,41.52,6.83,46.39,9.5c-3.74,1-6.92,2.59-10.8,3.46-2.75-2.35-3.87-6.31-6.93-8.35C28.63,4.44,28.75,4.42,28.87,4.41ZM26,14.8c1.82-1.78,4.46-2.74,6.31-4.48a18.08,18.08,0,0,0-6.52,4.28,42.33,42.33,0,0,1,2.44-10c2.69,2.6,4.39,6.2,7.13,8.76,1.74,0,2.71-.82,4.28-1a30.88,30.88,0,0,0,2.65,7.54C36.84,19.05,31.51,16.3,26,14.8Zm16.5,4.89c-1.06-2.34-1.79-5-2.65-7.54A42.88,42.88,0,0,0,46.19,9.7C45.76,13,43.62,16.37,42.52,19.69Z"/>
  <path class="cls-2" d="M12.34,4.45c5-.06,11.58,2.82,9.53,6.81-3.43-2.47-5.77-6-12.71-5-3,.9-4,3.85-6.81,5C-.33,6.78,7.12,4.93,11,4,6,4,2.3,5.3,1,9a9.16,9.16,0,0,0,.12,1.85A9.25,9.25,0,0,0,1.79,12l.14.07c.47.06,1,.09,1.41.18l.77-.51L5.6,9.79l-1.48,3c-3.3,8.3,12.86,7.41,15.94,4,1.15-4.42-1.62-7.38-4.54-9.08,3.26.22,3.27,3.69,6,4.46a.68.68,0,0,1,.42-.15h.15C25.84,7.35,17.17,2.87,12.34,4.45Zm6.81,12.26c-3.07,2-12.08,2.24-14.53-.45C3.74,3.87,21.06,5.36,19.15,16.71ZM8.09,11.61,8,11.36a.33.33,0,0,0,0-.14,1.18,1.18,0,0,1,.82-.51c.09,0,.08,0,0,0l.16,0a.36.36,0,0,1,.2,0,.21.21,0,0,1,.1.14c0,.11,0,.25.09.36h0v0h0a.08.08,0,0,1,0,0h0c0,.08-.13.15-.26.18s-.47.17-.7.27l-.12,0,0,0-.17-.11Zm1.15.81c.05,0,.17,0,.18.08s0,.13,0,.19a.1.1,0,0,1,.08.11c0,.29-.07.53-.3.64l-.06.06a1.23,1.23,0,0,1-.44.21.3.3,0,0,0-.15,0h0a.28.28,0,0,0-.19-.14l0,0a.32.32,0,0,0-.09-.22,3.26,3.26,0,0,1,.07-.43h0a.61.61,0,0,1,.12-.17A1.21,1.21,0,0,1,9.24,12.43Zm.28,1.94a.93.93,0,0,1-.15,1.12,1.61,1.61,0,0,1-.89.34v0A.93.93,0,0,1,8,15.67a.32.32,0,0,0-.11-.07l0-.08a1.63,1.63,0,0,1,1.3-1.2C9.28,14.29,9.48,14.25,9.53,14.36Zm1.85-4.12c.21,0,.41.11.41.34s-.25.4-.44.48A1.41,1.41,0,0,1,10.28,11c-.12-.05,0-.17,0-.23l0,0A1.65,1.65,0,0,1,11.38,10.24Zm.41,1.81c.07,0,.06.07,0,.1l.12.06a.86.86,0,0,1,.05.39.25.25,0,0,0,0,.13l-.05.09a.47.47,0,0,1-.1.11h0a2.65,2.65,0,0,1-.7.14l0,0-.11,0a1.14,1.14,0,0,1-.74-.32l0,0a.4.4,0,0,1,0-.33c.16-.33.67-.38,1-.35l.28,0A.48.48,0,0,1,11.79,12.05ZM12,14.42a1.61,1.61,0,0,1,0,.38.3.3,0,0,0,0,.14.83.83,0,0,1-.2.18,1.86,1.86,0,0,1-.5.26.23.23,0,0,1-.08.1.76.76,0,0,1-.73-.51.28.28,0,0,0-.11-.16.48.48,0,0,1,.13-.42,1,1,0,0,1,.79-.26l.08,0,.07,0a.64.64,0,0,1,.42.16A.32.32,0,0,0,12,14.42Zm.63-4.22a1,1,0,0,1,.48-.51A.78.78,0,0,1,14,9.8a.45.45,0,0,1,.06.57.26.26,0,0,1-.16.18,1.32,1.32,0,0,1-.67.24.41.41,0,0,0-.17-.06C12.8,10.7,12.68,10.46,12.64,10.2Zm1.47,1.53c.19.07.48.22.43.42a.32.32,0,0,0,0,.13,1.06,1.06,0,0,1-.6.62.89.89,0,0,1-1-.17.58.58,0,0,1-.17-.4,3.44,3.44,0,0,1,.23-.52,2.24,2.24,0,0,1,.61-.19,2.77,2.77,0,0,1,.46.11Zm.62,1.68a.48.48,0,0,1,.28.85,2.05,2.05,0,0,1-.46.39,2,2,0,0,1-.26.26c-.38.07-.89.19-1-.26a.31.31,0,0,0,0-.08A1.42,1.42,0,0,1,14.73,13.42Z"/>
  <path class="cls-2" d="M60.87,3.65A5.14,5.14,0,0,0,55.58,7c-1.18,2.84,1.85,5.3,4,6.34a.31.31,0,0,0,.36-.1C62.6,12.76,64.67,11.91,65,9A5,5,0,0,0,60.87,3.65Zm-1.15,9c-1.92-1-3.59-2.3-3.72-4.65-.14-2.6,3-4.07,5.16-3.69S64.47,6.92,64.42,9C64.33,11.65,61.86,12.31,59.73,12.65ZM60.5,1c-3.41-.09-7.95,2.27-8,6.15,0,2.55,1.37,4.87,2.46,7.1,1.37,2.79,2.89,5.49,4.49,8.14a.26.26,0,0,0,.11.1l-.06.09c-.24.28.28.62.52.28a63.36,63.36,0,0,0,4.54-7,18.32,18.32,0,0,0,2.6-6.48C67.69,5.26,64.85,1.14,60.5,1Zm5.06,11.59A51.81,51.81,0,0,1,59.92,22a105.06,105.06,0,0,1-5.15-9.55c-1.14-2.32-2.22-4.54-1.09-7.14,1-2.41,3.74-3.41,6.15-3.69C66.13.91,67.59,8.15,65.56,12.59Z"/>
  <path class="cls-2" d="M93.77,10.74h0c-.91-4.4-3.71-7.28-7.7-7.9S77,3.48,75.23,7.67v0l0,.1a10.15,10.15,0,0,0,1.68,10.43,9.83,9.83,0,0,0,10.9,2.49C92.1,19.07,94.63,14.87,93.77,10.74Zm-1.48,5.65A9.65,9.65,0,0,1,84,20.92a9.23,9.23,0,0,1-4.23-1,9.49,9.49,0,0,1-4.1-12l.05-.07c2.36-3.74,7.08-5.33,11.75-4A8.35,8.35,0,0,1,92.61,9,8.56,8.56,0,0,1,92.28,16.38Zm-7.78-4.6a3.53,3.53,0,0,1-.05,1.83,4,4,0,0,1-.94.79l-.4.29-.4.32a7.68,7.68,0,0,1-1.88,1.24s-.1,0-.18-.07a.28.28,0,0,1,0-.33,9.43,9.43,0,0,1,1.1-.84c.24-.17.47-.33.69-.5l.2-.14c.85-.55,1.36-.94,1.47-1.25V13s0-.2-.07-.44-.15-.84-.16-.93l-.1-1.51c0-1-.09-2-.15-3.1V6.88a.21.21,0,0,1,.09-.21.29.29,0,0,1,.15,0,.33.33,0,0,1,.15,0,.26.26,0,0,1,.14.24V7c.09,1.36.19,2.76.25,4.11C84.44,11.33,84.47,11.55,84.5,11.79Zm7.16.71c0,.18-.17.23-.27.24l-.39,0-.39,0a.32.32,0,0,1-.3-.3v0a.22.22,0,0,1,.06-.16.33.33,0,0,1,.21-.11l.42,0,.39,0C91.52,12.28,91.66,12.37,91.66,12.5Zm-2.54-4A.27.27,0,0,1,89,8.36a.22.22,0,0,1,.06-.3c.17-.08.32-.18.47-.27l.27-.16.06,0h.06A.27.27,0,0,1,90,7.7a.22.22,0,0,1-.09.29l-.67.48A.16.16,0,0,1,89.12,8.48ZM78.68,7.86l-.35-.15-.43-.2a.31.31,0,0,1,0-.21.21.21,0,0,1,.17-.11h0l.78.29a.27.27,0,0,1,.16.14.21.21,0,0,1,0,.17h0a.14.14,0,0,1-.09.08A.29.29,0,0,1,78.68,7.86Zm1,9.33a.22.22,0,0,1-.06.3c-.17.08-.33.18-.48.28l-.26.16a.15.15,0,0,1-.12,0,.27.27,0,0,1-.13-.09.22.22,0,0,1,.09-.29l.68-.48a.16.16,0,0,1,.12,0A.27.27,0,0,1,79.68,17.19Zm10.52,0c.11.05,0,.25,0,.27a.16.16,0,0,1-.08.08.16.16,0,0,1-.11,0l-.78-.29a.27.27,0,0,1-.16-.14.21.21,0,0,1,0-.17.23.23,0,0,1,.13-.13h.07a.4.4,0,0,1,.17,0l.35.15ZM83.75,5.14a.19.19,0,0,1,0-.15c0-.12,0-.26,0-.39s0-.29,0-.42a.2.2,0,0,1,.41,0V5a.25.25,0,0,1-.24.24A.24.24,0,0,1,83.75,5.14Zm.39,13.68v.81a.24.24,0,1,1-.47,0c0-.12,0-.26,0-.39s0-.29,0-.42a.19.19,0,0,1,.2-.2A.31.31,0,0,1,84.14,18.81ZM77,13h-.45a.32.32,0,0,1,0-.65H77C77.43,12.4,77.43,13.08,77,13Z"/>
</svg>
