<svg id="Layer_1" data-name="Layer 1" xmlns="http://www.w3.org/2000/svg" width="48" height="48" viewBox="0 0 48 48">
  <defs>
    <style>
      .cls-1 {
        fill: #f50057;
      }
    </style>
  </defs>
  <title>placemark</title>
  <path class="cls-1" d="M35,6.61A13.6,13.6,0,0,0,25,1.76h0A18.46,18.46,0,0,0,12.3,6.61a10.77,10.77,0,0,0-3.55,7.7c0,4.47,2,8.54,4,12.47.31.61.62,1.22.91,1.83,2.55,5.2,5.5,10.53,9,16.29l.09.13a.69.69,0,0,0-.1.68.91.91,0,0,0,.73.54h.11a.87.87,0,0,0,.72-.38,126.28,126.28,0,0,0,9.1-14c2.29-4.1,4.66-8.34,5.23-13.06A15.74,15.74,0,0,0,35,6.61Zm-.11,18.48a102.28,102.28,0,0,1-11,18.47A210.52,210.52,0,0,1,13.77,24.8c-2.26-4.62-4.4-9-2.17-14.08,2.3-5.32,8.57-6.82,12.1-7.23a14.59,14.59,0,0,1,1.64-.09A10.06,10.06,0,0,1,33.87,7.6C37.07,12,37.5,19.37,34.89,25.09Zm-9.09-18h0c-4.93-.81-9.2,2.8-10.87,6.77-2.49,6,4,11,8.18,13a.81.81,0,0,0,.32.07.9.9,0,0,0,.63-.27c4.89-.83,9.51-2.45,10.28-8.61C35,12.9,31.22,8.08,25.79,7.06ZM32.6,18c-.17,4.93-4.68,6.34-9.1,7.06-3.24-1.67-7-4.21-7.24-9.05a5.94,5.94,0,0,1,2.15-4.82,10.24,10.24,0,0,1,6.51-2.41,7.76,7.76,0,0,1,1.36.12C30.74,9.64,32.68,14.13,32.6,18Z"/>
</svg>
